{"glyphs":{"0":{"ha":878,"x_min":11,"x_max":867,"o":"m 672 889 l 206 889 q 61 839 111 889 q 11 694 11 789 l 11 194 q 61 50 11 100 q 206 0 111 0 l 672 0 q 817 50 767 0 q 867 194 867 100 l 867 694 q 817 839 867 789 q 672 889 767 889 m 449 644 l 449 508 l 429 461 l 429 644 l 449 644 m 429 244 l 429 397 l 449 444 l 449 244 l 429 244 "},"1":{"ha":804,"x_min":11,"x_max":793,"o":"m 781 333 l 638 333 l 638 875 q 625 889 638 889 l 97 889 q 85 875 85 889 l 85 564 q 97 550 85 550 l 221 550 l 221 333 l 25 333 q 11 319 11 333 l 11 14 q 25 0 11 0 l 781 0 q 793 14 793 0 l 793 319 q 781 333 793 333 "},"2":{"ha":822,"x_min":11,"x_max":811,"o":"m 811 14 l 811 324 q 797 339 811 339 l 658 339 l 499 244 l 475 244 l 811 464 l 811 694 q 761 839 811 789 q 617 889 711 889 l 206 889 q 61 839 111 889 q 11 694 11 789 l 11 564 q 25 550 11 550 l 165 550 l 324 644 l 347 644 l 14 431 l 14 14 q 28 0 14 0 l 797 0 q 811 14 811 0 "},"3":{"ha":856,"x_min":11,"x_max":844,"o":"m 844 601 l 844 694 q 794 839 844 789 q 650 889 744 889 l 206 889 q 61 839 111 889 q 11 694 11 789 l 11 571 q 25 558 11 558 l 383 558 l 383 538 l 92 538 q 79 525 79 538 l 79 364 q 92 351 79 351 l 383 351 l 383 331 l 25 331 q 11 318 11 331 l 11 194 q 61 50 11 100 q 206 0 111 0 l 650 0 q 794 50 744 0 q 844 194 844 100 l 844 288 q 754 451 844 396 q 844 601 844 503 "},"4":{"ha":843,"x_min":11,"x_max":832,"o":"m 25 189 l 364 189 l 364 14 q 378 0 364 0 l 768 0 q 781 14 781 0 l 781 189 l 819 189 q 832 203 832 189 l 832 419 q 819 433 832 433 l 781 433 l 781 875 q 768 889 781 889 l 378 889 q 364 875 364 889 l 358 433 l 342 433 l 342 875 q 329 889 342 889 l 25 889 q 11 875 11 889 l 11 203 q 25 189 11 189 "},"5":{"ha":799,"x_min":11,"x_max":788,"o":"m 25 0 l 590 0 q 731 56 675 0 q 788 197 788 111 l 788 346 q 738 490 788 440 q 593 540 688 540 l 425 540 l 425 560 l 775 560 q 788 575 788 560 l 788 875 q 775 889 788 889 l 25 889 q 11 875 11 889 l 11 363 q 25 349 11 349 l 342 349 l 342 329 l 25 329 q 11 314 11 329 l 11 14 q 25 0 11 0 "},"6":{"ha":878,"x_min":11,"x_max":867,"o":"m 463 556 l 853 556 q 867 569 867 556 l 867 694 q 817 839 867 789 q 672 889 767 889 l 206 889 q 61 839 111 889 q 11 694 11 789 l 11 194 q 61 50 11 100 q 206 0 111 0 l 672 0 q 817 50 767 0 q 867 194 867 100 l 867 342 q 817 486 867 436 q 672 536 767 536 l 429 536 l 429 644 l 449 644 l 449 569 q 463 556 449 556 m 449 347 l 449 244 l 429 244 l 429 347 l 449 347 "},"7":{"ha":825,"x_min":11,"x_max":814,"o":"m 131 0 l 546 0 q 558 14 558 0 l 558 189 l 814 401 l 814 875 q 801 889 814 889 l 25 889 q 11 875 11 889 l 11 561 q 25 547 11 547 l 257 547 l 401 644 l 425 644 l 117 419 l 117 14 q 131 0 117 0 "},"8":{"ha":878,"x_min":11,"x_max":867,"o":"m 867 601 l 867 694 q 817 839 867 789 q 672 889 767 889 l 206 889 q 61 839 111 889 q 11 694 11 789 l 11 601 q 101 451 11 503 q 11 288 11 397 l 11 194 q 61 50 11 100 q 206 0 111 0 l 672 0 q 817 50 767 0 q 867 194 867 100 l 867 288 q 776 451 867 397 q 867 601 867 503 m 449 544 l 429 544 l 429 644 l 449 644 l 449 544 m 449 244 l 429 244 l 429 344 l 449 344 l 449 244 "},"9":{"ha":878,"x_min":11,"x_max":867,"o":"m 672 889 l 206 889 q 61 839 111 889 q 11 694 11 789 l 11 547 q 61 403 11 453 q 206 353 111 353 l 449 353 l 449 244 l 429 244 l 429 319 q 415 333 429 333 l 25 333 q 11 319 11 333 l 11 194 q 61 50 11 100 q 206 0 111 0 l 672 0 q 817 50 767 0 q 867 194 867 100 l 867 694 q 817 839 867 789 q 672 889 767 889 m 429 542 l 429 644 l 449 644 l 449 542 l 429 542 "},"­":{"ha":694,"x_min":129,"x_max":569,"o":"m 569 1111 l 129 1111 l 129 -278 l 569 -278 l 569 1111 m 463 1018 l 463 972 l 371 972 l 371 921 l 463 921 l 463 875 l 232 875 l 232 921 l 324 921 l 324 972 l 233 972 l 233 1018 l 463 1018 m 371 839 l 371 742 l 463 742 l 463 694 l 232 694 l 232 839 l 371 839 m 324 792 l 278 792 l 278 742 l 324 742 l 324 792 m 463 657 l 463 611 l 371 611 l 371 514 l 232 514 l 232 560 l 324 560 l 324 611 l 232 611 l 232 657 l 463 657 m 463 574 l 463 435 l 232 435 l 232 482 l 417 482 l 417 574 l 463 574 m 463 404 l 463 247 l 232 247 l 232 404 l 278 404 l 278 293 l 417 293 l 417 358 l 371 358 l 371 326 l 324 326 l 324 404 l 463 404 m 463 164 l 463 7 l 232 7 l 232 164 l 463 164 m 417 118 l 278 118 l 278 53 l 417 53 l 417 118 m 463 -25 l 463 -71 l 418 -71 l 321 -136 l 463 -136 l 463 -182 l 232 -182 l 232 -136 l 329 -71 l 232 -71 l 232 -25 l 463 -25 "},"²":{"ha":694,"x_min":129,"x_max":569,"o":"m 569 1111 l 569 -278 l 129 -278 l 129 1111 l 569 1111 m 463 1018 l 233 1018 l 233 972 l 324 972 l 324 921 l 232 921 l 232 875 l 463 875 l 463 921 l 371 921 l 371 972 l 463 972 l 463 1018 m 371 839 l 232 839 l 232 694 l 463 694 l 463 742 l 371 742 l 371 839 m 324 792 l 324 742 l 278 742 l 278 792 l 324 792 m 463 657 l 232 657 l 232 611 l 324 611 l 324 560 l 232 560 l 232 514 l 371 514 l 371 611 l 463 611 l 463 657 m 463 574 l 417 574 l 417 482 l 232 482 l 232 435 l 463 435 l 463 574 m 463 404 l 324 404 l 324 326 l 371 326 l 371 358 l 417 358 l 417 293 l 278 293 l 278 404 l 232 404 l 232 247 l 463 247 l 463 404 m 463 164 l 232 164 l 232 7 l 463 7 l 463 164 m 417 118 l 417 53 l 278 53 l 278 118 l 417 118 m 463 -25 l 232 -25 l 232 -71 l 329 -71 l 232 -136 l 232 -182 l 463 -182 l 463 -136 l 321 -136 l 418 -71 l 463 -71 l 463 -25 "},"³":{"ha":694,"x_min":129,"x_max":569,"o":"m 569 1111 l 129 1111 l 129 -278 l 569 -278 l 569 1111 m 463 1018 l 463 972 l 371 972 l 371 921 l 463 921 l 463 875 l 232 875 l 232 921 l 324 921 l 324 972 l 233 972 l 233 1018 l 463 1018 m 371 839 l 371 742 l 463 742 l 463 694 l 232 694 l 232 839 l 371 839 m 324 792 l 278 792 l 278 742 l 324 742 l 324 792 m 463 657 l 463 611 l 371 611 l 371 514 l 232 514 l 232 560 l 324 560 l 324 611 l 232 611 l 232 657 l 463 657 m 463 574 l 463 435 l 232 435 l 232 482 l 417 482 l 417 574 l 463 574 m 463 404 l 463 247 l 232 247 l 232 404 l 278 404 l 278 293 l 417 293 l 417 358 l 371 358 l 371 326 l 324 326 l 324 404 l 463 404 m 463 164 l 463 7 l 232 7 l 232 164 l 463 164 m 417 118 l 278 118 l 278 53 l 417 53 l 417 118 m 463 -25 l 463 -71 l 418 -71 l 321 -136 l 463 -136 l 463 -182 l 232 -182 l 232 -136 l 329 -71 l 232 -71 l 232 -25 l 463 -25 "},"µ":{"ha":694,"x_min":129,"x_max":569,"o":"m 569 1111 l 569 -278 l 129 -278 l 129 1111 l 569 1111 m 463 1018 l 233 1018 l 233 972 l 324 972 l 324 921 l 232 921 l 232 875 l 463 875 l 463 921 l 371 921 l 371 972 l 463 972 l 463 1018 m 371 839 l 232 839 l 232 694 l 463 694 l 463 742 l 371 742 l 371 839 m 324 792 l 324 742 l 278 742 l 278 792 l 324 792 m 463 657 l 232 657 l 232 611 l 324 611 l 324 560 l 232 560 l 232 514 l 371 514 l 371 611 l 463 611 l 463 657 m 463 574 l 417 574 l 417 482 l 232 482 l 232 435 l 463 435 l 463 574 m 463 404 l 324 404 l 324 326 l 371 326 l 371 358 l 417 358 l 417 293 l 278 293 l 278 404 l 232 404 l 232 247 l 463 247 l 463 404 m 463 164 l 232 164 l 232 7 l 463 7 l 463 164 m 417 118 l 417 53 l 278 53 l 278 118 l 417 118 m 463 -25 l 232 -25 l 232 -71 l 329 -71 l 232 -136 l 232 -182 l 463 -182 l 463 -136 l 321 -136 l 418 -71 l 463 -71 l 463 -25 "},"¹":{"ha":694,"x_min":129,"x_max":569,"o":"m 569 1111 l 129 1111 l 129 -278 l 569 -278 l 569 1111 m 463 1018 l 463 972 l 371 972 l 371 921 l 463 921 l 463 875 l 232 875 l 232 921 l 324 921 l 324 972 l 233 972 l 233 1018 l 463 1018 m 371 839 l 371 742 l 463 742 l 463 694 l 232 694 l 232 839 l 371 839 m 324 792 l 278 792 l 278 742 l 324 742 l 324 792 m 463 657 l 463 611 l 371 611 l 371 514 l 232 514 l 232 560 l 324 560 l 324 611 l 232 611 l 232 657 l 463 657 m 463 574 l 463 435 l 232 435 l 232 482 l 417 482 l 417 574 l 463 574 m 463 404 l 463 247 l 232 247 l 232 404 l 278 404 l 278 293 l 417 293 l 417 358 l 371 358 l 371 326 l 324 326 l 324 404 l 463 404 m 463 164 l 463 7 l 232 7 l 232 164 l 463 164 m 417 118 l 278 118 l 278 53 l 417 53 l 417 118 m 463 -25 l 463 -71 l 418 -71 l 321 -136 l 463 -136 l 463 -182 l 232 -182 l 232 -136 l 329 -71 l 232 -71 l 232 -25 l 463 -25 "},"º":{"ha":694,"x_min":129,"x_max":569,"o":"m 569 1111 l 569 -278 l 129 -278 l 129 1111 l 569 1111 m 463 1018 l 233 1018 l 233 972 l 324 972 l 324 921 l 232 921 l 232 875 l 463 875 l 463 921 l 371 921 l 371 972 l 463 972 l 463 1018 m 371 839 l 232 839 l 232 694 l 463 694 l 463 742 l 371 742 l 371 839 m 324 792 l 324 742 l 278 742 l 278 792 l 324 792 m 463 657 l 232 657 l 232 611 l 324 611 l 324 560 l 232 560 l 232 514 l 371 514 l 371 611 l 463 611 l 463 657 m 463 574 l 417 574 l 417 482 l 232 482 l 232 435 l 463 435 l 463 574 m 463 404 l 324 404 l 324 326 l 371 326 l 371 358 l 417 358 l 417 293 l 278 293 l 278 404 l 232 404 l 232 247 l 463 247 l 463 404 m 463 164 l 232 164 l 232 7 l 463 7 l 463 164 m 417 118 l 417 53 l 278 53 l 278 118 l 417 118 m 463 -25 l 232 -25 l 232 -71 l 329 -71 l 232 -136 l 232 -182 l 463 -182 l 463 -136 l 321 -136 l 418 -71 l 463 -71 l 463 -25 "},"Ĉ":{"ha":694,"x_min":129,"x_max":569,"o":"m 569 1111 l 129 1111 l 129 -278 l 569 -278 l 569 1111 m 463 1018 l 463 972 l 371 972 l 371 921 l 463 921 l 463 875 l 232 875 l 232 921 l 324 921 l 324 972 l 233 972 l 233 1018 l 463 1018 m 371 839 l 371 742 l 463 742 l 463 694 l 232 694 l 232 839 l 371 839 m 324 792 l 278 792 l 278 742 l 324 742 l 324 792 m 463 657 l 463 611 l 371 611 l 371 514 l 232 514 l 232 560 l 324 560 l 324 611 l 232 611 l 232 657 l 463 657 m 463 574 l 463 435 l 232 435 l 232 482 l 417 482 l 417 574 l 463 574 m 463 404 l 463 247 l 232 247 l 232 404 l 278 404 l 278 293 l 417 293 l 417 358 l 371 358 l 371 326 l 324 326 l 324 404 l 463 404 m 463 164 l 463 7 l 232 7 l 232 164 l 463 164 m 417 118 l 278 118 l 278 53 l 417 53 l 417 118 m 463 -25 l 463 -71 l 418 -71 l 321 -136 l 463 -136 l 463 -182 l 232 -182 l 232 -136 l 329 -71 l 232 -71 l 232 -25 l 463 -25 "},"ĉ":{"ha":694,"x_min":129,"x_max":569,"o":"m 569 1111 l 569 -278 l 129 -278 l 129 1111 l 569 1111 m 463 1018 l 233 1018 l 233 972 l 324 972 l 324 921 l 232 921 l 232 875 l 463 875 l 463 921 l 371 921 l 371 972 l 463 972 l 463 1018 m 371 839 l 232 839 l 232 694 l 463 694 l 463 742 l 371 742 l 371 839 m 324 792 l 324 742 l 278 742 l 278 792 l 324 792 m 463 657 l 232 657 l 232 611 l 324 611 l 324 560 l 232 560 l 232 514 l 371 514 l 371 611 l 463 611 l 463 657 m 463 574 l 417 574 l 417 482 l 232 482 l 232 435 l 463 435 l 463 574 m 463 404 l 324 404 l 324 326 l 371 326 l 371 358 l 417 358 l 417 293 l 278 293 l 278 404 l 232 404 l 232 247 l 463 247 l 463 404 m 463 164 l 232 164 l 232 7 l 463 7 l 463 164 m 417 118 l 417 53 l 278 53 l 278 118 l 417 118 m 463 -25 l 232 -25 l 232 -71 l 329 -71 l 232 -136 l 232 -182 l 463 -182 l 463 -136 l 321 -136 l 418 -71 l 463 -71 l 463 -25 "},"Ĕ":{"ha":694,"x_min":129,"x_max":569,"o":"m 569 1111 l 129 1111 l 129 -278 l 569 -278 l 569 1111 m 463 1018 l 463 972 l 371 972 l 371 921 l 463 921 l 463 875 l 232 875 l 232 921 l 324 921 l 324 972 l 233 972 l 233 1018 l 463 1018 m 371 839 l 371 742 l 463 742 l 463 694 l 232 694 l 232 839 l 371 839 m 324 792 l 278 792 l 278 742 l 324 742 l 324 792 m 463 657 l 463 611 l 371 611 l 371 514 l 232 514 l 232 560 l 324 560 l 324 611 l 232 611 l 232 657 l 463 657 m 463 574 l 463 435 l 232 435 l 232 482 l 417 482 l 417 574 l 463 574 m 463 404 l 463 247 l 232 247 l 232 404 l 278 404 l 278 293 l 417 293 l 417 358 l 371 358 l 371 326 l 324 326 l 324 404 l 463 404 m 463 164 l 463 7 l 232 7 l 232 164 l 463 164 m 417 118 l 278 118 l 278 53 l 417 53 l 417 118 m 463 -25 l 463 -71 l 418 -71 l 321 -136 l 463 -136 l 463 -182 l 232 -182 l 232 -136 l 329 -71 l 232 -71 l 232 -25 l 463 -25 "},"ĕ":{"ha":694,"x_min":129,"x_max":569,"o":"m 569 1111 l 569 -278 l 129 -278 l 129 1111 l 569 1111 m 463 1018 l 233 1018 l 233 972 l 324 972 l 324 921 l 232 921 l 232 875 l 463 875 l 463 921 l 371 921 l 371 972 l 463 972 l 463 1018 m 371 839 l 232 839 l 232 694 l 463 694 l 463 742 l 371 742 l 371 839 m 324 792 l 324 742 l 278 742 l 278 792 l 324 792 m 463 657 l 232 657 l 232 611 l 324 611 l 324 560 l 232 560 l 232 514 l 371 514 l 371 611 l 463 611 l 463 657 m 463 574 l 417 574 l 417 482 l 232 482 l 232 435 l 463 435 l 463 574 m 463 404 l 324 404 l 324 326 l 371 326 l 371 358 l 417 358 l 417 293 l 278 293 l 278 404 l 232 404 l 232 247 l 463 247 l 463 404 m 463 164 l 232 164 l 232 7 l 463 7 l 463 164 m 417 118 l 417 53 l 278 53 l 278 118 l 417 118 m 463 -25 l 232 -25 l 232 -71 l 329 -71 l 232 -136 l 232 -182 l 463 -182 l 463 -136 l 321 -136 l 418 -71 l 463 -71 l 463 -25 "},"Ĝ":{"ha":694,"x_min":129,"x_max":569,"o":"m 569 1111 l 129 1111 l 129 -278 l 569 -278 l 569 1111 m 463 1018 l 463 972 l 371 972 l 371 921 l 463 921 l 463 875 l 232 875 l 232 921 l 324 921 l 324 972 l 233 972 l 233 1018 l 463 1018 m 371 839 l 371 742 l 463 742 l 463 694 l 232 694 l 232 839 l 371 839 m 324 792 l 278 792 l 278 742 l 324 742 l 324 792 m 463 657 l 463 611 l 371 611 l 371 514 l 232 514 l 232 560 l 324 560 l 324 611 l 232 611 l 232 657 l 463 657 m 463 574 l 463 435 l 232 435 l 232 482 l 417 482 l 417 574 l 463 574 m 463 404 l 463 247 l 232 247 l 232 404 l 278 404 l 278 293 l 417 293 l 417 358 l 371 358 l 371 326 l 324 326 l 324 404 l 463 404 m 463 164 l 463 7 l 232 7 l 232 164 l 463 164 m 417 118 l 278 118 l 278 53 l 417 53 l 417 118 m 463 -25 l 463 -71 l 418 -71 l 321 -136 l 463 -136 l 463 -182 l 232 -182 l 232 -136 l 329 -71 l 232 -71 l 232 -25 l 463 -25 "},"ĝ":{"ha":694,"x_min":129,"x_max":569,"o":"m 569 1111 l 569 -278 l 129 -278 l 129 1111 l 569 1111 m 463 1018 l 233 1018 l 233 972 l 324 972 l 324 921 l 232 921 l 232 875 l 463 875 l 463 921 l 371 921 l 371 972 l 463 972 l 463 1018 m 371 839 l 232 839 l 232 694 l 463 694 l 463 742 l 371 742 l 371 839 m 324 792 l 324 742 l 278 742 l 278 792 l 324 792 m 463 657 l 232 657 l 232 611 l 324 611 l 324 560 l 232 560 l 232 514 l 371 514 l 371 611 l 463 611 l 463 657 m 463 574 l 417 574 l 417 482 l 232 482 l 232 435 l 463 435 l 463 574 m 463 404 l 324 404 l 324 326 l 371 326 l 371 358 l 417 358 l 417 293 l 278 293 l 278 404 l 232 404 l 232 247 l 463 247 l 463 404 m 463 164 l 232 164 l 232 7 l 463 7 l 463 164 m 417 118 l 417 53 l 278 53 l 278 118 l 417 118 m 463 -25 l 232 -25 l 232 -71 l 329 -71 l 232 -136 l 232 -182 l 463 -182 l 463 -136 l 321 -136 l 418 -71 l 463 -71 l 463 -25 "},"Ĥ":{"ha":694,"x_min":129,"x_max":569,"o":"m 569 1111 l 129 1111 l 129 -278 l 569 -278 l 569 1111 m 463 1018 l 463 972 l 371 972 l 371 921 l 463 921 l 463 875 l 232 875 l 232 921 l 324 921 l 324 972 l 233 972 l 233 1018 l 463 1018 m 371 839 l 371 742 l 463 742 l 463 694 l 232 694 l 232 839 l 371 839 m 324 792 l 278 792 l 278 742 l 324 742 l 324 792 m 463 657 l 463 611 l 371 611 l 371 514 l 232 514 l 232 560 l 324 560 l 324 611 l 232 611 l 232 657 l 463 657 m 463 574 l 463 435 l 232 435 l 232 482 l 417 482 l 417 574 l 463 574 m 463 404 l 463 247 l 232 247 l 232 404 l 278 404 l 278 293 l 417 293 l 417 358 l 371 358 l 371 326 l 324 326 l 324 404 l 463 404 m 463 164 l 463 7 l 232 7 l 232 164 l 463 164 m 417 118 l 278 118 l 278 53 l 417 53 l 417 118 m 463 -25 l 463 -71 l 418 -71 l 321 -136 l 463 -136 l 463 -182 l 232 -182 l 232 -136 l 329 -71 l 232 -71 l 232 -25 l 463 -25 "},"ĥ":{"ha":694,"x_min":129,"x_max":569,"o":"m 569 1111 l 569 -278 l 129 -278 l 129 1111 l 569 1111 m 463 1018 l 233 1018 l 233 972 l 324 972 l 324 921 l 232 921 l 232 875 l 463 875 l 463 921 l 371 921 l 371 972 l 463 972 l 463 1018 m 371 839 l 232 839 l 232 694 l 463 694 l 463 742 l 371 742 l 371 839 m 324 792 l 324 742 l 278 742 l 278 792 l 324 792 m 463 657 l 232 657 l 232 611 l 324 611 l 324 560 l 232 560 l 232 514 l 371 514 l 371 611 l 463 611 l 463 657 m 463 574 l 417 574 l 417 482 l 232 482 l 232 435 l 463 435 l 463 574 m 463 404 l 324 404 l 324 326 l 371 326 l 371 358 l 417 358 l 417 293 l 278 293 l 278 404 l 232 404 l 232 247 l 463 247 l 463 404 m 463 164 l 232 164 l 232 7 l 463 7 l 463 164 m 417 118 l 417 53 l 278 53 l 278 118 l 417 118 m 463 -25 l 232 -25 l 232 -71 l 329 -71 l 232 -136 l 232 -182 l 463 -182 l 463 -136 l 321 -136 l 418 -71 l 463 -71 l 463 -25 "},"Ĩ":{"ha":694,"x_min":129,"x_max":569,"o":"m 569 1111 l 129 1111 l 129 -278 l 569 -278 l 569 1111 m 463 1018 l 463 972 l 371 972 l 371 921 l 463 921 l 463 875 l 232 875 l 232 921 l 324 921 l 324 972 l 233 972 l 233 1018 l 463 1018 m 371 839 l 371 742 l 463 742 l 463 694 l 232 694 l 232 839 l 371 839 m 324 792 l 278 792 l 278 742 l 324 742 l 324 792 m 463 657 l 463 611 l 371 611 l 371 514 l 232 514 l 232 560 l 324 560 l 324 611 l 232 611 l 232 657 l 463 657 m 463 574 l 463 435 l 232 435 l 232 482 l 417 482 l 417 574 l 463 574 m 463 404 l 463 247 l 232 247 l 232 404 l 278 404 l 278 293 l 417 293 l 417 358 l 371 358 l 371 326 l 324 326 l 324 404 l 463 404 m 463 164 l 463 7 l 232 7 l 232 164 l 463 164 m 417 118 l 278 118 l 278 53 l 417 53 l 417 118 m 463 -25 l 463 -71 l 418 -71 l 321 -136 l 463 -136 l 463 -182 l 232 -182 l 232 -136 l 329 -71 l 232 -71 l 232 -25 l 463 -25 "},"ĩ":{"ha":694,"x_min":129,"x_max":569,"o":"m 569 1111 l 569 -278 l 129 -278 l 129 1111 l 569 1111 m 463 1018 l 233 1018 l 233 972 l 324 972 l 324 921 l 232 921 l 232 875 l 463 875 l 463 921 l 371 921 l 371 972 l 463 972 l 463 1018 m 371 839 l 232 839 l 232 694 l 463 694 l 463 742 l 371 742 l 371 839 m 324 792 l 324 742 l 278 742 l 278 792 l 324 792 m 463 657 l 232 657 l 232 611 l 324 611 l 324 560 l 232 560 l 232 514 l 371 514 l 371 611 l 463 611 l 463 657 m 463 574 l 417 574 l 417 482 l 232 482 l 232 435 l 463 435 l 463 574 m 463 404 l 324 404 l 324 326 l 371 326 l 371 358 l 417 358 l 417 293 l 278 293 l 278 404 l 232 404 l 232 247 l 463 247 l 463 404 m 463 164 l 232 164 l 232 7 l 463 7 l 463 164 m 417 118 l 417 53 l 278 53 l 278 118 l 417 118 m 463 -25 l 232 -25 l 232 -71 l 329 -71 l 232 -136 l 232 -182 l 463 -182 l 463 -136 l 321 -136 l 418 -71 l 463 -71 l 463 -25 "},"Ĭ":{"ha":694,"x_min":129,"x_max":569,"o":"m 569 1111 l 129 1111 l 129 -278 l 569 -278 l 569 1111 m 463 1018 l 463 972 l 371 972 l 371 921 l 463 921 l 463 875 l 232 875 l 232 921 l 324 921 l 324 972 l 233 972 l 233 1018 l 463 1018 m 371 839 l 371 742 l 463 742 l 463 694 l 232 694 l 232 839 l 371 839 m 324 792 l 278 792 l 278 742 l 324 742 l 324 792 m 463 657 l 463 611 l 371 611 l 371 514 l 232 514 l 232 560 l 324 560 l 324 611 l 232 611 l 232 657 l 463 657 m 463 574 l 463 435 l 232 435 l 232 482 l 417 482 l 417 574 l 463 574 m 463 404 l 463 247 l 232 247 l 232 404 l 278 404 l 278 293 l 417 293 l 417 358 l 371 358 l 371 326 l 324 326 l 324 404 l 463 404 m 463 164 l 463 7 l 232 7 l 232 164 l 463 164 m 417 118 l 278 118 l 278 53 l 417 53 l 417 118 m 463 -25 l 463 -71 l 418 -71 l 321 -136 l 463 -136 l 463 -182 l 232 -182 l 232 -136 l 329 -71 l 232 -71 l 232 -25 l 463 -25 "},"ĭ":{"ha":694,"x_min":129,"x_max":569,"o":"m 569 1111 l 569 -278 l 129 -278 l 129 1111 l 569 1111 m 463 1018 l 233 1018 l 233 972 l 324 972 l 324 921 l 232 921 l 232 875 l 463 875 l 463 921 l 371 921 l 371 972 l 463 972 l 463 1018 m 371 839 l 232 839 l 232 694 l 463 694 l 463 742 l 371 742 l 371 839 m 324 792 l 324 742 l 278 742 l 278 792 l 324 792 m 463 657 l 232 657 l 232 611 l 324 611 l 324 560 l 232 560 l 232 514 l 371 514 l 371 611 l 463 611 l 463 657 m 463 574 l 417 574 l 417 482 l 232 482 l 232 435 l 463 435 l 463 574 m 463 404 l 324 404 l 324 326 l 371 326 l 371 358 l 417 358 l 417 293 l 278 293 l 278 404 l 232 404 l 232 247 l 463 247 l 463 404 m 463 164 l 232 164 l 232 7 l 463 7 l 463 164 m 417 118 l 417 53 l 278 53 l 278 118 l 417 118 m 463 -25 l 232 -25 l 232 -71 l 329 -71 l 232 -136 l 232 -182 l 463 -182 l 463 -136 l 321 -136 l 418 -71 l 463 -71 l 463 -25 "},"ĸ":{"ha":694,"x_min":129,"x_max":569,"o":"m 569 1111 l 129 1111 l 129 -278 l 569 -278 l 569 1111 m 463 1018 l 463 972 l 371 972 l 371 921 l 463 921 l 463 875 l 232 875 l 232 921 l 324 921 l 324 972 l 233 972 l 233 1018 l 463 1018 m 371 839 l 371 742 l 463 742 l 463 694 l 232 694 l 232 839 l 371 839 m 324 792 l 278 792 l 278 742 l 324 742 l 324 792 m 463 657 l 463 611 l 371 611 l 371 514 l 232 514 l 232 560 l 324 560 l 324 611 l 232 611 l 232 657 l 463 657 m 463 574 l 463 435 l 232 435 l 232 482 l 417 482 l 417 574 l 463 574 m 463 404 l 463 247 l 232 247 l 232 404 l 278 404 l 278 293 l 417 293 l 417 358 l 371 358 l 371 326 l 324 326 l 324 404 l 463 404 m 463 164 l 463 7 l 232 7 l 232 164 l 463 164 m 417 118 l 278 118 l 278 53 l 417 53 l 417 118 m 463 -25 l 463 -71 l 418 -71 l 321 -136 l 463 -136 l 463 -182 l 232 -182 l 232 -136 l 329 -71 l 232 -71 l 232 -25 l 463 -25 "},"Ŀ":{"ha":694,"x_min":129,"x_max":569,"o":"m 569 1111 l 569 -278 l 129 -278 l 129 1111 l 569 1111 m 463 1018 l 233 1018 l 233 972 l 324 972 l 324 921 l 232 921 l 232 875 l 463 875 l 463 921 l 371 921 l 371 972 l 463 972 l 463 1018 m 371 839 l 232 839 l 232 694 l 463 694 l 463 742 l 371 742 l 371 839 m 324 792 l 324 742 l 278 742 l 278 792 l 324 792 m 463 657 l 232 657 l 232 611 l 324 611 l 324 560 l 232 560 l 232 514 l 371 514 l 371 611 l 463 611 l 463 657 m 463 574 l 417 574 l 417 482 l 232 482 l 232 435 l 463 435 l 463 574 m 463 404 l 324 404 l 324 326 l 371 326 l 371 358 l 417 358 l 417 293 l 278 293 l 278 404 l 232 404 l 232 247 l 463 247 l 463 404 m 463 164 l 232 164 l 232 7 l 463 7 l 463 164 m 417 118 l 417 53 l 278 53 l 278 118 l 417 118 m 463 -25 l 232 -25 l 232 -71 l 329 -71 l 232 -136 l 232 -182 l 463 -182 l 463 -136 l 321 -136 l 418 -71 l 463 -71 l 463 -25 "},"ŀ":{"ha":694,"x_min":129,"x_max":569,"o":"m 569 1111 l 129 1111 l 129 -278 l 569 -278 l 569 1111 m 463 1018 l 463 972 l 371 972 l 371 921 l 463 921 l 463 875 l 232 875 l 232 921 l 324 921 l 324 972 l 233 972 l 233 1018 l 463 1018 m 371 839 l 371 742 l 463 742 l 463 694 l 232 694 l 232 839 l 371 839 m 324 792 l 278 792 l 278 742 l 324 742 l 324 792 m 463 657 l 463 611 l 371 611 l 371 514 l 232 514 l 232 560 l 324 560 l 324 611 l 232 611 l 232 657 l 463 657 m 463 574 l 463 435 l 232 435 l 232 482 l 417 482 l 417 574 l 463 574 m 463 404 l 463 247 l 232 247 l 232 404 l 278 404 l 278 293 l 417 293 l 417 358 l 371 358 l 371 326 l 324 326 l 324 404 l 463 404 m 463 164 l 463 7 l 232 7 l 232 164 l 463 164 m 417 118 l 278 118 l 278 53 l 417 53 l 417 118 m 463 -25 l 463 -71 l 418 -71 l 321 -136 l 463 -136 l 463 -182 l 232 -182 l 232 -136 l 329 -71 l 232 -71 l 232 -25 l 463 -25 "},"ŉ":{"ha":694,"x_min":129,"x_max":569,"o":"m 569 1111 l 569 -278 l 129 -278 l 129 1111 l 569 1111 m 463 1018 l 233 1018 l 233 972 l 324 972 l 324 921 l 232 921 l 232 875 l 463 875 l 463 921 l 371 921 l 371 972 l 463 972 l 463 1018 m 371 839 l 232 839 l 232 694 l 463 694 l 463 742 l 371 742 l 371 839 m 324 792 l 324 742 l 278 742 l 278 792 l 324 792 m 463 657 l 232 657 l 232 611 l 324 611 l 324 560 l 232 560 l 232 514 l 371 514 l 371 611 l 463 611 l 463 657 m 463 574 l 417 574 l 417 482 l 232 482 l 232 435 l 463 435 l 463 574 m 463 404 l 324 404 l 324 326 l 371 326 l 371 358 l 417 358 l 417 293 l 278 293 l 278 404 l 232 404 l 232 247 l 463 247 l 463 404 m 463 164 l 232 164 l 232 7 l 463 7 l 463 164 m 417 118 l 417 53 l 278 53 l 278 118 l 417 118 m 463 -25 l 232 -25 l 232 -71 l 329 -71 l 232 -136 l 232 -182 l 463 -182 l 463 -136 l 321 -136 l 418 -71 l 463 -71 l 463 -25 "},"Ŏ":{"ha":694,"x_min":129,"x_max":569,"o":"m 569 1111 l 129 1111 l 129 -278 l 569 -278 l 569 1111 m 463 1018 l 463 972 l 371 972 l 371 921 l 463 921 l 463 875 l 232 875 l 232 921 l 324 921 l 324 972 l 233 972 l 233 1018 l 463 1018 m 371 839 l 371 742 l 463 742 l 463 694 l 232 694 l 232 839 l 371 839 m 324 792 l 278 792 l 278 742 l 324 742 l 324 792 m 463 657 l 463 611 l 371 611 l 371 514 l 232 514 l 232 560 l 324 560 l 324 611 l 232 611 l 232 657 l 463 657 m 463 574 l 463 435 l 232 435 l 232 482 l 417 482 l 417 574 l 463 574 m 463 404 l 463 247 l 232 247 l 232 404 l 278 404 l 278 293 l 417 293 l 417 358 l 371 358 l 371 326 l 324 326 l 324 404 l 463 404 m 463 164 l 463 7 l 232 7 l 232 164 l 463 164 m 417 118 l 278 118 l 278 53 l 417 53 l 417 118 m 463 -25 l 463 -71 l 418 -71 l 321 -136 l 463 -136 l 463 -182 l 232 -182 l 232 -136 l 329 -71 l 232 -71 l 232 -25 l 463 -25 "},"ŏ":{"ha":694,"x_min":129,"x_max":569,"o":"m 569 1111 l 569 -278 l 129 -278 l 129 1111 l 569 1111 m 463 1018 l 233 1018 l 233 972 l 324 972 l 324 921 l 232 921 l 232 875 l 463 875 l 463 921 l 371 921 l 371 972 l 463 972 l 463 1018 m 371 839 l 232 839 l 232 694 l 463 694 l 463 742 l 371 742 l 371 839 m 324 792 l 324 742 l 278 742 l 278 792 l 324 792 m 463 657 l 232 657 l 232 611 l 324 611 l 324 560 l 232 560 l 232 514 l 371 514 l 371 611 l 463 611 l 463 657 m 463 574 l 417 574 l 417 482 l 232 482 l 232 435 l 463 435 l 463 574 m 463 404 l 324 404 l 324 326 l 371 326 l 371 358 l 417 358 l 417 293 l 278 293 l 278 404 l 232 404 l 232 247 l 463 247 l 463 404 m 463 164 l 232 164 l 232 7 l 463 7 l 463 164 m 417 118 l 417 53 l 278 53 l 278 118 l 417 118 m 463 -25 l 232 -25 l 232 -71 l 329 -71 l 232 -136 l 232 -182 l 463 -182 l 463 -136 l 321 -136 l 418 -71 l 463 -71 l 463 -25 "},"Ŝ":{"ha":694,"x_min":129,"x_max":569,"o":"m 569 1111 l 129 1111 l 129 -278 l 569 -278 l 569 1111 m 463 1018 l 463 972 l 371 972 l 371 921 l 463 921 l 463 875 l 232 875 l 232 921 l 324 921 l 324 972 l 233 972 l 233 1018 l 463 1018 m 371 839 l 371 742 l 463 742 l 463 694 l 232 694 l 232 839 l 371 839 m 324 792 l 278 792 l 278 742 l 324 742 l 324 792 m 463 657 l 463 611 l 371 611 l 371 514 l 232 514 l 232 560 l 324 560 l 324 611 l 232 611 l 232 657 l 463 657 m 463 574 l 463 435 l 232 435 l 232 482 l 417 482 l 417 574 l 463 574 m 463 404 l 463 247 l 232 247 l 232 404 l 278 404 l 278 293 l 417 293 l 417 358 l 371 358 l 371 326 l 324 326 l 324 404 l 463 404 m 463 164 l 463 7 l 232 7 l 232 164 l 463 164 m 417 118 l 278 118 l 278 53 l 417 53 l 417 118 m 463 -25 l 463 -71 l 418 -71 l 321 -136 l 463 -136 l 463 -182 l 232 -182 l 232 -136 l 329 -71 l 232 -71 l 232 -25 l 463 -25 "},"ŝ":{"ha":694,"x_min":129,"x_max":569,"o":"m 569 1111 l 569 -278 l 129 -278 l 129 1111 l 569 1111 m 463 1018 l 233 1018 l 233 972 l 324 972 l 324 921 l 232 921 l 232 875 l 463 875 l 463 921 l 371 921 l 371 972 l 463 972 l 463 1018 m 371 839 l 232 839 l 232 694 l 463 694 l 463 742 l 371 742 l 371 839 m 324 792 l 324 742 l 278 742 l 278 792 l 324 792 m 463 657 l 232 657 l 232 611 l 324 611 l 324 560 l 232 560 l 232 514 l 371 514 l 371 611 l 463 611 l 463 657 m 463 574 l 417 574 l 417 482 l 232 482 l 232 435 l 463 435 l 463 574 m 463 404 l 324 404 l 324 326 l 371 326 l 371 358 l 417 358 l 417 293 l 278 293 l 278 404 l 232 404 l 232 247 l 463 247 l 463 404 m 463 164 l 232 164 l 232 7 l 463 7 l 463 164 m 417 118 l 417 53 l 278 53 l 278 118 l 417 118 m 463 -25 l 232 -25 l 232 -71 l 329 -71 l 232 -136 l 232 -182 l 463 -182 l 463 -136 l 321 -136 l 418 -71 l 463 -71 l 463 -25 "},"Ũ":{"ha":694,"x_min":129,"x_max":569,"o":"m 569 1111 l 129 1111 l 129 -278 l 569 -278 l 569 1111 m 463 1018 l 463 972 l 371 972 l 371 921 l 463 921 l 463 875 l 232 875 l 232 921 l 324 921 l 324 972 l 233 972 l 233 1018 l 463 1018 m 371 839 l 371 742 l 463 742 l 463 694 l 232 694 l 232 839 l 371 839 m 324 792 l 278 792 l 278 742 l 324 742 l 324 792 m 463 657 l 463 611 l 371 611 l 371 514 l 232 514 l 232 560 l 324 560 l 324 611 l 232 611 l 232 657 l 463 657 m 463 574 l 463 435 l 232 435 l 232 482 l 417 482 l 417 574 l 463 574 m 463 404 l 463 247 l 232 247 l 232 404 l 278 404 l 278 293 l 417 293 l 417 358 l 371 358 l 371 326 l 324 326 l 324 404 l 463 404 m 463 164 l 463 7 l 232 7 l 232 164 l 463 164 m 417 118 l 278 118 l 278 53 l 417 53 l 417 118 m 463 -25 l 463 -71 l 418 -71 l 321 -136 l 463 -136 l 463 -182 l 232 -182 l 232 -136 l 329 -71 l 232 -71 l 232 -25 l 463 -25 "},"ũ":{"ha":694,"x_min":129,"x_max":569,"o":"m 569 1111 l 569 -278 l 129 -278 l 129 1111 l 569 1111 m 463 1018 l 233 1018 l 233 972 l 324 972 l 324 921 l 232 921 l 232 875 l 463 875 l 463 921 l 371 921 l 371 972 l 463 972 l 463 1018 m 371 839 l 232 839 l 232 694 l 463 694 l 463 742 l 371 742 l 371 839 m 324 792 l 324 742 l 278 742 l 278 792 l 324 792 m 463 657 l 232 657 l 232 611 l 324 611 l 324 560 l 232 560 l 232 514 l 371 514 l 371 611 l 463 611 l 463 657 m 463 574 l 417 574 l 417 482 l 232 482 l 232 435 l 463 435 l 463 574 m 463 404 l 324 404 l 324 326 l 371 326 l 371 358 l 417 358 l 417 293 l 278 293 l 278 404 l 232 404 l 232 247 l 463 247 l 463 404 m 463 164 l 232 164 l 232 7 l 463 7 l 463 164 m 417 118 l 417 53 l 278 53 l 278 118 l 417 118 m 463 -25 l 232 -25 l 232 -71 l 329 -71 l 232 -136 l 232 -182 l 463 -182 l 463 -136 l 321 -136 l 418 -71 l 463 -71 l 463 -25 "},"Ŭ":{"ha":694,"x_min":129,"x_max":569,"o":"m 569 1111 l 129 1111 l 129 -278 l 569 -278 l 569 1111 m 463 1018 l 463 972 l 371 972 l 371 921 l 463 921 l 463 875 l 232 875 l 232 921 l 324 921 l 324 972 l 233 972 l 233 1018 l 463 1018 m 371 839 l 371 742 l 463 742 l 463 694 l 232 694 l 232 839 l 371 839 m 324 792 l 278 792 l 278 742 l 324 742 l 324 792 m 463 657 l 463 611 l 371 611 l 371 514 l 232 514 l 232 560 l 324 560 l 324 611 l 232 611 l 232 657 l 463 657 m 463 574 l 463 435 l 232 435 l 232 482 l 417 482 l 417 574 l 463 574 m 463 404 l 463 247 l 232 247 l 232 404 l 278 404 l 278 293 l 417 293 l 417 358 l 371 358 l 371 326 l 324 326 l 324 404 l 463 404 m 463 164 l 463 7 l 232 7 l 232 164 l 463 164 m 417 118 l 278 118 l 278 53 l 417 53 l 417 118 m 463 -25 l 463 -71 l 418 -71 l 321 -136 l 463 -136 l 463 -182 l 232 -182 l 232 -136 l 329 -71 l 232 -71 l 232 -25 l 463 -25 "},"ŭ":{"ha":694,"x_min":129,"x_max":569,"o":"m 569 1111 l 569 -278 l 129 -278 l 129 1111 l 569 1111 m 463 1018 l 233 1018 l 233 972 l 324 972 l 324 921 l 232 921 l 232 875 l 463 875 l 463 921 l 371 921 l 371 972 l 463 972 l 463 1018 m 371 839 l 232 839 l 232 694 l 463 694 l 463 742 l 371 742 l 371 839 m 324 792 l 324 742 l 278 742 l 278 792 l 324 792 m 463 657 l 232 657 l 232 611 l 324 611 l 324 560 l 232 560 l 232 514 l 371 514 l 371 611 l 463 611 l 463 657 m 463 574 l 417 574 l 417 482 l 232 482 l 232 435 l 463 435 l 463 574 m 463 404 l 324 404 l 324 326 l 371 326 l 371 358 l 417 358 l 417 293 l 278 293 l 278 404 l 232 404 l 232 247 l 463 247 l 463 404 m 463 164 l 232 164 l 232 7 l 463 7 l 463 164 m 417 118 l 417 53 l 278 53 l 278 118 l 417 118 m 463 -25 l 232 -25 l 232 -71 l 329 -71 l 232 -136 l 232 -182 l 463 -182 l 463 -136 l 321 -136 l 418 -71 l 463 -71 l 463 -25 "},"̉":{"ha":694,"x_min":129,"x_max":569,"o":"m 569 1111 l 129 1111 l 129 -278 l 569 -278 l 569 1111 m 463 1018 l 463 972 l 371 972 l 371 921 l 463 921 l 463 875 l 232 875 l 232 921 l 324 921 l 324 972 l 233 972 l 233 1018 l 463 1018 m 371 839 l 371 742 l 463 742 l 463 694 l 232 694 l 232 839 l 371 839 m 324 792 l 278 792 l 278 742 l 324 742 l 324 792 m 463 657 l 463 611 l 371 611 l 371 514 l 232 514 l 232 560 l 324 560 l 324 611 l 232 611 l 232 657 l 463 657 m 463 574 l 463 435 l 232 435 l 232 482 l 417 482 l 417 574 l 463 574 m 463 404 l 463 247 l 232 247 l 232 404 l 278 404 l 278 293 l 417 293 l 417 358 l 371 358 l 371 326 l 324 326 l 324 404 l 463 404 m 463 164 l 463 7 l 232 7 l 232 164 l 463 164 m 417 118 l 278 118 l 278 53 l 417 53 l 417 118 m 463 -25 l 463 -71 l 418 -71 l 321 -136 l 463 -136 l 463 -182 l 232 -182 l 232 -136 l 329 -71 l 232 -71 l 232 -25 l 463 -25 "},"―":{"ha":694,"x_min":129,"x_max":569,"o":"m 569 1111 l 569 -278 l 129 -278 l 129 1111 l 569 1111 m 463 1018 l 233 1018 l 233 972 l 324 972 l 324 921 l 232 921 l 232 875 l 463 875 l 463 921 l 371 921 l 371 972 l 463 972 l 463 1018 m 371 839 l 232 839 l 232 694 l 463 694 l 463 742 l 371 742 l 371 839 m 324 792 l 324 742 l 278 742 l 278 792 l 324 792 m 463 657 l 232 657 l 232 611 l 324 611 l 324 560 l 232 560 l 232 514 l 371 514 l 371 611 l 463 611 l 463 657 m 463 574 l 417 574 l 417 482 l 232 482 l 232 435 l 463 435 l 463 574 m 463 404 l 324 404 l 324 326 l 371 326 l 371 358 l 417 358 l 417 293 l 278 293 l 278 404 l 232 404 l 232 247 l 463 247 l 463 404 m 463 164 l 232 164 l 232 7 l 463 7 l 463 164 m 417 118 l 417 53 l 278 53 l 278 118 l 417 118 m 463 -25 l 232 -25 l 232 -71 l 329 -71 l 232 -136 l 232 -182 l 463 -182 l 463 -136 l 321 -136 l 418 -71 l 463 -71 l 463 -25 "},"‖":{"ha":694,"x_min":129,"x_max":569,"o":"m 569 1111 l 129 1111 l 129 -278 l 569 -278 l 569 1111 m 463 1018 l 463 972 l 371 972 l 371 921 l 463 921 l 463 875 l 232 875 l 232 921 l 324 921 l 324 972 l 233 972 l 233 1018 l 463 1018 m 371 839 l 371 742 l 463 742 l 463 694 l 232 694 l 232 839 l 371 839 m 324 792 l 278 792 l 278 742 l 324 742 l 324 792 m 463 657 l 463 611 l 371 611 l 371 514 l 232 514 l 232 560 l 324 560 l 324 611 l 232 611 l 232 657 l 463 657 m 463 574 l 463 435 l 232 435 l 232 482 l 417 482 l 417 574 l 463 574 m 463 404 l 463 247 l 232 247 l 232 404 l 278 404 l 278 293 l 417 293 l 417 358 l 371 358 l 371 326 l 324 326 l 324 404 l 463 404 m 463 164 l 463 7 l 232 7 l 232 164 l 463 164 m 417 118 l 278 118 l 278 53 l 417 53 l 417 118 m 463 -25 l 463 -71 l 418 -71 l 321 -136 l 463 -136 l 463 -182 l 232 -182 l 232 -136 l 329 -71 l 232 -71 l 232 -25 l 463 -25 "},"‗":{"ha":694,"x_min":129,"x_max":569,"o":"m 569 1111 l 569 -278 l 129 -278 l 129 1111 l 569 1111 m 463 1018 l 233 1018 l 233 972 l 324 972 l 324 921 l 232 921 l 232 875 l 463 875 l 463 921 l 371 921 l 371 972 l 463 972 l 463 1018 m 371 839 l 232 839 l 232 694 l 463 694 l 463 742 l 371 742 l 371 839 m 324 792 l 324 742 l 278 742 l 278 792 l 324 792 m 463 657 l 232 657 l 232 611 l 324 611 l 324 560 l 232 560 l 232 514 l 371 514 l 371 611 l 463 611 l 463 657 m 463 574 l 417 574 l 417 482 l 232 482 l 232 435 l 463 435 l 463 574 m 463 404 l 324 404 l 324 326 l 371 326 l 371 358 l 417 358 l 417 293 l 278 293 l 278 404 l 232 404 l 232 247 l 463 247 l 463 404 m 463 164 l 232 164 l 232 7 l 463 7 l 463 164 m 417 118 l 417 53 l 278 53 l 278 118 l 417 118 m 463 -25 l 232 -25 l 232 -71 l 329 -71 l 232 -136 l 232 -182 l 463 -182 l 463 -136 l 321 -136 l 418 -71 l 463 -71 l 463 -25 "},"‛":{"ha":694,"x_min":129,"x_max":569,"o":"m 569 1111 l 129 1111 l 129 -278 l 569 -278 l 569 1111 m 463 1018 l 463 972 l 371 972 l 371 921 l 463 921 l 463 875 l 232 875 l 232 921 l 324 921 l 324 972 l 233 972 l 233 1018 l 463 1018 m 371 839 l 371 742 l 463 742 l 463 694 l 232 694 l 232 839 l 371 839 m 324 792 l 278 792 l 278 742 l 324 742 l 324 792 m 463 657 l 463 611 l 371 611 l 371 514 l 232 514 l 232 560 l 324 560 l 324 611 l 232 611 l 232 657 l 463 657 m 463 574 l 463 435 l 232 435 l 232 482 l 417 482 l 417 574 l 463 574 m 463 404 l 463 247 l 232 247 l 232 404 l 278 404 l 278 293 l 417 293 l 417 358 l 371 358 l 371 326 l 324 326 l 324 404 l 463 404 m 463 164 l 463 7 l 232 7 l 232 164 l 463 164 m 417 118 l 278 118 l 278 53 l 417 53 l 417 118 m 463 -25 l 463 -71 l 418 -71 l 321 -136 l 463 -136 l 463 -182 l 232 -182 l 232 -136 l 329 -71 l 232 -71 l 232 -25 l 463 -25 "},"‟":{"ha":694,"x_min":129,"x_max":569,"o":"m 569 1111 l 569 -278 l 129 -278 l 129 1111 l 569 1111 m 463 1018 l 233 1018 l 233 972 l 324 972 l 324 921 l 232 921 l 232 875 l 463 875 l 463 921 l 371 921 l 371 972 l 463 972 l 463 1018 m 371 839 l 232 839 l 232 694 l 463 694 l 463 742 l 371 742 l 371 839 m 324 792 l 324 742 l 278 742 l 278 792 l 324 792 m 463 657 l 232 657 l 232 611 l 324 611 l 324 560 l 232 560 l 232 514 l 371 514 l 371 611 l 463 611 l 463 657 m 463 574 l 417 574 l 417 482 l 232 482 l 232 435 l 463 435 l 463 574 m 463 404 l 324 404 l 324 326 l 371 326 l 371 358 l 417 358 l 417 293 l 278 293 l 278 404 l 232 404 l 232 247 l 463 247 l 463 404 m 463 164 l 232 164 l 232 7 l 463 7 l 463 164 m 417 118 l 417 53 l 278 53 l 278 118 l 417 118 m 463 -25 l 232 -25 l 232 -71 l 329 -71 l 232 -136 l 232 -182 l 463 -182 l 463 -136 l 321 -136 l 418 -71 l 463 -71 l 463 -25 "},"‣":{"ha":694,"x_min":129,"x_max":569,"o":"m 569 1111 l 129 1111 l 129 -278 l 569 -278 l 569 1111 m 463 1018 l 463 972 l 371 972 l 371 921 l 463 921 l 463 875 l 232 875 l 232 921 l 324 921 l 324 972 l 233 972 l 233 1018 l 463 1018 m 371 839 l 371 742 l 463 742 l 463 694 l 232 694 l 232 839 l 371 839 m 324 792 l 278 792 l 278 742 l 324 742 l 324 792 m 463 657 l 463 611 l 371 611 l 371 514 l 232 514 l 232 560 l 324 560 l 324 611 l 232 611 l 232 657 l 463 657 m 463 574 l 463 435 l 232 435 l 232 482 l 417 482 l 417 574 l 463 574 m 463 404 l 463 247 l 232 247 l 232 404 l 278 404 l 278 293 l 417 293 l 417 358 l 371 358 l 371 326 l 324 326 l 324 404 l 463 404 m 463 164 l 463 7 l 232 7 l 232 164 l 463 164 m 417 118 l 278 118 l 278 53 l 417 53 l 417 118 m 463 -25 l 463 -71 l 418 -71 l 321 -136 l 463 -136 l 463 -182 l 232 -182 l 232 -136 l 329 -71 l 232 -71 l 232 -25 l 463 -25 "},"․":{"ha":694,"x_min":129,"x_max":569,"o":"m 569 1111 l 569 -278 l 129 -278 l 129 1111 l 569 1111 m 463 1018 l 233 1018 l 233 972 l 324 972 l 324 921 l 232 921 l 232 875 l 463 875 l 463 921 l 371 921 l 371 972 l 463 972 l 463 1018 m 371 839 l 232 839 l 232 694 l 463 694 l 463 742 l 371 742 l 371 839 m 324 792 l 324 742 l 278 742 l 278 792 l 324 792 m 463 657 l 232 657 l 232 611 l 324 611 l 324 560 l 232 560 l 232 514 l 371 514 l 371 611 l 463 611 l 463 657 m 463 574 l 417 574 l 417 482 l 232 482 l 232 435 l 463 435 l 463 574 m 463 404 l 324 404 l 324 326 l 371 326 l 371 358 l 417 358 l 417 293 l 278 293 l 278 404 l 232 404 l 232 247 l 463 247 l 463 404 m 463 164 l 232 164 l 232 7 l 463 7 l 463 164 m 417 118 l 417 53 l 278 53 l 278 118 l 417 118 m 463 -25 l 232 -25 l 232 -71 l 329 -71 l 232 -136 l 232 -182 l 463 -182 l 463 -136 l 321 -136 l 418 -71 l 463 -71 l 463 -25 "},"‥":{"ha":694,"x_min":129,"x_max":569,"o":"m 569 1111 l 129 1111 l 129 -278 l 569 -278 l 569 1111 m 463 1018 l 463 972 l 371 972 l 371 921 l 463 921 l 463 875 l 232 875 l 232 921 l 324 921 l 324 972 l 233 972 l 233 1018 l 463 1018 m 371 839 l 371 742 l 463 742 l 463 694 l 232 694 l 232 839 l 371 839 m 324 792 l 278 792 l 278 742 l 324 742 l 324 792 m 463 657 l 463 611 l 371 611 l 371 514 l 232 514 l 232 560 l 324 560 l 324 611 l 232 611 l 232 657 l 463 657 m 463 574 l 463 435 l 232 435 l 232 482 l 417 482 l 417 574 l 463 574 m 463 404 l 463 247 l 232 247 l 232 404 l 278 404 l 278 293 l 417 293 l 417 358 l 371 358 l 371 326 l 324 326 l 324 404 l 463 404 m 463 164 l 463 7 l 232 7 l 232 164 l 463 164 m 417 118 l 278 118 l 278 53 l 417 53 l 417 118 m 463 -25 l 463 -71 l 418 -71 l 321 -136 l 463 -136 l 463 -182 l 232 -182 l 232 -136 l 329 -71 l 232 -71 l 232 -25 l 463 -25 "},"∃":{"ha":694,"x_min":129,"x_max":569,"o":"m 569 1111 l 569 -278 l 129 -278 l 129 1111 l 569 1111 m 463 1018 l 233 1018 l 233 972 l 324 972 l 324 921 l 232 921 l 232 875 l 463 875 l 463 921 l 371 921 l 371 972 l 463 972 l 463 1018 m 371 839 l 232 839 l 232 694 l 463 694 l 463 742 l 371 742 l 371 839 m 324 792 l 324 742 l 278 742 l 278 792 l 324 792 m 463 657 l 232 657 l 232 611 l 324 611 l 324 560 l 232 560 l 232 514 l 371 514 l 371 611 l 463 611 l 463 657 m 463 574 l 417 574 l 417 482 l 232 482 l 232 435 l 463 435 l 463 574 m 463 404 l 324 404 l 324 326 l 371 326 l 371 358 l 417 358 l 417 293 l 278 293 l 278 404 l 232 404 l 232 247 l 463 247 l 463 404 m 463 164 l 232 164 l 232 7 l 463 7 l 463 164 m 417 118 l 417 53 l 278 53 l 278 118 l 417 118 m 463 -25 l 232 -25 l 232 -71 l 329 -71 l 232 -136 l 232 -182 l 463 -182 l 463 -136 l 321 -136 l 418 -71 l 463 -71 l 463 -25 "},"∄":{"ha":694,"x_min":129,"x_max":569,"o":"m 569 1111 l 129 1111 l 129 -278 l 569 -278 l 569 1111 m 463 1018 l 463 972 l 371 972 l 371 921 l 463 921 l 463 875 l 232 875 l 232 921 l 324 921 l 324 972 l 233 972 l 233 1018 l 463 1018 m 371 839 l 371 742 l 463 742 l 463 694 l 232 694 l 232 839 l 371 839 m 324 792 l 278 792 l 278 742 l 324 742 l 324 792 m 463 657 l 463 611 l 371 611 l 371 514 l 232 514 l 232 560 l 324 560 l 324 611 l 232 611 l 232 657 l 463 657 m 463 574 l 463 435 l 232 435 l 232 482 l 417 482 l 417 574 l 463 574 m 463 404 l 463 247 l 232 247 l 232 404 l 278 404 l 278 293 l 417 293 l 417 358 l 371 358 l 371 326 l 324 326 l 324 404 l 463 404 m 463 164 l 463 7 l 232 7 l 232 164 l 463 164 m 417 118 l 278 118 l 278 53 l 417 53 l 417 118 m 463 -25 l 463 -71 l 418 -71 l 321 -136 l 463 -136 l 463 -182 l 232 -182 l 232 -136 l 329 -71 l 232 -71 l 232 -25 l 463 -25 "},"∐":{"ha":694,"x_min":129,"x_max":569,"o":"m 569 1111 l 569 -278 l 129 -278 l 129 1111 l 569 1111 m 463 1018 l 233 1018 l 233 972 l 324 972 l 324 921 l 232 921 l 232 875 l 463 875 l 463 921 l 371 921 l 371 972 l 463 972 l 463 1018 m 371 839 l 232 839 l 232 694 l 463 694 l 463 742 l 371 742 l 371 839 m 324 792 l 324 742 l 278 742 l 278 792 l 324 792 m 463 657 l 232 657 l 232 611 l 324 611 l 324 560 l 232 560 l 232 514 l 371 514 l 371 611 l 463 611 l 463 657 m 463 574 l 417 574 l 417 482 l 232 482 l 232 435 l 463 435 l 463 574 m 463 404 l 324 404 l 324 326 l 371 326 l 371 358 l 417 358 l 417 293 l 278 293 l 278 404 l 232 404 l 232 247 l 463 247 l 463 404 m 463 164 l 232 164 l 232 7 l 463 7 l 463 164 m 417 118 l 417 53 l 278 53 l 278 118 l 417 118 m 463 -25 l 232 -25 l 232 -71 l 329 -71 l 232 -136 l 232 -182 l 463 -182 l 463 -136 l 321 -136 l 418 -71 l 463 -71 l 463 -25 "},"∛":{"ha":694,"x_min":129,"x_max":569,"o":"m 569 1111 l 129 1111 l 129 -278 l 569 -278 l 569 1111 m 463 1018 l 463 972 l 371 972 l 371 921 l 463 921 l 463 875 l 232 875 l 232 921 l 324 921 l 324 972 l 233 972 l 233 1018 l 463 1018 m 371 839 l 371 742 l 463 742 l 463 694 l 232 694 l 232 839 l 371 839 m 324 792 l 278 792 l 278 742 l 324 742 l 324 792 m 463 657 l 463 611 l 371 611 l 371 514 l 232 514 l 232 560 l 324 560 l 324 611 l 232 611 l 232 657 l 463 657 m 463 574 l 463 435 l 232 435 l 232 482 l 417 482 l 417 574 l 463 574 m 463 404 l 463 247 l 232 247 l 232 404 l 278 404 l 278 293 l 417 293 l 417 358 l 371 358 l 371 326 l 324 326 l 324 404 l 463 404 m 463 164 l 463 7 l 232 7 l 232 164 l 463 164 m 417 118 l 278 118 l 278 53 l 417 53 l 417 118 m 463 -25 l 463 -71 l 418 -71 l 321 -136 l 463 -136 l 463 -182 l 232 -182 l 232 -136 l 329 -71 l 232 -71 l 232 -25 l 463 -25 "},"∜":{"ha":694,"x_min":129,"x_max":569,"o":"m 569 1111 l 569 -278 l 129 -278 l 129 1111 l 569 1111 m 463 1018 l 233 1018 l 233 972 l 324 972 l 324 921 l 232 921 l 232 875 l 463 875 l 463 921 l 371 921 l 371 972 l 463 972 l 463 1018 m 371 839 l 232 839 l 232 694 l 463 694 l 463 742 l 371 742 l 371 839 m 324 792 l 324 742 l 278 742 l 278 792 l 324 792 m 463 657 l 232 657 l 232 611 l 324 611 l 324 560 l 232 560 l 232 514 l 371 514 l 371 611 l 463 611 l 463 657 m 463 574 l 417 574 l 417 482 l 232 482 l 232 435 l 463 435 l 463 574 m 463 404 l 324 404 l 324 326 l 371 326 l 371 358 l 417 358 l 417 293 l 278 293 l 278 404 l 232 404 l 232 247 l 463 247 l 463 404 m 463 164 l 232 164 l 232 7 l 463 7 l 463 164 m 417 118 l 417 53 l 278 53 l 278 118 l 417 118 m 463 -25 l 232 -25 l 232 -71 l 329 -71 l 232 -136 l 232 -182 l 463 -182 l 463 -136 l 321 -136 l 418 -71 l 463 -71 l 463 -25 "},"∝":{"ha":694,"x_min":129,"x_max":569,"o":"m 569 1111 l 129 1111 l 129 -278 l 569 -278 l 569 1111 m 463 1018 l 463 972 l 371 972 l 371 921 l 463 921 l 463 875 l 232 875 l 232 921 l 324 921 l 324 972 l 233 972 l 233 1018 l 463 1018 m 371 839 l 371 742 l 463 742 l 463 694 l 232 694 l 232 839 l 371 839 m 324 792 l 278 792 l 278 742 l 324 742 l 324 792 m 463 657 l 463 611 l 371 611 l 371 514 l 232 514 l 232 560 l 324 560 l 324 611 l 232 611 l 232 657 l 463 657 m 463 574 l 463 435 l 232 435 l 232 482 l 417 482 l 417 574 l 463 574 m 463 404 l 463 247 l 232 247 l 232 404 l 278 404 l 278 293 l 417 293 l 417 358 l 371 358 l 371 326 l 324 326 l 324 404 l 463 404 m 463 164 l 463 7 l 232 7 l 232 164 l 463 164 m 417 118 l 278 118 l 278 53 l 417 53 l 417 118 m 463 -25 l 463 -71 l 418 -71 l 321 -136 l 463 -136 l 463 -182 l 232 -182 l 232 -136 l 329 -71 l 232 -71 l 232 -25 l 463 -25 "},"≡":{"ha":694,"x_min":129,"x_max":569,"o":"m 569 1111 l 569 -278 l 129 -278 l 129 1111 l 569 1111 m 463 1018 l 233 1018 l 233 972 l 324 972 l 324 921 l 232 921 l 232 875 l 463 875 l 463 921 l 371 921 l 371 972 l 463 972 l 463 1018 m 371 839 l 232 839 l 232 694 l 463 694 l 463 742 l 371 742 l 371 839 m 324 792 l 324 742 l 278 742 l 278 792 l 324 792 m 463 657 l 232 657 l 232 611 l 324 611 l 324 560 l 232 560 l 232 514 l 371 514 l 371 611 l 463 611 l 463 657 m 463 574 l 417 574 l 417 482 l 232 482 l 232 435 l 463 435 l 463 574 m 463 404 l 324 404 l 324 326 l 371 326 l 371 358 l 417 358 l 417 293 l 278 293 l 278 404 l 232 404 l 232 247 l 463 247 l 463 404 m 463 164 l 232 164 l 232 7 l 463 7 l 463 164 m 417 118 l 417 53 l 278 53 l 278 118 l 417 118 m 463 -25 l 232 -25 l 232 -71 l 329 -71 l 232 -136 l 232 -182 l 463 -182 l 463 -136 l 321 -136 l 418 -71 l 463 -71 l 463 -25 "},"≢":{"ha":694,"x_min":129,"x_max":569,"o":"m 569 1111 l 129 1111 l 129 -278 l 569 -278 l 569 1111 m 463 1018 l 463 972 l 371 972 l 371 921 l 463 921 l 463 875 l 232 875 l 232 921 l 324 921 l 324 972 l 233 972 l 233 1018 l 463 1018 m 371 839 l 371 742 l 463 742 l 463 694 l 232 694 l 232 839 l 371 839 m 324 792 l 278 792 l 278 742 l 324 742 l 324 792 m 463 657 l 463 611 l 371 611 l 371 514 l 232 514 l 232 560 l 324 560 l 324 611 l 232 611 l 232 657 l 463 657 m 463 574 l 463 435 l 232 435 l 232 482 l 417 482 l 417 574 l 463 574 m 463 404 l 463 247 l 232 247 l 232 404 l 278 404 l 278 293 l 417 293 l 417 358 l 371 358 l 371 326 l 324 326 l 324 404 l 463 404 m 463 164 l 463 7 l 232 7 l 232 164 l 463 164 m 417 118 l 278 118 l 278 53 l 417 53 l 417 118 m 463 -25 l 463 -71 l 418 -71 l 321 -136 l 463 -136 l 463 -182 l 232 -182 l 232 -136 l 329 -71 l 232 -71 l 232 -25 l 463 -25 "},"≣":{"ha":694,"x_min":129,"x_max":569,"o":"m 569 1111 l 569 -278 l 129 -278 l 129 1111 l 569 1111 m 463 1018 l 233 1018 l 233 972 l 324 972 l 324 921 l 232 921 l 232 875 l 463 875 l 463 921 l 371 921 l 371 972 l 463 972 l 463 1018 m 371 839 l 232 839 l 232 694 l 463 694 l 463 742 l 371 742 l 371 839 m 324 792 l 324 742 l 278 742 l 278 792 l 324 792 m 463 657 l 232 657 l 232 611 l 324 611 l 324 560 l 232 560 l 232 514 l 371 514 l 371 611 l 463 611 l 463 657 m 463 574 l 417 574 l 417 482 l 232 482 l 232 435 l 463 435 l 463 574 m 463 404 l 324 404 l 324 326 l 371 326 l 371 358 l 417 358 l 417 293 l 278 293 l 278 404 l 232 404 l 232 247 l 463 247 l 463 404 m 463 164 l 232 164 l 232 7 l 463 7 l 463 164 m 417 118 l 417 53 l 278 53 l 278 118 l 417 118 m 463 -25 l 232 -25 l 232 -71 l 329 -71 l 232 -136 l 232 -182 l 463 -182 l 463 -136 l 321 -136 l 418 -71 l 463 -71 l 463 -25 "}," ":{"ha":256,"x_min":0,"x_max":0,"o":""},"!":{"ha":304,"x_min":14,"x_max":292,"o":"m 14 875 l 14 611 l 29 314 q 43 301 29 301 l 260 301 q 275 314 275 301 l 292 611 l 292 875 q 278 889 292 889 l 26 889 q 14 875 14 889 m 14 264 l 14 14 q 26 0 14 0 l 278 0 q 292 14 292 0 l 292 264 q 278 278 292 278 l 26 278 q 14 264 14 278 "},"\"":{"ha":533,"x_min":11,"x_max":522,"o":"m 51 538 l 215 538 q 231 550 228 538 l 256 726 l 256 875 q 242 889 256 889 l 25 889 q 11 875 11 889 l 11 726 l 36 550 q 51 538 39 538 m 318 538 l 482 538 q 497 550 494 538 l 522 726 l 522 875 q 508 889 522 889 l 292 889 q 278 875 278 889 l 278 726 l 303 550 q 318 538 306 538 "},"#":{"ha":618,"x_min":11,"x_max":607,"o":"m 593 475 q 607 489 607 475 l 607 651 q 593 664 607 664 l 564 664 l 564 875 q 551 889 564 889 l 332 889 q 319 875 319 889 l 319 664 l 299 664 l 299 875 q 286 889 299 889 l 67 889 q 53 875 53 889 l 53 664 l 25 664 q 11 651 11 664 l 11 489 q 25 475 11 475 l 53 475 l 53 454 l 25 454 q 11 442 11 454 l 11 279 q 25 265 11 265 l 53 265 l 53 14 q 67 0 53 0 l 286 0 q 299 14 299 0 l 299 265 l 319 265 l 319 14 q 332 0 319 0 l 551 0 q 564 14 564 0 l 564 265 l 593 265 q 607 279 607 265 l 607 442 q 593 454 607 454 l 564 454 l 564 475 l 593 475 m 319 454 l 299 454 l 299 475 l 319 475 l 319 454 "},"$":{"ha":878,"x_min":11,"x_max":867,"o":"m 463 558 l 853 558 q 867 572 867 558 l 867 694 q 817 839 867 789 q 672 889 767 889 l 564 889 l 564 931 q 550 944 564 944 l 332 944 q 319 931 319 944 l 319 889 l 206 889 q 61 839 111 889 q 11 694 11 789 l 11 542 q 61 397 11 447 q 206 347 111 347 l 449 347 l 449 244 l 429 244 l 429 314 q 415 326 429 326 l 25 326 q 11 311 11 326 l 11 194 q 61 50 11 100 q 206 0 111 0 l 319 0 l 319 -42 q 332 -56 319 -56 l 550 -56 q 564 -42 564 -56 l 564 0 l 669 0 q 811 56 756 0 q 867 197 867 111 l 867 343 q 817 488 867 438 q 672 538 767 538 l 429 538 l 429 644 l 449 644 l 449 571 q 463 558 449 558 "},"%":{"ha":1194,"x_min":11,"x_max":1183,"o":"m 150 418 l 381 418 q 519 557 519 418 l 519 750 q 381 889 519 889 l 150 889 q 11 750 11 889 l 11 557 q 150 418 11 418 m 793 881 l 218 17 q 216 6 214 11 q 225 0 218 0 l 385 0 q 400 8 396 0 l 975 872 q 977 883 979 878 q 968 889 975 889 l 808 889 q 793 881 800 889 m 256 607 l 256 700 l 275 700 l 275 607 l 256 607 m 814 0 l 1044 0 q 1183 139 1183 0 l 1183 332 q 1044 471 1183 471 l 814 471 q 675 332 675 471 l 675 139 q 814 0 675 0 m 919 189 l 919 282 l 939 282 l 939 189 l 919 189 "},"&":{"ha":792,"x_min":11,"x_max":781,"o":"m 768 533 l 749 533 l 749 567 q 736 581 749 581 l 408 581 q 396 567 396 581 l 396 533 l 375 533 l 375 644 l 396 644 l 396 614 q 408 600 396 600 l 736 600 q 749 614 749 600 l 749 694 q 699 839 749 789 q 554 889 649 889 l 206 889 q 61 839 111 889 q 11 694 11 789 l 11 601 q 101 451 11 503 q 11 288 11 397 l 11 194 q 61 50 11 100 q 206 0 111 0 l 554 0 q 699 50 649 0 q 749 194 749 100 l 749 344 l 768 344 q 781 358 781 344 l 781 519 q 768 533 781 533 m 396 244 l 375 244 l 375 344 l 396 344 l 396 244 "},"'":{"ha":267,"x_min":11,"x_max":256,"o":"m 51 504 l 215 504 q 231 517 228 504 l 256 726 l 256 875 q 242 889 256 889 l 25 889 q 11 875 11 889 l 11 726 l 36 517 q 51 504 39 504 "},"(":{"ha":344,"x_min":14,"x_max":333,"o":"m 174 -97 l 319 -97 q 333 -83 333 -97 l 333 78 q 319 92 333 92 l 258 92 l 258 797 l 319 797 q 333 811 333 797 l 333 972 q 319 986 333 986 l 208 986 q 64 936 114 986 q 14 792 14 886 l 14 97 q 56 -47 14 3 q 174 -97 97 -97 "},")":{"ha":344,"x_min":11,"x_max":331,"o":"m 171 -97 q 289 -47 247 -97 q 331 97 331 3 l 331 792 q 281 936 331 886 q 136 986 231 986 l 25 986 q 11 972 11 986 l 11 811 q 25 797 11 797 l 86 797 l 86 92 l 25 92 q 11 78 11 92 l 11 -83 q 25 -97 11 -97 l 171 -97 "},"*":{"ha":442,"x_min":6,"x_max":435,"o":"m 14 651 l 83 529 q 101 525 90 517 l 125 539 l 129 590 l 138 590 l 138 503 q 151 490 138 490 l 292 490 q 304 503 304 490 l 304 531 l 269 553 l 269 565 l 342 525 q 358 529 350 517 l 429 651 q 425 669 435 660 l 400 683 l 357 658 l 357 671 l 425 710 q 429 728 435 718 l 358 850 q 342 854 351 861 l 317 840 l 315 794 l 304 794 l 304 875 q 292 889 304 889 l 151 889 q 138 875 138 889 l 138 847 l 175 825 l 175 811 l 101 854 q 83 850 90 861 l 14 728 q 19 710 6 718 l 42 697 l 88 721 l 88 708 l 18 669 q 14 651 7 660 "},"+":{"ha":608,"x_min":11,"x_max":597,"o":"m 583 522 l 399 522 l 399 708 q 386 721 399 721 l 224 721 q 210 708 210 721 l 210 522 l 25 522 q 11 508 11 522 l 11 347 q 25 333 11 333 l 210 333 l 210 149 q 224 136 210 136 l 386 136 q 399 149 399 136 l 399 333 l 583 333 q 597 347 597 333 l 597 508 q 583 522 597 522 "},",":{"ha":299,"x_min":11,"x_max":289,"o":"m 11 14 q 25 0 11 0 l 86 0 l 128 69 l 143 69 l 54 -107 q 64 -122 47 -122 l 208 -122 q 225 -114 221 -122 l 289 -7 l 289 264 q 275 278 289 278 l 25 278 q 11 264 11 278 l 11 14 "},"-":{"ha":386,"x_min":11,"x_max":375,"o":"m 11 508 l 11 347 q 25 333 11 333 l 363 333 q 375 347 375 333 l 375 508 q 363 522 375 522 l 25 522 q 11 508 11 522 "},".":{"ha":300,"x_min":11,"x_max":289,"o":"m 11 264 l 11 14 q 25 0 11 0 l 275 0 q 289 14 289 0 l 289 264 q 275 278 289 278 l 25 278 q 11 264 11 278 "},"/":{"ha":440,"x_min":10,"x_max":431,"o":"m 185 988 l 11 -97 q 24 -111 10 -111 l 242 -111 q 256 -99 254 -111 l 429 986 q 417 1000 431 1000 l 199 1000 q 185 988 186 1000 "},":":{"ha":300,"x_min":11,"x_max":289,"o":"m 11 789 l 11 539 q 25 525 11 525 l 275 525 q 289 539 289 525 l 289 789 q 275 803 289 803 l 25 803 q 11 789 11 803 m 11 349 l 11 99 q 25 85 11 85 l 275 85 q 289 99 289 85 l 289 349 q 275 363 289 363 l 25 363 q 11 349 11 363 "},";":{"ha":300,"x_min":11,"x_max":289,"o":"m 11 789 l 11 539 q 25 525 11 525 l 275 525 q 289 539 289 525 l 289 789 q 275 803 289 803 l 25 803 q 11 789 11 803 m 11 99 q 25 85 11 85 l 86 85 l 128 154 l 143 154 l 54 -22 q 64 -37 47 -37 l 208 -37 q 225 -29 221 -37 l 289 78 l 289 349 q 275 363 289 363 l 25 363 q 11 349 11 363 l 11 99 "},"<":{"ha":563,"x_min":11,"x_max":551,"o":"m 536 649 l 22 479 q 11 465 11 475 l 11 321 q 22 306 11 310 l 536 136 q 547 137 542 133 q 551 147 551 140 l 551 308 q 540 324 551 319 l 322 385 l 232 365 l 232 382 l 540 461 q 551 476 551 465 l 551 638 q 536 649 551 656 "},"=":{"ha":608,"x_min":11,"x_max":597,"o":"m 11 610 l 11 447 q 25 435 11 435 l 583 435 q 597 447 597 435 l 597 610 q 583 624 597 624 l 25 624 q 11 610 11 624 m 11 401 l 11 239 q 25 225 11 225 l 583 225 q 597 239 597 225 l 597 401 q 583 414 597 414 l 25 414 q 11 401 11 414 "},">":{"ha":563,"x_min":11,"x_max":551,"o":"m 26 136 l 540 306 q 551 319 551 310 l 551 464 q 540 479 551 475 l 26 649 q 11 638 11 656 l 11 476 q 22 461 11 465 l 240 400 l 331 419 l 331 403 l 22 324 q 11 308 11 319 l 11 147 q 16 137 11 140 q 26 136 21 133 "},"?":{"ha":768,"x_min":11,"x_max":757,"o":"m 224 297 l 446 297 q 463 303 454 297 l 757 519 l 757 694 q 706 839 757 789 q 563 889 656 889 l 206 889 q 61 839 111 889 q 11 694 11 789 l 11 569 q 25 556 11 556 l 246 556 l 374 644 l 397 644 l 210 506 l 210 311 q 224 297 210 297 m 196 264 l 196 14 q 208 0 196 0 l 460 0 q 474 14 474 0 l 474 264 q 460 278 474 278 l 208 278 q 196 264 196 278 "},"@":{"ha":1064,"x_min":11,"x_max":1053,"o":"m 161 0 l 1039 0 q 1053 14 1053 0 l 1053 175 q 1039 189 1053 189 l 256 189 l 256 700 l 806 700 l 806 397 l 785 397 l 785 667 q 771 681 785 681 l 414 681 q 311 644 347 681 q 275 542 275 608 l 275 347 q 311 244 275 281 q 414 208 347 208 l 900 208 q 1011 247 972 208 q 1050 358 1050 286 l 1050 739 q 1011 850 1050 811 q 900 889 972 889 l 161 889 q 50 850 89 889 q 11 739 11 811 l 11 150 q 50 39 11 78 q 161 0 89 0 m 519 397 l 519 492 l 540 492 l 540 397 l 519 397 "},"A":{"ha":878,"x_min":11,"x_max":867,"o":"m 714 889 l 164 889 q 149 878 153 889 l 11 333 l 11 14 q 25 0 11 0 l 415 0 q 429 14 429 0 l 429 189 l 449 189 l 449 14 q 463 0 449 0 l 853 0 q 867 14 867 0 l 867 333 l 731 878 q 714 889 726 889 m 431 644 l 447 644 l 450 389 l 428 389 l 431 644 "},"a":{"ha":878,"x_min":11,"x_max":867,"o":"m 714 889 q 731 878 726 889 l 867 333 l 867 14 q 853 0 867 0 l 463 0 q 449 14 449 0 l 449 189 l 429 189 l 429 14 q 415 0 429 0 l 25 0 q 11 14 11 0 l 11 333 l 149 878 q 164 889 153 889 l 714 889 m 431 644 l 428 389 l 450 389 l 447 644 l 431 644 "},"B":{"ha":878,"x_min":11,"x_max":867,"o":"m 867 601 l 867 694 q 817 839 867 789 q 672 889 767 889 l 25 889 q 11 875 11 889 l 11 14 q 25 0 11 0 l 672 0 q 817 50 767 0 q 867 194 867 100 l 867 288 q 776 451 867 396 q 867 601 867 503 m 449 544 l 429 544 l 429 644 l 449 644 l 449 544 m 449 244 l 429 244 l 429 344 l 449 344 l 449 244 "},"b":{"ha":878,"x_min":11,"x_max":867,"o":"m 867 601 q 776 451 867 503 q 867 288 867 396 l 867 194 q 817 50 867 100 q 672 0 767 0 l 25 0 q 11 14 11 0 l 11 875 q 25 889 11 889 l 672 889 q 817 839 767 889 q 867 694 867 789 l 867 601 m 449 544 l 449 644 l 429 644 l 429 544 l 449 544 m 449 244 l 449 344 l 429 344 l 429 244 l 449 244 "},"C":{"ha":878,"x_min":11,"x_max":867,"o":"m 853 446 l 463 446 q 449 432 449 446 l 449 244 l 429 244 l 429 644 l 449 644 l 449 479 q 463 465 449 465 l 853 465 q 867 479 867 465 l 867 694 q 817 839 867 789 q 672 889 767 889 l 206 889 q 61 839 111 889 q 11 694 11 789 l 11 194 q 61 50 11 100 q 206 0 111 0 l 672 0 q 817 50 767 0 q 867 194 867 100 l 867 432 q 853 446 867 446 "},"c":{"ha":878,"x_min":11,"x_max":867,"o":"m 853 446 q 867 432 867 446 l 867 194 q 817 50 867 100 q 672 0 767 0 l 206 0 q 61 50 111 0 q 11 194 11 100 l 11 694 q 61 839 11 789 q 206 889 111 889 l 672 889 q 817 839 767 889 q 867 694 867 789 l 867 479 q 853 465 867 465 l 463 465 q 449 479 449 465 l 449 644 l 429 644 l 429 244 l 449 244 l 449 432 q 463 446 449 446 l 853 446 "},"D":{"ha":878,"x_min":11,"x_max":867,"o":"m 11 875 l 11 14 q 25 0 11 0 l 672 0 q 817 50 767 0 q 867 194 867 100 l 867 694 q 817 839 867 789 q 672 889 767 889 l 25 889 q 11 875 11 889 m 429 647 l 449 647 l 449 242 l 429 242 l 429 647 "},"d":{"ha":878,"x_min":11,"x_max":867,"o":"m 11 875 q 25 889 11 889 l 672 889 q 817 839 767 889 q 867 694 867 789 l 867 194 q 817 50 867 100 q 672 0 767 0 l 25 0 q 11 14 11 0 l 11 875 m 429 647 l 429 242 l 449 242 l 449 647 l 429 647 "},"E":{"ha":768,"x_min":11,"x_max":757,"o":"m 25 0 l 743 0 q 757 14 757 0 l 757 313 q 743 325 757 325 l 428 325 l 428 346 l 743 346 q 757 358 757 346 l 757 517 q 743 531 757 531 l 428 531 l 428 550 l 743 550 q 757 564 757 550 l 757 875 q 743 889 757 889 l 25 889 q 11 875 11 889 l 11 14 q 25 0 11 0 "},"e":{"ha":768,"x_min":11,"x_max":757,"o":"m 25 0 q 11 14 11 0 l 11 875 q 25 889 11 889 l 743 889 q 757 875 757 889 l 757 564 q 743 550 757 550 l 428 550 l 428 531 l 743 531 q 757 517 757 531 l 757 358 q 743 346 757 346 l 428 346 l 428 325 l 743 325 q 757 313 757 325 l 757 14 q 743 0 757 0 l 25 0 "},"F":{"ha":713,"x_min":11,"x_max":701,"o":"m 25 0 l 414 0 q 428 14 428 0 l 428 307 l 688 307 q 701 319 701 307 l 701 514 q 688 528 701 528 l 428 528 l 428 547 l 688 547 q 701 561 701 547 l 701 875 q 688 889 701 889 l 25 889 q 11 875 11 889 l 11 14 q 25 0 11 0 "},"f":{"ha":713,"x_min":11,"x_max":701,"o":"m 25 0 q 11 14 11 0 l 11 875 q 25 889 11 889 l 688 889 q 701 875 701 889 l 701 561 q 688 547 701 547 l 428 547 l 428 528 l 688 528 q 701 514 701 528 l 701 319 q 688 307 701 307 l 428 307 l 428 14 q 414 0 428 0 l 25 0 "},"G":{"ha":878,"x_min":11,"x_max":867,"o":"m 853 467 l 463 467 q 449 453 449 467 l 449 278 q 461 264 449 264 l 529 264 l 529 244 l 429 244 l 429 644 l 449 644 l 449 500 q 463 486 449 486 l 853 486 q 867 500 867 486 l 867 694 q 817 839 867 789 q 672 889 767 889 l 206 889 q 61 839 111 889 q 11 694 11 789 l 11 194 q 61 50 11 100 q 206 0 111 0 l 672 0 q 817 50 767 0 q 867 194 867 100 l 867 453 q 853 467 867 467 "},"g":{"ha":878,"x_min":11,"x_max":867,"o":"m 853 467 q 867 453 867 467 l 867 194 q 817 50 867 100 q 672 0 767 0 l 206 0 q 61 50 111 0 q 11 194 11 100 l 11 694 q 61 839 11 789 q 206 889 111 889 l 672 889 q 817 839 767 889 q 867 694 867 789 l 867 500 q 853 486 867 486 l 463 486 q 449 500 449 486 l 449 644 l 429 644 l 429 244 l 529 244 l 529 264 l 461 264 q 449 278 449 264 l 449 453 q 463 467 449 467 l 853 467 "},"H":{"ha":878,"x_min":11,"x_max":867,"o":"m 25 0 l 415 0 q 429 14 429 0 l 429 315 l 449 315 l 449 14 q 463 0 449 0 l 853 0 q 867 14 867 0 l 867 875 q 853 889 867 889 l 463 889 q 449 875 449 889 l 449 560 l 429 560 l 429 875 q 415 889 429 889 l 25 889 q 11 875 11 889 l 11 14 q 25 0 11 0 "},"h":{"ha":878,"x_min":11,"x_max":867,"o":"m 25 0 q 11 14 11 0 l 11 875 q 25 889 11 889 l 415 889 q 429 875 429 889 l 429 560 l 449 560 l 449 875 q 463 889 449 889 l 853 889 q 867 875 867 889 l 867 14 q 853 0 867 0 l 463 0 q 449 14 449 0 l 449 315 l 429 315 l 429 14 q 415 0 429 0 l 25 0 "},"I":{"ha":439,"x_min":11,"x_max":428,"o":"m 11 875 l 11 14 q 25 0 11 0 l 414 0 q 428 14 428 0 l 428 875 q 414 889 428 889 l 25 889 q 11 875 11 889 "},"i":{"ha":439,"x_min":11,"x_max":428,"o":"m 11 875 q 25 889 11 889 l 414 889 q 428 875 428 889 l 428 14 q 414 0 428 0 l 25 0 q 11 14 11 0 l 11 875 "},"J":{"ha":572,"x_min":11,"x_max":561,"o":"m 25 0 l 364 0 q 506 56 450 0 q 561 197 561 111 l 561 875 q 547 889 561 889 l 158 889 q 144 875 144 889 l 144 358 l 25 358 q 11 346 11 358 l 11 14 q 25 0 11 0 "},"j":{"ha":572,"x_min":11,"x_max":561,"o":"m 25 0 q 11 14 11 0 l 11 346 q 25 358 11 358 l 144 358 l 144 875 q 158 889 144 889 l 547 889 q 561 875 561 889 l 561 197 q 506 56 561 111 q 364 0 450 0 l 25 0 "},"K":{"ha":874,"x_min":11,"x_max":863,"o":"m 863 875 q 849 889 863 889 l 460 889 q 447 875 447 889 l 447 582 l 426 560 l 426 875 q 414 889 426 889 l 25 889 q 11 875 11 889 l 11 14 q 25 0 11 0 l 414 0 q 426 14 426 0 l 426 315 l 447 293 l 447 14 q 460 0 447 0 l 849 0 q 863 14 863 0 l 863 344 l 765 440 l 863 525 l 863 875 "},"k":{"ha":874,"x_min":11,"x_max":863,"o":"m 863 875 l 863 525 l 765 440 l 863 344 l 863 14 q 849 0 863 0 l 460 0 q 447 14 447 0 l 447 293 l 426 315 l 426 14 q 414 0 426 0 l 25 0 q 11 14 11 0 l 11 875 q 25 889 11 889 l 414 889 q 426 875 426 889 l 426 560 l 447 582 l 447 875 q 460 889 447 889 l 849 889 q 863 875 863 889 "},"L":{"ha":572,"x_min":11,"x_max":561,"o":"m 561 14 l 561 325 q 547 339 561 339 l 428 339 l 428 875 q 414 889 428 889 l 25 889 q 11 875 11 889 l 11 14 q 25 0 11 0 l 547 0 q 561 14 561 0 "},"l":{"ha":572,"x_min":11,"x_max":561,"o":"m 561 14 q 547 0 561 0 l 25 0 q 11 14 11 0 l 11 875 q 25 889 11 889 l 414 889 q 428 875 428 889 l 428 339 l 547 339 q 561 325 561 339 l 561 14 "},"M":{"ha":1103,"x_min":11,"x_max":1092,"o":"m 11 433 l 11 14 q 25 0 11 0 l 414 0 q 428 14 428 0 l 428 140 l 431 386 l 447 386 l 450 15 q 464 3 450 3 l 639 3 q 653 15 653 3 l 656 386 l 671 386 l 675 140 l 675 14 q 688 0 675 0 l 1078 0 q 1092 14 1092 0 l 1092 433 l 964 878 q 949 889 961 889 l 614 889 q 599 878 603 889 l 551 726 l 503 878 q 489 889 500 889 l 153 889 q 138 878 142 889 l 11 433 "},"m":{"ha":1103,"x_min":11,"x_max":1092,"o":"m 11 433 l 138 878 q 153 889 142 889 l 489 889 q 503 878 500 889 l 551 726 l 599 878 q 614 889 603 889 l 949 889 q 964 878 961 889 l 1092 433 l 1092 14 q 1078 0 1092 0 l 688 0 q 675 14 675 0 l 675 140 l 671 386 l 656 386 l 653 15 q 639 3 653 3 l 464 3 q 450 15 450 3 l 447 386 l 431 386 l 428 140 l 428 14 q 414 0 428 0 l 25 0 q 11 14 11 0 l 11 433 "},"N":{"ha":875,"x_min":11,"x_max":864,"o":"m 25 0 l 386 0 q 400 14 400 0 l 400 139 l 313 319 l 328 319 l 494 10 q 510 0 500 0 l 850 0 q 864 14 864 0 l 864 875 q 850 889 864 889 l 486 889 q 474 875 474 889 l 474 750 l 558 578 l 542 578 l 379 879 q 364 889 374 889 l 25 889 q 11 875 11 889 l 11 14 q 25 0 11 0 "},"n":{"ha":875,"x_min":11,"x_max":864,"o":"m 25 0 q 11 14 11 0 l 11 875 q 25 889 11 889 l 364 889 q 379 879 374 889 l 542 578 l 558 578 l 474 750 l 474 875 q 486 889 474 889 l 850 889 q 864 875 864 889 l 864 14 q 850 0 864 0 l 510 0 q 494 10 500 0 l 328 319 l 313 319 l 400 139 l 400 14 q 386 0 400 0 l 25 0 "},"O":{"ha":878,"x_min":11,"x_max":867,"o":"m 11 194 q 61 50 11 100 q 206 0 111 0 l 672 0 q 817 50 767 0 q 867 194 867 100 l 867 694 q 817 839 867 789 q 672 889 767 889 l 206 889 q 61 839 111 889 q 11 694 11 789 l 11 194 m 429 644 l 449 644 l 449 244 l 429 244 l 429 644 "},"o":{"ha":878,"x_min":11,"x_max":867,"o":"m 11 194 l 11 694 q 61 839 11 789 q 206 889 111 889 l 672 889 q 817 839 767 889 q 867 694 867 789 l 867 194 q 817 50 867 100 q 672 0 767 0 l 206 0 q 61 50 111 0 q 11 194 11 100 m 429 644 l 429 244 l 449 244 l 449 644 l 429 644 "},"P":{"ha":875,"x_min":11,"x_max":864,"o":"m 25 0 l 414 0 q 428 14 428 0 l 428 189 l 669 189 q 814 239 764 189 q 864 383 864 289 l 864 694 q 814 839 864 789 q 669 889 764 889 l 25 889 q 11 875 11 889 l 11 14 q 25 0 11 0 m 425 433 l 425 644 l 446 644 l 446 433 l 425 433 "},"p":{"ha":875,"x_min":11,"x_max":864,"o":"m 25 0 q 11 14 11 0 l 11 875 q 25 889 11 889 l 669 889 q 814 839 764 889 q 864 694 864 789 l 864 383 q 814 239 864 289 q 669 189 764 189 l 428 189 l 428 14 q 414 0 428 0 l 25 0 m 425 433 l 446 433 l 446 644 l 425 644 l 425 433 "},"Q":{"ha":878,"x_min":11,"x_max":867,"o":"m 11 194 q 61 50 11 100 q 206 0 111 0 l 853 0 q 867 14 867 0 l 867 244 l 722 244 l 722 264 l 739 264 q 833 297 800 264 q 867 392 867 331 l 867 694 q 817 839 867 789 q 672 889 767 889 l 206 889 q 61 839 111 889 q 11 694 11 789 l 11 194 m 429 244 l 429 644 l 449 644 l 449 244 l 429 244 "},"q":{"ha":878,"x_min":11,"x_max":867,"o":"m 11 194 l 11 694 q 61 839 11 789 q 206 889 111 889 l 672 889 q 817 839 767 889 q 867 694 867 789 l 867 392 q 833 297 867 331 q 739 264 800 264 l 722 264 l 722 244 l 867 244 l 867 14 q 853 0 867 0 l 206 0 q 61 50 111 0 q 11 194 11 100 m 429 244 l 449 244 l 449 644 l 429 644 l 429 244 "},"R":{"ha":878,"x_min":11,"x_max":867,"o":"m 867 588 l 867 694 q 817 839 867 789 q 672 889 767 889 l 25 889 q 11 875 11 889 l 11 14 q 25 0 11 0 l 415 0 q 429 14 429 0 l 429 303 l 449 281 l 449 14 q 463 0 449 0 l 853 0 q 867 14 867 0 l 867 342 l 774 432 q 867 588 867 479 m 449 503 l 429 503 l 429 644 l 449 644 l 449 503 "},"r":{"ha":878,"x_min":11,"x_max":867,"o":"m 867 588 q 774 432 867 479 l 867 342 l 867 14 q 853 0 867 0 l 463 0 q 449 14 449 0 l 449 281 l 429 303 l 429 14 q 415 0 429 0 l 25 0 q 11 14 11 0 l 11 875 q 25 889 11 889 l 672 889 q 817 839 767 889 q 867 694 867 789 l 867 588 m 449 503 l 449 644 l 429 644 l 429 503 l 449 503 "},"S":{"ha":878,"x_min":11,"x_max":867,"o":"m 206 0 l 669 0 q 811 56 756 0 q 867 197 867 111 l 867 343 q 817 488 867 438 q 672 538 767 538 l 429 538 l 429 644 l 449 644 l 449 571 q 463 558 449 558 l 853 558 q 867 572 867 558 l 867 694 q 817 839 867 789 q 672 889 767 889 l 206 889 q 61 839 111 889 q 11 694 11 789 l 11 542 q 61 397 11 447 q 206 347 111 347 l 449 347 l 449 244 l 429 244 l 429 314 q 415 326 429 326 l 25 326 q 11 311 11 326 l 11 194 q 61 50 11 100 q 206 0 111 0 "},"s":{"ha":878,"x_min":11,"x_max":867,"o":"m 206 0 q 61 50 111 0 q 11 194 11 100 l 11 311 q 25 326 11 326 l 415 326 q 429 314 429 326 l 429 244 l 449 244 l 449 347 l 206 347 q 61 397 111 347 q 11 542 11 447 l 11 694 q 61 839 11 789 q 206 889 111 889 l 672 889 q 817 839 767 889 q 867 694 867 789 l 867 572 q 853 558 867 558 l 463 558 q 449 571 449 558 l 449 644 l 429 644 l 429 538 l 672 538 q 817 488 767 538 q 867 343 867 438 l 867 197 q 811 56 867 111 q 669 0 756 0 l 206 0 "},"T":{"ha":692,"x_min":11,"x_max":681,"o":"m 667 889 l 25 889 q 11 875 11 889 l 11 564 q 25 550 11 550 l 138 550 l 138 14 q 151 0 138 0 l 542 0 q 554 14 554 0 l 554 550 l 667 550 q 681 564 681 550 l 681 875 q 667 889 681 889 "},"t":{"ha":692,"x_min":11,"x_max":681,"o":"m 667 889 q 681 875 681 889 l 681 564 q 667 550 681 550 l 554 550 l 554 14 q 542 0 554 0 l 151 0 q 138 14 138 0 l 138 550 l 25 550 q 11 564 11 550 l 11 875 q 25 889 11 889 l 667 889 "},"U":{"ha":878,"x_min":11,"x_max":867,"o":"m 853 889 l 463 889 q 449 875 449 889 l 449 244 l 429 244 l 429 875 q 415 889 429 889 l 25 889 q 11 875 11 889 l 11 194 q 61 50 11 100 q 206 0 111 0 l 672 0 q 817 50 767 0 q 867 194 867 100 l 867 875 q 853 889 867 889 "},"u":{"ha":878,"x_min":11,"x_max":867,"o":"m 853 889 q 867 875 867 889 l 867 194 q 817 50 867 100 q 672 0 767 0 l 206 0 q 61 50 111 0 q 11 194 11 100 l 11 875 q 25 889 11 889 l 415 889 q 429 875 429 889 l 429 244 l 449 244 l 449 875 q 463 889 449 889 l 853 889 "},"V":{"ha":878,"x_min":11,"x_max":867,"o":"m 853 889 l 464 889 q 450 875 450 889 l 450 510 l 447 244 l 431 244 l 428 510 l 428 875 q 414 889 428 889 l 25 889 q 11 875 11 889 l 11 556 l 189 11 q 203 0 193 0 l 675 0 q 689 11 685 0 l 867 556 l 867 875 q 853 889 867 889 "},"v":{"ha":878,"x_min":11,"x_max":867,"o":"m 853 889 q 867 875 867 889 l 867 556 l 689 11 q 675 0 685 0 l 203 0 q 189 11 193 0 l 11 556 l 11 875 q 25 889 11 889 l 414 889 q 428 875 428 889 l 428 510 l 431 244 l 447 244 l 450 510 l 450 875 q 464 889 450 889 l 853 889 "},"W":{"ha":1100,"x_min":11,"x_max":1092,"o":"m 11 456 l 138 11 q 153 0 142 0 l 489 0 q 503 11 500 0 l 551 163 l 599 11 q 614 0 603 0 l 949 0 q 964 11 961 0 l 1092 456 l 1092 875 q 1078 889 1092 889 l 688 889 q 675 875 675 889 l 675 538 l 671 379 l 656 379 l 653 864 q 639 876 653 876 l 464 876 q 450 864 450 876 l 447 379 l 431 379 l 428 538 l 428 875 q 414 889 428 889 l 25 889 q 11 875 11 889 l 11 456 "},"w":{"ha":1100,"x_min":11,"x_max":1092,"o":"m 11 456 l 11 875 q 25 889 11 889 l 414 889 q 428 875 428 889 l 428 538 l 431 379 l 447 379 l 450 864 q 464 876 450 876 l 639 876 q 653 864 653 876 l 656 379 l 671 379 l 675 538 l 675 875 q 688 889 675 889 l 1078 889 q 1092 875 1092 889 l 1092 456 l 964 11 q 949 0 961 0 l 614 0 q 599 11 603 0 l 551 163 l 503 11 q 489 0 500 0 l 153 0 q 138 11 142 0 l 11 456 "},"X":{"ha":878,"x_min":11,"x_max":867,"o":"m 867 875 q 853 889 867 889 l 463 889 q 449 875 449 889 l 449 571 l 439 558 l 429 571 l 429 875 q 415 889 429 889 l 25 889 q 11 875 11 889 l 11 525 l 111 439 l 11 344 l 11 14 q 25 0 11 0 l 415 0 q 429 14 429 0 l 429 300 l 439 314 l 449 300 l 449 14 q 463 0 449 0 l 853 0 q 867 14 867 0 l 867 344 l 767 439 l 867 525 l 867 875 "},"x":{"ha":878,"x_min":11,"x_max":867,"o":"m 867 875 l 867 525 l 767 439 l 867 344 l 867 14 q 853 0 867 0 l 463 0 q 449 14 449 0 l 449 300 l 439 314 l 429 300 l 429 14 q 415 0 429 0 l 25 0 q 11 14 11 0 l 11 344 l 111 439 l 11 525 l 11 875 q 25 889 11 889 l 415 889 q 429 875 429 889 l 429 571 l 439 558 l 449 571 l 449 875 q 463 889 449 889 l 853 889 q 867 875 867 889 "},"Y":{"ha":878,"x_min":11,"x_max":867,"o":"m 244 0 l 635 0 q 647 14 647 0 l 647 189 l 867 454 l 867 875 q 853 889 867 889 l 463 889 q 449 875 449 889 l 449 561 l 439 547 l 429 561 l 429 875 q 415 889 429 889 l 25 889 q 11 875 11 889 l 11 454 l 231 189 l 231 14 q 244 0 231 0 "},"y":{"ha":878,"x_min":11,"x_max":867,"o":"m 244 0 q 231 14 231 0 l 231 189 l 11 454 l 11 875 q 25 889 11 889 l 415 889 q 429 875 429 889 l 429 561 l 439 547 l 449 561 l 449 875 q 463 889 449 889 l 853 889 q 867 875 867 889 l 867 454 l 647 189 l 647 14 q 635 0 647 0 l 244 0 "},"Z":{"ha":807,"x_min":11,"x_max":796,"o":"m 796 14 l 796 324 q 782 339 796 339 l 658 339 l 517 244 l 493 244 l 796 464 l 796 875 q 782 889 796 889 l 25 889 q 11 875 11 889 l 11 564 q 25 550 11 550 l 147 550 l 289 644 l 313 644 l 11 431 l 11 14 q 25 0 11 0 l 782 0 q 796 14 796 0 "},"z":{"ha":807,"x_min":11,"x_max":796,"o":"m 796 14 q 782 0 796 0 l 25 0 q 11 14 11 0 l 11 431 l 313 644 l 289 644 l 147 550 l 25 550 q 11 564 11 550 l 11 875 q 25 889 11 889 l 782 889 q 796 875 796 889 l 796 464 l 493 244 l 517 244 l 658 339 l 782 339 q 796 324 796 339 l 796 14 "},"[":{"ha":344,"x_min":14,"x_max":333,"o":"m 28 -97 l 319 -97 q 333 -83 333 -97 l 333 78 q 319 92 333 92 l 258 92 l 258 797 l 319 797 q 333 811 333 797 l 333 972 q 319 986 333 986 l 28 986 q 14 972 14 986 l 14 -83 q 28 -97 14 -97 "},"\\":{"ha":440,"x_min":10,"x_max":431,"o":"m 256 988 q 242 1000 254 1000 l 24 1000 q 11 986 10 1000 l 185 -99 q 199 -111 186 -111 l 417 -111 q 429 -97 431 -111 l 256 988 "},"]":{"ha":344,"x_min":11,"x_max":331,"o":"m 317 -97 q 331 -83 331 -97 l 331 972 q 317 986 331 986 l 25 986 q 11 972 11 986 l 11 811 q 25 797 11 797 l 86 797 l 86 92 l 25 92 q 11 78 11 92 l 11 -83 q 25 -97 11 -97 l 317 -97 "},"^":{"ha":553,"x_min":6,"x_max":547,"o":"m 540 531 l 364 879 q 349 889 360 889 l 204 889 q 189 879 193 889 l 14 531 q 24 515 6 515 l 182 515 q 199 525 194 515 l 272 661 l 250 719 l 267 719 l 356 525 q 371 515 360 515 l 531 515 q 540 531 547 515 "},"_":{"ha":608,"x_min":11,"x_max":597,"o":"m 11 -17 l 11 -179 q 25 -192 11 -192 l 583 -192 q 597 -179 597 -192 l 597 -17 q 583 -3 597 -3 l 25 -3 q 11 -17 11 -3 "},"`":{"ha":667,"x_min":19,"x_max":332,"o":"m 233 853 l 36 853 q 25 836 19 853 l 125 608 q 142 599 131 599 l 314 599 q 325 614 332 599 l 247 842 q 233 853 244 853 "},"{":{"ha":418,"x_min":14,"x_max":407,"o":"m 333 547 l 333 797 l 394 797 q 407 811 407 797 l 407 972 q 394 986 407 986 l 283 986 q 139 936 189 986 q 89 792 89 886 l 89 542 l 28 542 q 14 528 14 542 l 14 364 q 28 351 14 351 l 89 351 l 89 97 q 139 -47 89 3 q 283 -97 189 -97 l 394 -97 q 407 -83 407 -97 l 407 78 q 394 92 407 92 l 333 92 l 333 346 q 290 447 333 406 q 333 547 333 486 "},"|":{"ha":211,"x_min":11,"x_max":200,"o":"m 11 1099 l 11 -208 q 25 -222 11 -222 l 186 -222 q 200 -208 200 -222 l 200 1099 q 186 1113 200 1113 l 25 1113 q 11 1099 11 1113 "},"}":{"ha":418,"x_min":11,"x_max":404,"o":"m 390 542 l 329 542 l 329 792 q 279 936 329 886 q 135 986 229 986 l 24 986 q 11 972 11 986 l 11 811 q 24 797 11 797 l 85 797 l 85 547 q 128 447 85 486 q 85 346 85 406 l 85 92 l 24 92 q 11 78 11 92 l 11 -83 q 24 -97 11 -97 l 135 -97 q 279 -47 229 -97 q 329 97 329 3 l 329 351 l 390 351 q 404 364 404 351 l 404 528 q 390 542 404 542 "},"~":{"ha":493,"x_min":11,"x_max":482,"o":"m 25 331 l 140 331 q 153 344 153 331 l 153 383 l 110 404 l 110 419 l 314 331 l 388 331 q 482 425 482 331 l 482 556 q 469 569 482 569 l 353 569 q 340 556 340 569 l 340 511 l 383 489 l 383 474 l 181 569 l 106 569 q 11 475 11 569 l 11 344 q 25 331 11 331 "},"¡":{"ha":304,"x_min":14,"x_max":292,"o":"m 14 625 q 26 611 14 611 l 278 611 q 292 625 292 611 l 292 875 q 278 889 292 889 l 26 889 q 14 875 14 889 l 14 625 m 26 0 l 278 0 q 292 14 292 0 l 292 278 l 275 575 q 260 588 275 588 l 43 588 q 29 575 29 588 l 14 278 l 14 14 q 26 0 14 0 "},"¢":{"ha":878,"x_min":11,"x_max":867,"o":"m 463 465 l 853 465 q 867 479 867 465 l 867 694 q 817 839 867 789 q 672 889 767 889 l 564 889 l 564 931 q 550 944 564 944 l 332 944 q 319 931 319 944 l 319 889 l 206 889 q 61 839 111 889 q 11 694 11 789 l 11 194 q 61 50 11 100 q 206 0 111 0 l 319 0 l 319 -42 q 332 -56 319 -56 l 550 -56 q 564 -42 564 -56 l 564 0 l 672 0 q 817 50 767 0 q 867 194 867 100 l 867 432 q 853 446 867 446 l 463 446 q 449 432 449 446 l 449 244 l 429 244 l 429 644 l 449 644 l 449 479 q 463 465 449 465 "},"£":{"ha":918,"x_min":11,"x_max":907,"o":"m 503 558 l 893 558 q 907 571 907 558 l 907 694 q 856 839 907 789 q 713 889 806 889 l 247 889 q 103 839 153 889 q 53 694 53 789 l 53 536 l 25 536 q 11 524 11 536 l 11 363 q 25 349 11 349 l 53 349 l 53 325 l 25 325 q 11 311 11 325 l 11 14 q 25 0 11 0 l 893 0 q 907 14 907 0 l 907 311 q 893 325 907 325 l 469 325 l 469 351 l 693 351 q 707 364 707 351 l 707 525 q 693 538 707 538 l 469 538 l 469 700 l 490 700 l 490 571 q 503 558 490 558 "},"¤":{"ha":653,"x_min":6,"x_max":644,"o":"m 15 251 l 131 136 q 149 136 139 128 l 222 208 l 431 208 l 503 136 q 521 136 511 128 l 636 251 q 636 269 644 261 l 581 325 l 581 547 l 636 603 q 636 619 644 611 l 521 736 q 503 736 511 744 l 447 681 l 204 681 l 149 736 q 131 736 139 744 l 15 619 q 15 603 7 611 l 72 546 l 72 325 l 15 269 q 15 251 6 261 m 317 397 l 317 492 l 336 492 l 336 397 l 317 397 "},"¥":{"ha":882,"x_min":11,"x_max":871,"o":"m 858 324 l 761 324 l 869 454 l 869 875 q 856 889 869 889 l 464 889 q 451 875 451 889 l 451 561 l 442 547 l 431 561 l 431 875 q 418 889 431 889 l 26 889 q 14 875 14 889 l 14 454 l 121 324 l 25 324 q 11 310 11 324 l 11 149 q 25 136 11 136 l 232 136 l 233 14 q 247 0 233 0 l 636 0 q 650 14 650 0 l 650 136 l 858 136 q 871 149 871 136 l 871 310 q 858 324 871 324 "},"¦":{"ha":211,"x_min":11,"x_max":200,"o":"m 11 1099 l 11 471 q 25 458 11 458 l 186 458 q 200 471 200 458 l 200 1099 q 186 1113 200 1113 l 25 1113 q 11 1099 11 1113 m 11 425 l 11 -208 q 25 -222 11 -222 l 186 -222 q 200 -208 200 -222 l 200 425 q 186 438 200 438 l 25 438 q 11 425 11 438 "},"§":{"ha":749,"x_min":11,"x_max":738,"o":"m 738 197 l 738 475 q 699 586 738 547 q 588 625 660 625 l 364 625 l 364 700 l 385 700 l 385 658 q 397 644 385 644 l 725 644 q 738 658 738 644 l 738 694 q 688 839 738 789 q 543 889 638 889 l 206 889 q 61 839 111 889 q 11 694 11 789 l 11 424 q 50 312 11 350 q 161 274 89 274 l 385 274 l 385 200 l 364 200 l 364 240 q 351 253 364 253 l 25 253 q 11 238 11 253 l 11 194 q 61 50 11 100 q 206 0 111 0 l 540 0 q 681 56 625 0 q 738 197 738 111 m 364 414 l 364 492 l 385 492 l 385 414 l 364 414 "},"¨":{"ha":667,"x_min":33,"x_max":453,"o":"m 33 810 l 33 636 q 47 624 33 624 l 219 624 q 233 636 233 624 l 233 810 q 219 824 233 824 l 47 824 q 33 810 33 824 m 253 810 l 253 636 q 267 624 253 624 l 440 624 q 453 636 453 624 l 453 810 q 440 824 453 824 l 267 824 q 253 810 253 824 "},"©":{"ha":972,"x_min":11,"x_max":961,"o":"m 11 150 q 50 39 11 78 q 161 0 89 0 l 811 0 q 922 39 883 0 q 961 150 961 78 l 961 739 q 922 850 961 811 q 811 889 883 889 l 161 889 q 50 850 89 889 q 11 739 11 811 l 11 150 m 211 189 l 211 700 l 761 700 l 761 189 l 211 189 m 726 436 l 508 436 q 496 422 496 436 l 496 386 l 475 386 l 475 503 l 496 503 l 496 469 q 508 456 496 456 l 726 456 q 740 469 740 456 l 740 542 q 705 644 740 608 q 601 681 669 681 l 369 681 q 267 644 303 681 q 231 542 231 608 l 231 347 q 267 244 231 281 q 369 208 303 208 l 601 208 q 705 244 669 208 q 740 347 740 281 l 740 422 q 726 436 740 436 "},"«":{"ha":686,"x_min":11,"x_max":683,"o":"m 11 447 l 179 176 q 194 168 185 168 l 406 168 q 414 183 424 168 l 261 429 l 225 376 l 206 376 l 414 717 q 406 732 425 732 l 194 732 q 179 724 185 732 l 11 447 m 269 447 l 438 176 q 453 168 443 168 l 664 168 q 672 183 682 168 l 519 429 l 483 376 l 464 376 l 672 717 q 664 732 683 732 l 453 732 q 438 724 443 732 l 269 447 "},"¬":{"ha":608,"x_min":11,"x_max":597,"o":"m 11 446 q 25 432 11 432 l 408 432 l 408 247 q 421 235 408 235 l 583 235 q 597 247 597 235 l 597 608 q 583 621 597 621 l 25 621 q 11 608 11 621 l 11 446 "},"®":{"ha":972,"x_min":11,"x_max":961,"o":"m 811 889 l 161 889 q 50 850 89 889 q 11 739 11 811 l 11 150 q 50 39 11 78 q 161 0 89 0 l 811 0 q 922 39 883 0 q 961 150 961 78 l 961 739 q 922 850 961 811 q 811 889 883 889 m 761 189 l 211 189 l 211 700 l 761 700 l 761 189 m 244 208 l 464 208 q 476 222 476 208 l 476 364 l 497 342 l 497 222 q 510 208 497 208 l 726 208 q 740 222 740 208 l 740 367 l 703 404 q 740 485 740 436 l 740 542 q 705 644 740 608 q 601 681 669 681 l 244 681 q 231 667 231 681 l 231 222 q 244 208 231 208 m 476 542 l 497 542 l 497 464 l 476 464 l 476 542 "},"¯":{"ha":667,"x_min":11,"x_max":382,"o":"m 11 797 l 11 651 q 25 638 11 638 l 369 638 q 382 651 382 638 l 382 797 q 369 810 382 810 l 25 810 q 11 797 11 810 "},"°":{"ha":419,"x_min":11,"x_max":408,"o":"m 150 507 l 269 507 q 408 646 408 507 l 408 750 q 269 889 408 889 l 150 889 q 11 750 11 889 l 11 646 q 150 507 11 507 m 200 663 l 200 733 l 219 733 l 219 663 l 200 663 "},"±":{"ha":608,"x_min":11,"x_max":597,"o":"m 583 607 l 399 607 l 399 708 q 386 721 399 721 l 224 721 q 210 708 210 721 l 210 607 l 25 607 q 11 593 11 607 l 11 431 q 25 418 11 418 l 210 418 l 210 315 q 224 303 210 303 l 386 303 q 399 315 399 303 l 399 418 l 583 418 q 597 431 597 418 l 597 593 q 583 607 597 607 m 583 282 l 25 282 q 11 269 11 282 l 11 107 q 25 93 11 93 l 583 93 q 597 107 597 93 l 597 269 q 583 282 597 282 "},"´":{"ha":667,"x_min":13,"x_max":322,"o":"m 94 842 l 17 614 q 28 599 13 599 l 201 599 q 217 608 213 599 l 317 836 q 307 853 322 853 l 108 853 q 94 842 100 853 "},"¶":{"ha":685,"x_min":11,"x_max":674,"o":"m 451 889 l 206 889 q 61 839 111 889 q 11 694 11 789 l 11 526 q 61 383 11 433 q 206 332 111 332 l 275 332 l 275 14 q 289 0 275 0 l 451 0 q 464 14 464 0 l 464 875 q 451 889 464 889 m 660 889 l 497 889 q 485 875 485 889 l 485 14 q 497 0 485 0 l 660 0 q 674 14 674 0 l 674 875 q 660 889 674 889 "},"·":{"ha":300,"x_min":11,"x_max":289,"o":"m 11 563 l 11 313 q 25 299 11 299 l 275 299 q 289 313 289 299 l 289 563 q 275 576 289 576 l 25 576 q 11 563 11 576 "},"¸":{"ha":667,"x_min":11,"x_max":369,"o":"m 25 -285 l 275 -285 q 369 -190 369 -285 l 369 -114 q 275 -19 369 -19 l 196 -19 l 196 47 l 11 47 l 11 -129 q 25 -142 11 -142 l 186 -142 l 186 -162 l 25 -162 q 11 -175 11 -162 l 11 -271 q 25 -285 11 -285 "},"»":{"ha":686,"x_min":3,"x_max":675,"o":"m 417 453 l 249 724 q 233 732 243 732 l 22 732 q 14 717 4 732 l 167 471 l 203 524 l 222 524 l 14 183 q 22 168 3 168 l 233 168 q 249 176 243 168 l 417 453 m 675 453 l 507 724 q 492 732 501 732 l 281 732 q 272 717 263 732 l 425 471 l 461 524 l 481 524 l 272 183 q 281 168 261 168 l 492 168 q 507 176 501 168 l 675 453 "},"¿":{"ha":768,"x_min":11,"x_max":757,"o":"m 572 625 l 572 875 q 560 889 572 889 l 308 889 q 294 875 294 889 l 294 625 q 308 611 294 611 l 560 611 q 572 625 572 611 m 544 592 l 322 592 q 306 586 314 592 l 11 369 l 11 194 q 61 50 11 100 q 206 0 111 0 l 563 0 q 706 50 656 0 q 757 194 757 100 l 757 319 q 743 333 757 333 l 522 333 l 394 244 l 371 244 l 558 383 l 558 578 q 544 592 558 592 "},"À":{"ha":878,"x_min":11,"x_max":867,"o":"m 447 1186 l 250 1186 q 239 1169 232 1186 l 339 942 q 356 932 344 932 l 528 932 q 539 947 546 932 l 461 1175 q 447 1186 458 1186 m 714 889 l 164 889 q 149 878 153 889 l 11 333 l 11 14 q 25 0 11 0 l 415 0 q 429 14 429 0 l 429 189 l 449 189 l 449 14 q 463 0 449 0 l 853 0 q 867 14 867 0 l 867 333 l 731 878 q 714 889 726 889 m 431 644 l 447 644 l 450 389 l 428 389 l 431 644 "},"à":{"ha":878,"x_min":11,"x_max":867,"o":"m 447 1186 q 461 1175 458 1186 l 539 947 q 528 932 546 932 l 356 932 q 339 942 344 932 l 239 1169 q 250 1186 232 1186 l 447 1186 m 714 889 q 731 878 726 889 l 867 333 l 867 14 q 853 0 867 0 l 463 0 q 449 14 449 0 l 449 189 l 429 189 l 429 14 q 415 0 429 0 l 25 0 q 11 14 11 0 l 11 333 l 149 878 q 164 889 153 889 l 714 889 m 431 644 l 428 389 l 450 389 l 447 644 l 431 644 "},"Á":{"ha":878,"x_min":11,"x_max":867,"o":"m 421 1175 l 343 947 q 354 932 339 932 l 528 932 q 543 942 539 932 l 643 1169 q 633 1186 649 1186 l 435 1186 q 421 1175 426 1186 m 714 889 l 164 889 q 149 878 153 889 l 11 333 l 11 14 q 25 0 11 0 l 415 0 q 429 14 429 0 l 429 189 l 449 189 l 449 14 q 463 0 449 0 l 853 0 q 867 14 867 0 l 867 333 l 731 878 q 714 889 726 889 m 431 644 l 447 644 l 450 389 l 428 389 l 431 644 "},"á":{"ha":878,"x_min":11,"x_max":867,"o":"m 421 1175 q 435 1186 426 1186 l 633 1186 q 643 1169 649 1186 l 543 942 q 528 932 539 932 l 354 932 q 343 947 339 932 l 421 1175 m 714 889 q 731 878 726 889 l 867 333 l 867 14 q 853 0 867 0 l 463 0 q 449 14 449 0 l 449 189 l 429 189 l 429 14 q 415 0 429 0 l 25 0 q 11 14 11 0 l 11 333 l 149 878 q 164 889 153 889 l 714 889 m 431 644 l 428 389 l 450 389 l 447 644 l 431 644 "},"Â":{"ha":878,"x_min":11,"x_max":867,"o":"m 224 932 l 390 932 q 406 942 400 932 l 428 983 l 403 1042 l 418 1042 l 471 942 q 488 932 476 932 l 654 932 q 664 947 672 932 l 543 1175 q 526 1186 539 1186 l 346 1186 q 331 1175 335 1186 l 214 947 q 224 932 206 932 m 714 889 l 164 889 q 149 878 153 889 l 11 333 l 11 14 q 25 0 11 0 l 415 0 q 429 14 429 0 l 429 189 l 449 189 l 449 14 q 463 0 449 0 l 853 0 q 867 14 867 0 l 867 333 l 731 878 q 714 889 726 889 m 431 644 l 447 644 l 450 389 l 428 389 l 431 644 "},"â":{"ha":878,"x_min":11,"x_max":867,"o":"m 224 932 q 214 947 206 932 l 331 1175 q 346 1186 335 1186 l 526 1186 q 543 1175 539 1186 l 664 947 q 654 932 672 932 l 488 932 q 471 942 476 932 l 418 1042 l 403 1042 l 428 983 l 406 942 q 390 932 400 932 l 224 932 m 714 889 q 731 878 726 889 l 867 333 l 867 14 q 853 0 867 0 l 463 0 q 449 14 449 0 l 449 189 l 429 189 l 429 14 q 415 0 429 0 l 25 0 q 11 14 11 0 l 11 333 l 149 878 q 164 889 153 889 l 714 889 m 431 644 l 428 389 l 450 389 l 447 644 l 431 644 "},"Ã":{"ha":878,"x_min":11,"x_max":867,"o":"m 244 931 l 360 931 q 372 944 372 931 l 372 981 l 329 1014 l 329 1029 l 478 931 l 551 931 q 646 1025 646 931 l 646 1171 q 633 1185 646 1185 l 517 1185 q 504 1171 504 1185 l 504 1131 l 547 1097 l 547 1082 l 400 1185 l 325 1185 q 231 1090 231 1185 l 231 944 q 244 931 231 931 m 714 889 l 164 889 q 149 878 153 889 l 11 333 l 11 14 q 25 0 11 0 l 415 0 q 429 14 429 0 l 429 189 l 449 189 l 449 14 q 463 0 449 0 l 853 0 q 867 14 867 0 l 867 333 l 731 878 q 714 889 726 889 m 431 644 l 447 644 l 450 389 l 428 389 l 431 644 "},"ã":{"ha":878,"x_min":11,"x_max":867,"o":"m 244 931 q 231 944 231 931 l 231 1090 q 325 1185 231 1185 l 400 1185 l 547 1082 l 547 1097 l 504 1131 l 504 1171 q 517 1185 504 1185 l 633 1185 q 646 1171 646 1185 l 646 1025 q 551 931 646 931 l 478 931 l 329 1029 l 329 1014 l 372 981 l 372 944 q 360 931 372 931 l 244 931 m 714 889 q 731 878 726 889 l 867 333 l 867 14 q 853 0 867 0 l 463 0 q 449 14 449 0 l 449 189 l 429 189 l 429 14 q 415 0 429 0 l 25 0 q 11 14 11 0 l 11 333 l 149 878 q 164 889 153 889 l 714 889 m 431 644 l 428 389 l 450 389 l 447 644 l 431 644 "},"Ä":{"ha":878,"x_min":11,"x_max":867,"o":"m 229 1143 l 229 969 q 243 957 229 957 l 415 957 q 429 969 429 957 l 429 1143 q 415 1157 429 1157 l 243 1157 q 229 1143 229 1157 m 449 1143 l 449 969 q 463 957 449 957 l 636 957 q 649 969 649 957 l 649 1143 q 636 1157 649 1157 l 463 1157 q 449 1143 449 1157 m 714 889 l 164 889 q 149 878 153 889 l 11 333 l 11 14 q 25 0 11 0 l 415 0 q 429 14 429 0 l 429 189 l 449 189 l 449 14 q 463 0 449 0 l 853 0 q 867 14 867 0 l 867 333 l 731 878 q 714 889 726 889 m 431 644 l 447 644 l 450 389 l 428 389 l 431 644 "},"ä":{"ha":878,"x_min":11,"x_max":867,"o":"m 229 1143 q 243 1157 229 1157 l 415 1157 q 429 1143 429 1157 l 429 969 q 415 957 429 957 l 243 957 q 229 969 229 957 l 229 1143 m 449 1143 q 463 1157 449 1157 l 636 1157 q 649 1143 649 1157 l 649 969 q 636 957 649 957 l 463 957 q 449 969 449 957 l 449 1143 m 714 889 q 731 878 726 889 l 867 333 l 867 14 q 853 0 867 0 l 463 0 q 449 14 449 0 l 449 189 l 429 189 l 429 14 q 415 0 429 0 l 25 0 q 11 14 11 0 l 11 333 l 149 878 q 164 889 153 889 l 714 889 m 431 644 l 428 389 l 450 389 l 447 644 l 431 644 "},"Å":{"ha":878,"x_min":11,"x_max":867,"o":"m 246 1090 l 246 1025 q 340 931 246 931 l 538 931 q 632 1025 632 931 l 632 1090 q 538 1185 632 1185 l 340 1185 q 246 1090 246 1185 m 429 1022 l 429 1093 l 449 1093 l 449 1022 l 429 1022 m 714 889 l 164 889 q 149 878 153 889 l 11 333 l 11 14 q 25 0 11 0 l 415 0 q 429 14 429 0 l 429 189 l 449 189 l 449 14 q 463 0 449 0 l 853 0 q 867 14 867 0 l 867 333 l 731 878 q 714 889 726 889 m 431 644 l 447 644 l 450 389 l 428 389 l 431 644 "},"å":{"ha":878,"x_min":11,"x_max":867,"o":"m 246 1090 q 340 1185 246 1185 l 538 1185 q 632 1090 632 1185 l 632 1025 q 538 931 632 931 l 340 931 q 246 1025 246 931 l 246 1090 m 429 1022 l 449 1022 l 449 1093 l 429 1093 l 429 1022 m 714 889 q 731 878 726 889 l 867 333 l 867 14 q 853 0 867 0 l 463 0 q 449 14 449 0 l 449 189 l 429 189 l 429 14 q 415 0 429 0 l 25 0 q 11 14 11 0 l 11 333 l 149 878 q 164 889 153 889 l 714 889 m 431 644 l 428 389 l 450 389 l 447 644 l 431 644 "},"Æ":{"ha":1197,"x_min":11,"x_max":1186,"o":"m 11 14 q 25 0 11 0 l 415 0 q 429 14 429 0 l 429 189 l 449 189 l 449 14 q 463 0 449 0 l 1174 0 q 1186 14 1186 0 l 1186 313 q 1174 325 1186 325 l 858 325 l 858 346 l 1174 346 q 1186 358 1186 346 l 1186 517 q 1174 531 1186 531 l 858 531 l 858 550 l 1174 550 q 1186 564 1186 550 l 1186 875 q 1174 889 1186 889 l 164 889 q 149 878 153 889 l 11 333 l 11 14 m 428 389 l 435 644 l 450 644 l 450 389 l 428 389 "},"æ":{"ha":1197,"x_min":11,"x_max":1186,"o":"m 11 14 l 11 333 l 149 878 q 164 889 153 889 l 1174 889 q 1186 875 1186 889 l 1186 564 q 1174 550 1186 550 l 858 550 l 858 531 l 1174 531 q 1186 517 1186 531 l 1186 358 q 1174 346 1186 346 l 858 346 l 858 325 l 1174 325 q 1186 313 1186 325 l 1186 14 q 1174 0 1186 0 l 463 0 q 449 14 449 0 l 449 189 l 429 189 l 429 14 q 415 0 429 0 l 25 0 q 11 14 11 0 m 428 389 l 450 389 l 450 644 l 435 644 l 428 389 "},"Ç":{"ha":878,"x_min":11,"x_max":867,"o":"m 463 465 l 853 465 q 867 479 867 465 l 867 694 q 817 839 867 789 q 672 889 767 889 l 206 889 q 61 839 111 889 q 11 694 11 789 l 11 194 q 61 50 11 100 q 206 0 111 0 l 349 0 l 349 -129 q 363 -142 349 -142 l 524 -142 l 524 -162 l 363 -162 q 349 -175 349 -162 l 349 -271 q 363 -285 349 -285 l 613 -285 q 707 -190 707 -285 l 707 -114 q 613 -19 707 -19 l 533 -19 l 533 0 l 672 0 q 817 50 767 0 q 867 194 867 100 l 867 432 q 853 446 867 446 l 463 446 q 449 432 449 446 l 449 244 l 429 244 l 429 644 l 449 644 l 449 479 q 463 465 449 465 "},"ç":{"ha":878,"x_min":11,"x_max":867,"o":"m 463 465 q 449 479 449 465 l 449 644 l 429 644 l 429 244 l 449 244 l 449 432 q 463 446 449 446 l 853 446 q 867 432 867 446 l 867 194 q 817 50 867 100 q 672 0 767 0 l 533 0 l 533 -19 l 613 -19 q 707 -114 707 -19 l 707 -190 q 613 -285 707 -285 l 363 -285 q 349 -271 349 -285 l 349 -175 q 363 -162 349 -162 l 524 -162 l 524 -142 l 363 -142 q 349 -129 349 -142 l 349 0 l 206 0 q 61 50 111 0 q 11 194 11 100 l 11 694 q 61 839 11 789 q 206 889 111 889 l 672 889 q 817 839 767 889 q 867 694 867 789 l 867 479 q 853 465 867 465 l 463 465 "},"È":{"ha":768,"x_min":11,"x_max":757,"o":"m 393 1186 l 196 1186 q 185 1169 178 1186 l 285 942 q 301 932 290 932 l 474 932 q 485 947 492 932 l 407 1175 q 393 1186 404 1186 m 25 0 l 743 0 q 757 14 757 0 l 757 313 q 743 325 757 325 l 428 325 l 428 346 l 743 346 q 757 358 757 346 l 757 517 q 743 531 757 531 l 428 531 l 428 550 l 743 550 q 757 564 757 550 l 757 875 q 743 889 757 889 l 25 889 q 11 875 11 889 l 11 14 q 25 0 11 0 "},"è":{"ha":768,"x_min":11,"x_max":757,"o":"m 393 1186 q 407 1175 404 1186 l 485 947 q 474 932 492 932 l 301 932 q 285 942 290 932 l 185 1169 q 196 1186 178 1186 l 393 1186 m 25 0 q 11 14 11 0 l 11 875 q 25 889 11 889 l 743 889 q 757 875 757 889 l 757 564 q 743 550 757 550 l 428 550 l 428 531 l 743 531 q 757 517 757 531 l 757 358 q 743 346 757 346 l 428 346 l 428 325 l 743 325 q 757 313 757 325 l 757 14 q 743 0 757 0 l 25 0 "},"É":{"ha":768,"x_min":11,"x_max":757,"o":"m 367 1175 l 289 947 q 300 932 285 932 l 474 932 q 489 942 485 932 l 589 1169 q 579 1186 594 1186 l 381 1186 q 367 1175 372 1186 m 25 0 l 743 0 q 757 14 757 0 l 757 313 q 743 325 757 325 l 428 325 l 428 346 l 743 346 q 757 358 757 346 l 757 517 q 743 531 757 531 l 428 531 l 428 550 l 743 550 q 757 564 757 550 l 757 875 q 743 889 757 889 l 25 889 q 11 875 11 889 l 11 14 q 25 0 11 0 "},"é":{"ha":768,"x_min":11,"x_max":757,"o":"m 367 1175 q 381 1186 372 1186 l 579 1186 q 589 1169 594 1186 l 489 942 q 474 932 485 932 l 300 932 q 289 947 285 932 l 367 1175 m 25 0 q 11 14 11 0 l 11 875 q 25 889 11 889 l 743 889 q 757 875 757 889 l 757 564 q 743 550 757 550 l 428 550 l 428 531 l 743 531 q 757 517 757 531 l 757 358 q 743 346 757 346 l 428 346 l 428 325 l 743 325 q 757 313 757 325 l 757 14 q 743 0 757 0 l 25 0 "},"Ê":{"ha":768,"x_min":11,"x_max":757,"o":"m 169 932 l 336 932 q 351 942 347 932 l 374 983 l 349 1042 l 364 1042 l 417 942 q 433 932 422 932 l 600 932 q 610 947 617 932 l 489 1175 q 472 1186 485 1186 l 292 1186 q 276 1175 281 1186 l 160 947 q 169 932 151 932 m 25 0 l 743 0 q 757 14 757 0 l 757 313 q 743 325 757 325 l 428 325 l 428 346 l 743 346 q 757 358 757 346 l 757 517 q 743 531 757 531 l 428 531 l 428 550 l 743 550 q 757 564 757 550 l 757 875 q 743 889 757 889 l 25 889 q 11 875 11 889 l 11 14 q 25 0 11 0 "},"ê":{"ha":768,"x_min":11,"x_max":757,"o":"m 169 932 q 160 947 151 932 l 276 1175 q 292 1186 281 1186 l 472 1186 q 489 1175 485 1186 l 610 947 q 600 932 617 932 l 433 932 q 417 942 422 932 l 364 1042 l 349 1042 l 374 983 l 351 942 q 336 932 347 932 l 169 932 m 25 0 q 11 14 11 0 l 11 875 q 25 889 11 889 l 743 889 q 757 875 757 889 l 757 564 q 743 550 757 550 l 428 550 l 428 531 l 743 531 q 757 517 757 531 l 757 358 q 743 346 757 346 l 428 346 l 428 325 l 743 325 q 757 313 757 325 l 757 14 q 743 0 757 0 l 25 0 "},"Ë":{"ha":768,"x_min":11,"x_max":757,"o":"m 175 1143 l 175 969 q 189 957 175 957 l 361 957 q 375 969 375 957 l 375 1143 q 361 1157 375 1157 l 189 1157 q 175 1143 175 1157 m 394 1143 l 394 969 q 408 957 394 957 l 582 957 q 594 969 594 957 l 594 1143 q 582 1157 594 1157 l 408 1157 q 394 1143 394 1157 m 25 0 l 743 0 q 757 14 757 0 l 757 313 q 743 325 757 325 l 428 325 l 428 346 l 743 346 q 757 358 757 346 l 757 517 q 743 531 757 531 l 428 531 l 428 550 l 743 550 q 757 564 757 550 l 757 875 q 743 889 757 889 l 25 889 q 11 875 11 889 l 11 14 q 25 0 11 0 "},"ë":{"ha":768,"x_min":11,"x_max":757,"o":"m 175 1143 q 189 1157 175 1157 l 361 1157 q 375 1143 375 1157 l 375 969 q 361 957 375 957 l 189 957 q 175 969 175 957 l 175 1143 m 394 1143 q 408 1157 394 1157 l 582 1157 q 594 1143 594 1157 l 594 969 q 582 957 594 957 l 408 957 q 394 969 394 957 l 394 1143 m 25 0 q 11 14 11 0 l 11 875 q 25 889 11 889 l 743 889 q 757 875 757 889 l 757 564 q 743 550 757 550 l 428 550 l 428 531 l 743 531 q 757 517 757 531 l 757 358 q 743 346 757 346 l 428 346 l 428 325 l 743 325 q 757 313 757 325 l 757 14 q 743 0 757 0 l 25 0 "},"Ì":{"ha":439,"x_min":11,"x_max":428,"o":"m 228 1186 l 31 1186 q 19 1169 14 1186 l 119 942 q 136 932 125 932 l 308 932 q 319 947 326 932 l 242 1175 q 228 1186 239 1186 m 11 875 l 11 14 q 25 0 11 0 l 414 0 q 428 14 428 0 l 428 875 q 414 889 428 889 l 25 889 q 11 875 11 889 "},"ì":{"ha":439,"x_min":11,"x_max":428,"o":"m 228 1186 q 242 1175 239 1186 l 319 947 q 308 932 326 932 l 136 932 q 119 942 125 932 l 19 1169 q 31 1186 14 1186 l 228 1186 m 11 875 q 25 889 11 889 l 414 889 q 428 875 428 889 l 428 14 q 414 0 428 0 l 25 0 q 11 14 11 0 l 11 875 "},"Í":{"ha":439,"x_min":11,"x_max":431,"o":"m 201 1175 l 124 947 q 135 932 119 932 l 308 932 q 324 942 319 932 l 424 1169 q 414 1186 431 1186 l 215 1186 q 201 1175 207 1186 m 11 875 l 11 14 q 25 0 11 0 l 414 0 q 428 14 428 0 l 428 875 q 414 889 428 889 l 25 889 q 11 875 11 889 "},"í":{"ha":439,"x_min":11,"x_max":431,"o":"m 201 1175 q 215 1186 207 1186 l 414 1186 q 424 1169 431 1186 l 324 942 q 308 932 319 932 l 135 932 q 124 947 119 932 l 201 1175 m 11 875 q 25 889 11 889 l 414 889 q 428 875 428 889 l 428 14 q 414 0 428 0 l 25 0 q 11 14 11 0 l 11 875 "},"Î":{"ha":439,"x_min":-14,"x_max":453,"o":"m 4 932 l 171 932 q 186 942 181 932 l 208 983 l 183 1042 l 199 1042 l 251 942 q 268 932 257 932 l 435 932 q 444 947 453 932 l 324 1175 q 307 1186 319 1186 l 126 1186 q 111 1175 115 1186 l -6 947 q 4 932 -14 932 m 11 875 l 11 14 q 25 0 11 0 l 414 0 q 428 14 428 0 l 428 875 q 414 889 428 889 l 25 889 q 11 875 11 889 "},"î":{"ha":439,"x_min":-14,"x_max":453,"o":"m 4 932 q -6 947 -14 932 l 111 1175 q 126 1186 115 1186 l 307 1186 q 324 1175 319 1186 l 444 947 q 435 932 453 932 l 268 932 q 251 942 257 932 l 199 1042 l 183 1042 l 208 983 l 186 942 q 171 932 181 932 l 4 932 m 11 875 q 25 889 11 889 l 414 889 q 428 875 428 889 l 428 14 q 414 0 428 0 l 25 0 q 11 14 11 0 l 11 875 "},"Ï":{"ha":439,"x_min":10,"x_max":429,"o":"m 10 1143 l 10 969 q 24 957 10 957 l 196 957 q 210 969 210 957 l 210 1143 q 196 1157 210 1157 l 24 1157 q 10 1143 10 1157 m 229 1143 l 229 969 q 243 957 229 957 l 417 957 q 429 969 429 957 l 429 1143 q 417 1157 429 1157 l 243 1157 q 229 1143 229 1157 m 11 875 l 11 14 q 25 0 11 0 l 414 0 q 428 14 428 0 l 428 875 q 414 889 428 889 l 25 889 q 11 875 11 889 "},"ï":{"ha":439,"x_min":10,"x_max":429,"o":"m 10 1143 q 24 1157 10 1157 l 196 1157 q 210 1143 210 1157 l 210 969 q 196 957 210 957 l 24 957 q 10 969 10 957 l 10 1143 m 229 1143 q 243 1157 229 1157 l 417 1157 q 429 1143 429 1157 l 429 969 q 417 957 429 957 l 243 957 q 229 969 229 957 l 229 1143 m 11 875 q 25 889 11 889 l 414 889 q 428 875 428 889 l 428 14 q 414 0 428 0 l 25 0 q 11 14 11 0 l 11 875 "},"Ð":{"ha":910,"x_min":11,"x_max":899,"o":"m 704 889 l 57 889 q 43 875 43 889 l 43 543 l 25 543 q 11 531 11 543 l 11 368 q 25 354 11 354 l 43 354 l 43 14 q 57 0 43 0 l 704 0 q 849 50 799 0 q 899 194 899 100 l 899 694 q 849 839 899 789 q 704 889 799 889 m 481 242 l 461 242 l 461 647 l 481 647 l 481 242 "},"ð":{"ha":910,"x_min":11,"x_max":899,"o":"m 704 889 q 849 839 799 889 q 899 694 899 789 l 899 194 q 849 50 899 100 q 704 0 799 0 l 57 0 q 43 14 43 0 l 43 354 l 25 354 q 11 368 11 354 l 11 531 q 25 543 11 543 l 43 543 l 43 875 q 57 889 43 889 l 704 889 m 481 242 l 481 647 l 461 647 l 461 242 l 481 242 "},"Ñ":{"ha":875,"x_min":11,"x_max":864,"o":"m 243 931 l 358 931 q 371 944 371 931 l 371 981 l 328 1014 l 328 1029 l 476 931 l 550 931 q 644 1025 644 931 l 644 1171 q 632 1185 644 1185 l 515 1185 q 503 1171 503 1185 l 503 1131 l 546 1097 l 546 1082 l 399 1185 l 324 1185 q 229 1090 229 1185 l 229 944 q 243 931 229 931 m 25 0 l 386 0 q 400 14 400 0 l 400 139 l 313 319 l 328 319 l 494 10 q 510 0 500 0 l 850 0 q 864 14 864 0 l 864 875 q 850 889 864 889 l 486 889 q 474 875 474 889 l 474 750 l 558 578 l 542 578 l 379 879 q 364 889 374 889 l 25 889 q 11 875 11 889 l 11 14 q 25 0 11 0 "},"ñ":{"ha":875,"x_min":11,"x_max":864,"o":"m 243 931 q 229 944 229 931 l 229 1090 q 324 1185 229 1185 l 399 1185 l 546 1082 l 546 1097 l 503 1131 l 503 1171 q 515 1185 503 1185 l 632 1185 q 644 1171 644 1185 l 644 1025 q 550 931 644 931 l 476 931 l 328 1029 l 328 1014 l 371 981 l 371 944 q 358 931 371 931 l 243 931 m 25 0 q 11 14 11 0 l 11 875 q 25 889 11 889 l 364 889 q 379 879 374 889 l 542 578 l 558 578 l 474 750 l 474 875 q 486 889 474 889 l 850 889 q 864 875 864 889 l 864 14 q 850 0 864 0 l 510 0 q 494 10 500 0 l 328 319 l 313 319 l 400 139 l 400 14 q 386 0 400 0 l 25 0 "},"Ò":{"ha":878,"x_min":11,"x_max":867,"o":"m 447 1186 l 250 1186 q 239 1169 232 1186 l 339 942 q 356 932 344 932 l 528 932 q 539 947 546 932 l 461 1175 q 447 1186 458 1186 m 11 194 q 61 50 11 100 q 206 0 111 0 l 672 0 q 817 50 767 0 q 867 194 867 100 l 867 694 q 817 839 867 789 q 672 889 767 889 l 206 889 q 61 839 111 889 q 11 694 11 789 l 11 194 m 429 644 l 449 644 l 449 244 l 429 244 l 429 644 "},"ò":{"ha":878,"x_min":11,"x_max":867,"o":"m 447 1186 q 461 1175 458 1186 l 539 947 q 528 932 546 932 l 356 932 q 339 942 344 932 l 239 1169 q 250 1186 232 1186 l 447 1186 m 11 194 l 11 694 q 61 839 11 789 q 206 889 111 889 l 672 889 q 817 839 767 889 q 867 694 867 789 l 867 194 q 817 50 867 100 q 672 0 767 0 l 206 0 q 61 50 111 0 q 11 194 11 100 m 429 644 l 429 244 l 449 244 l 449 644 l 429 644 "},"Ó":{"ha":878,"x_min":11,"x_max":867,"o":"m 421 1175 l 343 947 q 354 932 339 932 l 528 932 q 543 942 539 932 l 643 1169 q 633 1186 649 1186 l 435 1186 q 421 1175 426 1186 m 11 194 q 61 50 11 100 q 206 0 111 0 l 672 0 q 817 50 767 0 q 867 194 867 100 l 867 694 q 817 839 867 789 q 672 889 767 889 l 206 889 q 61 839 111 889 q 11 694 11 789 l 11 194 m 429 644 l 449 644 l 449 244 l 429 244 l 429 644 "},"ó":{"ha":878,"x_min":11,"x_max":867,"o":"m 421 1175 q 435 1186 426 1186 l 633 1186 q 643 1169 649 1186 l 543 942 q 528 932 539 932 l 354 932 q 343 947 339 932 l 421 1175 m 11 194 l 11 694 q 61 839 11 789 q 206 889 111 889 l 672 889 q 817 839 767 889 q 867 694 867 789 l 867 194 q 817 50 867 100 q 672 0 767 0 l 206 0 q 61 50 111 0 q 11 194 11 100 m 429 644 l 429 244 l 449 244 l 449 644 l 429 644 "},"Ô":{"ha":878,"x_min":11,"x_max":867,"o":"m 224 932 l 390 932 q 406 942 400 932 l 428 983 l 403 1042 l 418 1042 l 471 942 q 488 932 476 932 l 654 932 q 664 947 672 932 l 543 1175 q 526 1186 539 1186 l 346 1186 q 331 1175 335 1186 l 214 947 q 224 932 206 932 m 11 194 q 61 50 11 100 q 206 0 111 0 l 672 0 q 817 50 767 0 q 867 194 867 100 l 867 694 q 817 839 867 789 q 672 889 767 889 l 206 889 q 61 839 111 889 q 11 694 11 789 l 11 194 m 429 644 l 449 644 l 449 244 l 429 244 l 429 644 "},"ô":{"ha":878,"x_min":11,"x_max":867,"o":"m 224 932 q 214 947 206 932 l 331 1175 q 346 1186 335 1186 l 526 1186 q 543 1175 539 1186 l 664 947 q 654 932 672 932 l 488 932 q 471 942 476 932 l 418 1042 l 403 1042 l 428 983 l 406 942 q 390 932 400 932 l 224 932 m 11 194 l 11 694 q 61 839 11 789 q 206 889 111 889 l 672 889 q 817 839 767 889 q 867 694 867 789 l 867 194 q 817 50 867 100 q 672 0 767 0 l 206 0 q 61 50 111 0 q 11 194 11 100 m 429 644 l 429 244 l 449 244 l 449 644 l 429 644 "},"Õ":{"ha":878,"x_min":11,"x_max":867,"o":"m 244 931 l 360 931 q 372 944 372 931 l 372 981 l 329 1014 l 329 1029 l 478 931 l 551 931 q 646 1025 646 931 l 646 1171 q 633 1185 646 1185 l 517 1185 q 504 1171 504 1185 l 504 1131 l 547 1097 l 547 1082 l 400 1185 l 325 1185 q 231 1090 231 1185 l 231 944 q 244 931 231 931 m 11 194 q 61 50 11 100 q 206 0 111 0 l 672 0 q 817 50 767 0 q 867 194 867 100 l 867 694 q 817 839 867 789 q 672 889 767 889 l 206 889 q 61 839 111 889 q 11 694 11 789 l 11 194 m 429 644 l 449 644 l 449 244 l 429 244 l 429 644 "},"õ":{"ha":878,"x_min":11,"x_max":867,"o":"m 244 931 q 231 944 231 931 l 231 1090 q 325 1185 231 1185 l 400 1185 l 547 1082 l 547 1097 l 504 1131 l 504 1171 q 517 1185 504 1185 l 633 1185 q 646 1171 646 1185 l 646 1025 q 551 931 646 931 l 478 931 l 329 1029 l 329 1014 l 372 981 l 372 944 q 360 931 372 931 l 244 931 m 11 194 l 11 694 q 61 839 11 789 q 206 889 111 889 l 672 889 q 817 839 767 889 q 867 694 867 789 l 867 194 q 817 50 867 100 q 672 0 767 0 l 206 0 q 61 50 111 0 q 11 194 11 100 m 429 644 l 429 244 l 449 244 l 449 644 l 429 644 "},"Ö":{"ha":878,"x_min":11,"x_max":867,"o":"m 229 1143 l 229 969 q 243 957 229 957 l 415 957 q 429 969 429 957 l 429 1143 q 415 1157 429 1157 l 243 1157 q 229 1143 229 1157 m 449 1143 l 449 969 q 463 957 449 957 l 636 957 q 649 969 649 957 l 649 1143 q 636 1157 649 1157 l 463 1157 q 449 1143 449 1157 m 11 194 q 61 50 11 100 q 206 0 111 0 l 672 0 q 817 50 767 0 q 867 194 867 100 l 867 694 q 817 839 867 789 q 672 889 767 889 l 206 889 q 61 839 111 889 q 11 694 11 789 l 11 194 m 429 644 l 449 644 l 449 244 l 429 244 l 429 644 "},"ö":{"ha":878,"x_min":11,"x_max":867,"o":"m 229 1143 q 243 1157 229 1157 l 415 1157 q 429 1143 429 1157 l 429 969 q 415 957 429 957 l 243 957 q 229 969 229 957 l 229 1143 m 449 1143 q 463 1157 449 1157 l 636 1157 q 649 1143 649 1157 l 649 969 q 636 957 649 957 l 463 957 q 449 969 449 957 l 449 1143 m 11 194 l 11 694 q 61 839 11 789 q 206 889 111 889 l 672 889 q 817 839 767 889 q 867 694 867 789 l 867 194 q 817 50 867 100 q 672 0 767 0 l 206 0 q 61 50 111 0 q 11 194 11 100 m 429 644 l 429 244 l 449 244 l 449 644 l 429 644 "},"×":{"ha":561,"x_min":6,"x_max":556,"o":"m 414 428 l 546 558 q 546 578 556 568 l 431 692 q 413 692 422 700 l 281 560 l 149 692 q 131 692 139 700 l 15 578 q 15 558 6 568 l 147 428 l 17 297 q 17 278 7 288 l 131 164 q 150 164 140 154 l 281 294 l 411 164 q 431 164 421 154 l 544 278 q 544 297 554 288 l 414 428 "},"Ø":{"ha":936,"x_min":11,"x_max":925,"o":"m 908 746 l 893 738 q 701 889 869 889 l 235 889 q 90 839 140 889 q 40 694 40 789 l 40 321 l 21 311 q 11 296 11 307 l 11 153 q 26 142 11 133 l 43 150 q 235 0 67 0 l 701 0 q 845 50 794 0 q 896 194 896 100 l 896 568 l 914 576 q 925 592 925 583 l 925 736 q 908 746 925 753 m 458 644 l 478 644 l 478 535 l 458 525 l 458 644 m 478 244 l 458 244 l 458 353 l 478 363 l 478 244 "},"ø":{"ha":936,"x_min":11,"x_max":925,"o":"m 908 746 q 925 736 925 753 l 925 592 q 914 576 925 583 l 896 568 l 896 194 q 845 50 896 100 q 701 0 794 0 l 235 0 q 43 150 67 0 l 26 142 q 11 153 11 133 l 11 296 q 21 311 11 307 l 40 321 l 40 694 q 90 839 40 789 q 235 889 140 889 l 701 889 q 893 738 869 889 l 908 746 m 458 644 l 458 525 l 478 535 l 478 644 l 458 644 m 478 244 l 478 363 l 458 353 l 458 244 l 478 244 "},"Ù":{"ha":878,"x_min":11,"x_max":867,"o":"m 447 1186 l 250 1186 q 239 1169 232 1186 l 339 942 q 356 932 344 932 l 528 932 q 539 947 546 932 l 461 1175 q 447 1186 458 1186 m 853 889 l 463 889 q 449 875 449 889 l 449 244 l 429 244 l 429 875 q 415 889 429 889 l 25 889 q 11 875 11 889 l 11 194 q 61 50 11 100 q 206 0 111 0 l 672 0 q 817 50 767 0 q 867 194 867 100 l 867 875 q 853 889 867 889 "},"ù":{"ha":878,"x_min":11,"x_max":867,"o":"m 447 1186 q 461 1175 458 1186 l 539 947 q 528 932 546 932 l 356 932 q 339 942 344 932 l 239 1169 q 250 1186 232 1186 l 447 1186 m 853 889 q 867 875 867 889 l 867 194 q 817 50 867 100 q 672 0 767 0 l 206 0 q 61 50 111 0 q 11 194 11 100 l 11 875 q 25 889 11 889 l 415 889 q 429 875 429 889 l 429 244 l 449 244 l 449 875 q 463 889 449 889 l 853 889 "},"Ú":{"ha":878,"x_min":11,"x_max":867,"o":"m 421 1175 l 343 947 q 354 932 339 932 l 528 932 q 543 942 539 932 l 643 1169 q 633 1186 649 1186 l 435 1186 q 421 1175 426 1186 m 853 889 l 463 889 q 449 875 449 889 l 449 244 l 429 244 l 429 875 q 415 889 429 889 l 25 889 q 11 875 11 889 l 11 194 q 61 50 11 100 q 206 0 111 0 l 672 0 q 817 50 767 0 q 867 194 867 100 l 867 875 q 853 889 867 889 "},"ú":{"ha":878,"x_min":11,"x_max":867,"o":"m 421 1175 q 435 1186 426 1186 l 633 1186 q 643 1169 649 1186 l 543 942 q 528 932 539 932 l 354 932 q 343 947 339 932 l 421 1175 m 853 889 q 867 875 867 889 l 867 194 q 817 50 867 100 q 672 0 767 0 l 206 0 q 61 50 111 0 q 11 194 11 100 l 11 875 q 25 889 11 889 l 415 889 q 429 875 429 889 l 429 244 l 449 244 l 449 875 q 463 889 449 889 l 853 889 "},"Û":{"ha":878,"x_min":11,"x_max":867,"o":"m 224 932 l 390 932 q 406 942 400 932 l 428 983 l 403 1042 l 418 1042 l 471 942 q 488 932 476 932 l 654 932 q 664 947 672 932 l 543 1175 q 526 1186 539 1186 l 346 1186 q 331 1175 335 1186 l 214 947 q 224 932 206 932 m 853 889 l 463 889 q 449 875 449 889 l 449 244 l 429 244 l 429 875 q 415 889 429 889 l 25 889 q 11 875 11 889 l 11 194 q 61 50 11 100 q 206 0 111 0 l 672 0 q 817 50 767 0 q 867 194 867 100 l 867 875 q 853 889 867 889 "},"û":{"ha":878,"x_min":11,"x_max":867,"o":"m 224 932 q 214 947 206 932 l 331 1175 q 346 1186 335 1186 l 526 1186 q 543 1175 539 1186 l 664 947 q 654 932 672 932 l 488 932 q 471 942 476 932 l 418 1042 l 403 1042 l 428 983 l 406 942 q 390 932 400 932 l 224 932 m 853 889 q 867 875 867 889 l 867 194 q 817 50 867 100 q 672 0 767 0 l 206 0 q 61 50 111 0 q 11 194 11 100 l 11 875 q 25 889 11 889 l 415 889 q 429 875 429 889 l 429 244 l 449 244 l 449 875 q 463 889 449 889 l 853 889 "},"Ü":{"ha":878,"x_min":11,"x_max":867,"o":"m 229 1143 l 229 969 q 243 957 229 957 l 415 957 q 429 969 429 957 l 429 1143 q 415 1157 429 1157 l 243 1157 q 229 1143 229 1157 m 449 1143 l 449 969 q 463 957 449 957 l 636 957 q 649 969 649 957 l 649 1143 q 636 1157 649 1157 l 463 1157 q 449 1143 449 1157 m 853 889 l 463 889 q 449 875 449 889 l 449 244 l 429 244 l 429 875 q 415 889 429 889 l 25 889 q 11 875 11 889 l 11 194 q 61 50 11 100 q 206 0 111 0 l 672 0 q 817 50 767 0 q 867 194 867 100 l 867 875 q 853 889 867 889 "},"ü":{"ha":878,"x_min":11,"x_max":867,"o":"m 229 1143 q 243 1157 229 1157 l 415 1157 q 429 1143 429 1157 l 429 969 q 415 957 429 957 l 243 957 q 229 969 229 957 l 229 1143 m 449 1143 q 463 1157 449 1157 l 636 1157 q 649 1143 649 1157 l 649 969 q 636 957 649 957 l 463 957 q 449 969 449 957 l 449 1143 m 853 889 q 867 875 867 889 l 867 194 q 817 50 867 100 q 672 0 767 0 l 206 0 q 61 50 111 0 q 11 194 11 100 l 11 875 q 25 889 11 889 l 415 889 q 429 875 429 889 l 429 244 l 449 244 l 449 875 q 463 889 449 889 l 853 889 "},"Ý":{"ha":878,"x_min":11,"x_max":867,"o":"m 421 1175 l 343 947 q 354 932 339 932 l 528 932 q 543 942 539 932 l 643 1169 q 633 1186 649 1186 l 435 1186 q 421 1175 426 1186 m 244 0 l 635 0 q 647 14 647 0 l 647 189 l 867 454 l 867 875 q 853 889 867 889 l 463 889 q 449 875 449 889 l 449 561 l 439 547 l 429 561 l 429 875 q 415 889 429 889 l 25 889 q 11 875 11 889 l 11 454 l 231 189 l 231 14 q 244 0 231 0 "},"ý":{"ha":878,"x_min":11,"x_max":867,"o":"m 421 1175 q 435 1186 426 1186 l 633 1186 q 643 1169 649 1186 l 543 942 q 528 932 539 932 l 354 932 q 343 947 339 932 l 421 1175 m 244 0 q 231 14 231 0 l 231 189 l 11 454 l 11 875 q 25 889 11 889 l 415 889 q 429 875 429 889 l 429 561 l 439 547 l 449 561 l 449 875 q 463 889 449 889 l 853 889 q 867 875 867 889 l 867 454 l 647 189 l 647 14 q 635 0 647 0 l 244 0 "},"Þ":{"ha":875,"x_min":11,"x_max":864,"o":"m 11 14 q 25 0 11 0 l 414 0 q 428 14 428 0 l 428 94 l 669 94 q 814 144 764 94 q 864 289 864 194 l 864 600 q 814 744 864 694 q 669 794 764 794 l 428 794 l 428 875 q 414 889 428 889 l 25 889 q 11 875 11 889 l 11 14 m 425 339 l 425 550 l 446 550 l 446 339 l 425 339 "},"þ":{"ha":875,"x_min":11,"x_max":864,"o":"m 11 14 l 11 875 q 25 889 11 889 l 414 889 q 428 875 428 889 l 428 794 l 669 794 q 814 744 764 794 q 864 600 864 694 l 864 289 q 814 144 864 194 q 669 94 764 94 l 428 94 l 428 14 q 414 0 428 0 l 25 0 q 11 14 11 0 m 425 339 l 446 339 l 446 550 l 425 550 l 425 339 "},"ß":{"ha":878,"x_min":11,"x_max":867,"o":"m 867 694 q 817 839 867 789 q 672 889 767 889 l 206 889 q 61 839 111 889 q 11 694 11 789 l 11 14 q 25 0 11 0 l 415 0 q 429 14 429 0 l 429 644 l 449 644 l 449 240 q 463 226 449 226 l 536 226 l 536 207 l 463 207 q 449 193 449 207 l 449 14 q 463 0 449 0 l 672 0 q 817 50 767 0 q 867 194 867 100 l 867 288 q 771 454 867 399 l 867 547 l 867 694 "},"ẞ":{"ha":878,"x_min":11,"x_max":867,"o":"m 867 694 l 867 547 l 771 454 q 867 288 867 399 l 867 194 q 817 50 867 100 q 672 0 767 0 l 463 0 q 449 14 449 0 l 449 193 q 463 207 449 207 l 536 207 l 536 226 l 463 226 q 449 240 449 226 l 449 644 l 429 644 l 429 14 q 415 0 429 0 l 25 0 q 11 14 11 0 l 11 694 q 61 839 11 789 q 206 889 111 889 l 672 889 q 817 839 767 889 q 867 694 867 789 "},"÷":{"ha":608,"x_min":11,"x_max":597,"o":"m 165 807 l 165 556 q 179 542 165 542 l 431 542 q 443 556 443 542 l 443 807 q 431 819 443 819 l 179 819 q 165 807 165 819 m 11 508 l 11 347 q 25 333 11 333 l 583 333 q 597 347 597 333 l 597 508 q 583 522 597 522 l 25 522 q 11 508 11 522 m 165 300 l 165 49 q 179 36 165 36 l 431 36 q 443 49 443 36 l 443 300 q 431 314 443 314 l 179 314 q 165 300 165 314 "},"ÿ":{"ha":878,"x_min":11,"x_max":867,"o":"m 229 1143 l 229 969 q 243 957 229 957 l 415 957 q 429 969 429 957 l 429 1143 q 415 1157 429 1157 l 243 1157 q 229 1143 229 1157 m 449 1143 l 449 969 q 463 957 449 957 l 636 957 q 649 969 649 957 l 649 1143 q 636 1157 649 1157 l 463 1157 q 449 1143 449 1157 m 244 0 l 635 0 q 647 14 647 0 l 647 189 l 867 454 l 867 875 q 853 889 867 889 l 463 889 q 449 875 449 889 l 449 561 l 439 547 l 429 561 l 429 875 q 415 889 429 889 l 25 889 q 11 875 11 889 l 11 454 l 231 189 l 231 14 q 244 0 231 0 "},"Ÿ":{"ha":878,"x_min":11,"x_max":867,"o":"m 229 1143 q 243 1157 229 1157 l 415 1157 q 429 1143 429 1157 l 429 969 q 415 957 429 957 l 243 957 q 229 969 229 957 l 229 1143 m 449 1143 q 463 1157 449 1157 l 636 1157 q 649 1143 649 1157 l 649 969 q 636 957 649 957 l 463 957 q 449 969 449 957 l 449 1143 m 244 0 q 231 14 231 0 l 231 189 l 11 454 l 11 875 q 25 889 11 889 l 415 889 q 429 875 429 889 l 429 561 l 439 547 l 449 561 l 449 875 q 463 889 449 889 l 853 889 q 867 875 867 889 l 867 454 l 647 189 l 647 14 q 635 0 647 0 l 244 0 "},"Ā":{"ha":878,"x_min":11,"x_max":867,"o":"m 253 1131 l 253 985 q 267 971 253 971 l 611 971 q 624 985 624 971 l 624 1131 q 611 1143 624 1143 l 267 1143 q 253 1131 253 1143 m 714 889 l 164 889 q 149 878 153 889 l 11 333 l 11 14 q 25 0 11 0 l 415 0 q 429 14 429 0 l 429 189 l 449 189 l 449 14 q 463 0 449 0 l 853 0 q 867 14 867 0 l 867 333 l 731 878 q 714 889 726 889 m 431 644 l 447 644 l 450 389 l 428 389 l 431 644 "},"ā":{"ha":878,"x_min":11,"x_max":867,"o":"m 253 1131 q 267 1143 253 1143 l 611 1143 q 624 1131 624 1143 l 624 985 q 611 971 624 971 l 267 971 q 253 985 253 971 l 253 1131 m 714 889 q 731 878 726 889 l 867 333 l 867 14 q 853 0 867 0 l 463 0 q 449 14 449 0 l 449 189 l 429 189 l 429 14 q 415 0 429 0 l 25 0 q 11 14 11 0 l 11 333 l 149 878 q 164 889 153 889 l 714 889 m 431 644 l 428 389 l 450 389 l 447 644 l 431 644 "},"Ă":{"ha":878,"x_min":11,"x_max":867,"o":"m 340 944 l 538 944 q 632 1039 632 944 l 632 1153 q 619 1167 632 1167 l 463 1167 q 449 1153 449 1167 l 449 1067 l 429 1067 l 429 1153 q 415 1167 429 1167 l 260 1167 q 246 1153 246 1167 l 246 1039 q 340 944 246 944 m 714 889 l 164 889 q 149 878 153 889 l 11 333 l 11 14 q 25 0 11 0 l 415 0 q 429 14 429 0 l 429 189 l 449 189 l 449 14 q 463 0 449 0 l 853 0 q 867 14 867 0 l 867 333 l 731 878 q 714 889 726 889 m 431 644 l 447 644 l 450 389 l 428 389 l 431 644 "},"ă":{"ha":878,"x_min":11,"x_max":867,"o":"m 340 944 q 246 1039 246 944 l 246 1153 q 260 1167 246 1167 l 415 1167 q 429 1153 429 1167 l 429 1067 l 449 1067 l 449 1153 q 463 1167 449 1167 l 619 1167 q 632 1153 632 1167 l 632 1039 q 538 944 632 944 l 340 944 m 714 889 q 731 878 726 889 l 867 333 l 867 14 q 853 0 867 0 l 463 0 q 449 14 449 0 l 449 189 l 429 189 l 429 14 q 415 0 429 0 l 25 0 q 11 14 11 0 l 11 333 l 149 878 q 164 889 153 889 l 714 889 m 431 644 l 428 389 l 450 389 l 447 644 l 431 644 "},"Ą":{"ha":878,"x_min":11,"x_max":878,"o":"m 865 -124 l 792 -124 l 747 -171 l 731 -171 l 861 -8 q 867 8 867 -3 l 867 333 l 731 878 q 714 889 726 889 l 164 889 q 149 878 153 889 l 11 333 l 11 14 q 25 0 11 0 l 415 0 q 429 14 429 0 l 429 189 l 449 189 l 449 14 q 463 0 449 0 l 660 0 l 569 -100 l 569 -190 q 664 -285 569 -285 l 865 -285 q 878 -271 878 -285 l 878 -136 q 865 -124 878 -124 m 428 389 l 431 644 l 447 644 l 450 389 l 428 389 "},"ą":{"ha":878,"x_min":11,"x_max":878,"o":"m 865 -124 q 878 -136 878 -124 l 878 -271 q 865 -285 878 -285 l 664 -285 q 569 -190 569 -285 l 569 -100 l 660 0 l 463 0 q 449 14 449 0 l 449 189 l 429 189 l 429 14 q 415 0 429 0 l 25 0 q 11 14 11 0 l 11 333 l 149 878 q 164 889 153 889 l 714 889 q 731 878 726 889 l 867 333 l 867 8 q 861 -8 867 -3 l 731 -171 l 747 -171 l 792 -124 l 865 -124 m 428 389 l 450 389 l 447 644 l 431 644 l 428 389 "},"Ć":{"ha":878,"x_min":11,"x_max":867,"o":"m 421 1175 l 343 947 q 354 932 339 932 l 528 932 q 543 942 539 932 l 643 1169 q 633 1186 649 1186 l 435 1186 q 421 1175 426 1186 m 853 446 l 463 446 q 449 432 449 446 l 449 244 l 429 244 l 429 644 l 449 644 l 449 479 q 463 465 449 465 l 853 465 q 867 479 867 465 l 867 694 q 817 839 867 789 q 672 889 767 889 l 206 889 q 61 839 111 889 q 11 694 11 789 l 11 194 q 61 50 11 100 q 206 0 111 0 l 672 0 q 817 50 767 0 q 867 194 867 100 l 867 432 q 853 446 867 446 "},"ć":{"ha":878,"x_min":11,"x_max":867,"o":"m 421 1175 q 435 1186 426 1186 l 633 1186 q 643 1169 649 1186 l 543 942 q 528 932 539 932 l 354 932 q 343 947 339 932 l 421 1175 m 853 446 q 867 432 867 446 l 867 194 q 817 50 867 100 q 672 0 767 0 l 206 0 q 61 50 111 0 q 11 194 11 100 l 11 694 q 61 839 11 789 q 206 889 111 889 l 672 889 q 817 839 767 889 q 867 694 867 789 l 867 479 q 853 465 867 465 l 463 465 q 449 479 449 465 l 449 644 l 429 644 l 429 244 l 449 244 l 449 432 q 463 446 449 446 l 853 446 "},"Ċ":{"ha":878,"x_min":11,"x_max":867,"o":"m 328 1154 l 328 958 q 342 946 328 946 l 536 946 q 550 958 550 946 l 550 1154 q 536 1168 550 1168 l 342 1168 q 328 1154 328 1168 m 853 446 l 463 446 q 449 432 449 446 l 449 244 l 429 244 l 429 644 l 449 644 l 449 479 q 463 465 449 465 l 853 465 q 867 479 867 465 l 867 694 q 817 839 867 789 q 672 889 767 889 l 206 889 q 61 839 111 889 q 11 694 11 789 l 11 194 q 61 50 11 100 q 206 0 111 0 l 672 0 q 817 50 767 0 q 867 194 867 100 l 867 432 q 853 446 867 446 "},"ċ":{"ha":878,"x_min":11,"x_max":867,"o":"m 328 1154 q 342 1168 328 1168 l 536 1168 q 550 1154 550 1168 l 550 958 q 536 946 550 946 l 342 946 q 328 958 328 946 l 328 1154 m 853 446 q 867 432 867 446 l 867 194 q 817 50 867 100 q 672 0 767 0 l 206 0 q 61 50 111 0 q 11 194 11 100 l 11 694 q 61 839 11 789 q 206 889 111 889 l 672 889 q 817 839 767 889 q 867 694 867 789 l 867 479 q 853 465 867 465 l 463 465 q 449 479 449 465 l 449 644 l 429 644 l 429 244 l 449 244 l 449 432 q 463 446 449 446 l 853 446 "},"Č":{"ha":878,"x_min":11,"x_max":867,"o":"m 654 1186 l 488 1186 q 472 1175 476 1186 l 451 1131 l 478 1076 l 463 1076 l 407 1176 q 390 1186 400 1186 l 224 1186 q 214 1169 207 1186 l 335 942 q 351 932 339 932 l 536 932 q 553 942 546 932 l 664 1169 q 654 1186 672 1186 m 853 446 l 463 446 q 449 432 449 446 l 449 244 l 429 244 l 429 644 l 449 644 l 449 479 q 463 465 449 465 l 853 465 q 867 479 867 465 l 867 694 q 817 839 867 789 q 672 889 767 889 l 206 889 q 61 839 111 889 q 11 694 11 789 l 11 194 q 61 50 11 100 q 206 0 111 0 l 672 0 q 817 50 767 0 q 867 194 867 100 l 867 432 q 853 446 867 446 "},"č":{"ha":878,"x_min":11,"x_max":867,"o":"m 654 1186 q 664 1169 672 1186 l 553 942 q 536 932 546 932 l 351 932 q 335 942 339 932 l 214 1169 q 224 1186 207 1186 l 390 1186 q 407 1176 400 1186 l 463 1076 l 478 1076 l 451 1131 l 472 1175 q 488 1186 476 1186 l 654 1186 m 853 446 q 867 432 867 446 l 867 194 q 817 50 867 100 q 672 0 767 0 l 206 0 q 61 50 111 0 q 11 194 11 100 l 11 694 q 61 839 11 789 q 206 889 111 889 l 672 889 q 817 839 767 889 q 867 694 867 789 l 867 479 q 853 465 867 465 l 463 465 q 449 479 449 465 l 449 644 l 429 644 l 429 244 l 449 244 l 449 432 q 463 446 449 446 l 853 446 "},"Ď":{"ha":878,"x_min":11,"x_max":867,"o":"m 654 1186 l 488 1186 q 472 1175 476 1186 l 451 1131 l 478 1076 l 463 1076 l 407 1176 q 390 1186 400 1186 l 224 1186 q 214 1169 207 1186 l 335 942 q 351 932 339 932 l 536 932 q 553 942 546 932 l 664 1169 q 654 1186 672 1186 m 11 875 l 11 14 q 25 0 11 0 l 672 0 q 817 50 767 0 q 867 194 867 100 l 867 694 q 817 839 867 789 q 672 889 767 889 l 25 889 q 11 875 11 889 m 429 647 l 449 647 l 449 242 l 429 242 l 429 647 "},"ď":{"ha":878,"x_min":11,"x_max":867,"o":"m 654 1186 q 664 1169 672 1186 l 553 942 q 536 932 546 932 l 351 932 q 335 942 339 932 l 214 1169 q 224 1186 207 1186 l 390 1186 q 407 1176 400 1186 l 463 1076 l 478 1076 l 451 1131 l 472 1175 q 488 1186 476 1186 l 654 1186 m 11 875 q 25 889 11 889 l 672 889 q 817 839 767 889 q 867 694 867 789 l 867 194 q 817 50 867 100 q 672 0 767 0 l 25 0 q 11 14 11 0 l 11 875 m 429 647 l 429 242 l 449 242 l 449 647 l 429 647 "},"Đ":{"ha":910,"x_min":11,"x_max":899,"o":"m 704 889 l 57 889 q 43 875 43 889 l 43 543 l 25 543 q 11 531 11 543 l 11 368 q 25 354 11 354 l 43 354 l 43 14 q 57 0 43 0 l 704 0 q 849 50 799 0 q 899 194 899 100 l 899 694 q 849 839 899 789 q 704 889 799 889 m 481 242 l 461 242 l 461 647 l 481 647 l 481 242 "},"đ":{"ha":910,"x_min":11,"x_max":899,"o":"m 704 889 q 849 839 799 889 q 899 694 899 789 l 899 194 q 849 50 899 100 q 704 0 799 0 l 57 0 q 43 14 43 0 l 43 354 l 25 354 q 11 368 11 354 l 11 531 q 25 543 11 543 l 43 543 l 43 875 q 57 889 43 889 l 704 889 m 481 242 l 481 647 l 461 647 l 461 242 l 481 242 "},"Ē":{"ha":768,"x_min":11,"x_max":757,"o":"m 199 1131 l 199 985 q 213 971 199 971 l 557 971 q 569 985 569 971 l 569 1131 q 557 1143 569 1143 l 213 1143 q 199 1131 199 1143 m 25 0 l 743 0 q 757 14 757 0 l 757 313 q 743 325 757 325 l 428 325 l 428 346 l 743 346 q 757 358 757 346 l 757 517 q 743 531 757 531 l 428 531 l 428 550 l 743 550 q 757 564 757 550 l 757 875 q 743 889 757 889 l 25 889 q 11 875 11 889 l 11 14 q 25 0 11 0 "},"ē":{"ha":768,"x_min":11,"x_max":757,"o":"m 199 1131 q 213 1143 199 1143 l 557 1143 q 569 1131 569 1143 l 569 985 q 557 971 569 971 l 213 971 q 199 985 199 971 l 199 1131 m 25 0 q 11 14 11 0 l 11 875 q 25 889 11 889 l 743 889 q 757 875 757 889 l 757 564 q 743 550 757 550 l 428 550 l 428 531 l 743 531 q 757 517 757 531 l 757 358 q 743 346 757 346 l 428 346 l 428 325 l 743 325 q 757 313 757 325 l 757 14 q 743 0 757 0 l 25 0 "},"Ė":{"ha":768,"x_min":11,"x_max":757,"o":"m 274 1154 l 274 958 q 288 946 274 946 l 482 946 q 496 958 496 946 l 496 1154 q 482 1168 496 1168 l 288 1168 q 274 1154 274 1168 m 25 0 l 743 0 q 757 14 757 0 l 757 313 q 743 325 757 325 l 428 325 l 428 346 l 743 346 q 757 358 757 346 l 757 517 q 743 531 757 531 l 428 531 l 428 550 l 743 550 q 757 564 757 550 l 757 875 q 743 889 757 889 l 25 889 q 11 875 11 889 l 11 14 q 25 0 11 0 "},"ė":{"ha":768,"x_min":11,"x_max":757,"o":"m 274 1154 q 288 1168 274 1168 l 482 1168 q 496 1154 496 1168 l 496 958 q 482 946 496 946 l 288 946 q 274 958 274 946 l 274 1154 m 25 0 q 11 14 11 0 l 11 875 q 25 889 11 889 l 743 889 q 757 875 757 889 l 757 564 q 743 550 757 550 l 428 550 l 428 531 l 743 531 q 757 517 757 531 l 757 358 q 743 346 757 346 l 428 346 l 428 325 l 743 325 q 757 313 757 325 l 757 14 q 743 0 757 0 l 25 0 "},"Ę":{"ha":768,"x_min":11,"x_max":768,"o":"m 756 -124 l 682 -124 l 638 -171 l 621 -171 l 751 -8 q 757 8 757 -3 l 757 313 q 743 325 757 325 l 428 325 l 428 346 l 743 346 q 757 358 757 346 l 757 517 q 743 531 757 531 l 428 531 l 428 550 l 743 550 q 757 564 757 550 l 757 875 q 743 889 757 889 l 25 889 q 11 875 11 889 l 11 14 q 25 0 11 0 l 550 0 l 460 -100 l 460 -190 q 554 -285 460 -285 l 756 -285 q 768 -271 768 -285 l 768 -136 q 756 -124 768 -124 "},"ę":{"ha":768,"x_min":11,"x_max":768,"o":"m 756 -124 q 768 -136 768 -124 l 768 -271 q 756 -285 768 -285 l 554 -285 q 460 -190 460 -285 l 460 -100 l 550 0 l 25 0 q 11 14 11 0 l 11 875 q 25 889 11 889 l 743 889 q 757 875 757 889 l 757 564 q 743 550 757 550 l 428 550 l 428 531 l 743 531 q 757 517 757 531 l 757 358 q 743 346 757 346 l 428 346 l 428 325 l 743 325 q 757 313 757 325 l 757 8 q 751 -8 757 -3 l 621 -171 l 638 -171 l 682 -124 l 756 -124 "},"Ě":{"ha":768,"x_min":11,"x_max":757,"o":"m 600 1186 l 433 1186 q 418 1175 422 1186 l 397 1131 l 424 1076 l 408 1076 l 353 1176 q 336 1186 346 1186 l 169 1186 q 160 1169 153 1186 l 281 942 q 297 932 286 932 l 482 932 q 499 942 492 932 l 610 1169 q 600 1186 618 1186 m 25 0 l 743 0 q 757 14 757 0 l 757 313 q 743 325 757 325 l 428 325 l 428 346 l 743 346 q 757 358 757 346 l 757 517 q 743 531 757 531 l 428 531 l 428 550 l 743 550 q 757 564 757 550 l 757 875 q 743 889 757 889 l 25 889 q 11 875 11 889 l 11 14 q 25 0 11 0 "},"ě":{"ha":768,"x_min":11,"x_max":757,"o":"m 600 1186 q 610 1169 618 1186 l 499 942 q 482 932 492 932 l 297 932 q 281 942 286 932 l 160 1169 q 169 1186 153 1186 l 336 1186 q 353 1176 346 1186 l 408 1076 l 424 1076 l 397 1131 l 418 1175 q 433 1186 422 1186 l 600 1186 m 25 0 q 11 14 11 0 l 11 875 q 25 889 11 889 l 743 889 q 757 875 757 889 l 757 564 q 743 550 757 550 l 428 550 l 428 531 l 743 531 q 757 517 757 531 l 757 358 q 743 346 757 346 l 428 346 l 428 325 l 743 325 q 757 313 757 325 l 757 14 q 743 0 757 0 l 25 0 "},"Ğ":{"ha":878,"x_min":11,"x_max":867,"o":"m 340 944 l 538 944 q 632 1039 632 944 l 632 1153 q 619 1167 632 1167 l 463 1167 q 449 1153 449 1167 l 449 1067 l 429 1067 l 429 1153 q 415 1167 429 1167 l 260 1167 q 246 1153 246 1167 l 246 1039 q 340 944 246 944 m 853 467 l 463 467 q 449 453 449 467 l 449 278 q 461 264 449 264 l 529 264 l 529 244 l 429 244 l 429 644 l 449 644 l 449 500 q 463 486 449 486 l 853 486 q 867 500 867 486 l 867 694 q 817 839 867 789 q 672 889 767 889 l 206 889 q 61 839 111 889 q 11 694 11 789 l 11 194 q 61 50 11 100 q 206 0 111 0 l 672 0 q 817 50 767 0 q 867 194 867 100 l 867 453 q 853 467 867 467 "},"ğ":{"ha":878,"x_min":11,"x_max":867,"o":"m 340 944 q 246 1039 246 944 l 246 1153 q 260 1167 246 1167 l 415 1167 q 429 1153 429 1167 l 429 1067 l 449 1067 l 449 1153 q 463 1167 449 1167 l 619 1167 q 632 1153 632 1167 l 632 1039 q 538 944 632 944 l 340 944 m 853 467 q 867 453 867 467 l 867 194 q 817 50 867 100 q 672 0 767 0 l 206 0 q 61 50 111 0 q 11 194 11 100 l 11 694 q 61 839 11 789 q 206 889 111 889 l 672 889 q 817 839 767 889 q 867 694 867 789 l 867 500 q 853 486 867 486 l 463 486 q 449 500 449 486 l 449 644 l 429 644 l 429 244 l 529 244 l 529 264 l 461 264 q 449 278 449 264 l 449 453 q 463 467 449 467 l 853 467 "},"Ġ":{"ha":878,"x_min":11,"x_max":867,"o":"m 328 1154 l 328 958 q 342 946 328 946 l 536 946 q 550 958 550 946 l 550 1154 q 536 1168 550 1168 l 342 1168 q 328 1154 328 1168 m 853 467 l 463 467 q 449 453 449 467 l 449 278 q 461 264 449 264 l 529 264 l 529 244 l 429 244 l 429 644 l 449 644 l 449 500 q 463 486 449 486 l 853 486 q 867 500 867 486 l 867 694 q 817 839 867 789 q 672 889 767 889 l 206 889 q 61 839 111 889 q 11 694 11 789 l 11 194 q 61 50 11 100 q 206 0 111 0 l 672 0 q 817 50 767 0 q 867 194 867 100 l 867 453 q 853 467 867 467 "},"ġ":{"ha":878,"x_min":11,"x_max":867,"o":"m 328 1154 q 342 1168 328 1168 l 536 1168 q 550 1154 550 1168 l 550 958 q 536 946 550 946 l 342 946 q 328 958 328 946 l 328 1154 m 853 467 q 867 453 867 467 l 867 194 q 817 50 867 100 q 672 0 767 0 l 206 0 q 61 50 111 0 q 11 194 11 100 l 11 694 q 61 839 11 789 q 206 889 111 889 l 672 889 q 817 839 767 889 q 867 694 867 789 l 867 500 q 853 486 867 486 l 463 486 q 449 500 449 486 l 449 644 l 429 644 l 429 244 l 529 244 l 529 264 l 461 264 q 449 278 449 264 l 449 453 q 463 467 449 467 l 853 467 "},"Ģ":{"ha":878,"x_min":11,"x_max":867,"o":"m 853 467 l 463 467 q 449 453 449 467 l 449 278 q 461 264 449 264 l 529 264 l 529 244 l 429 244 l 429 644 l 449 644 l 449 500 q 463 486 449 486 l 853 486 q 867 500 867 486 l 867 694 q 817 839 867 789 q 672 889 767 889 l 206 889 q 61 839 111 889 q 11 694 11 789 l 11 194 q 61 50 11 100 q 206 0 111 0 l 672 0 q 817 50 767 0 q 867 194 867 100 l 867 453 q 853 467 867 467 m 322 -247 q 336 -261 322 -261 l 386 -261 l 419 -203 l 435 -203 l 361 -346 q 371 -361 354 -361 l 489 -361 q 506 -353 501 -361 l 556 -258 l 556 -53 q 542 -39 556 -39 l 336 -39 q 322 -53 322 -39 l 322 -247 "},"ģ":{"ha":878,"x_min":11,"x_max":867,"o":"m 853 467 q 867 453 867 467 l 867 194 q 817 50 867 100 q 672 0 767 0 l 206 0 q 61 50 111 0 q 11 194 11 100 l 11 694 q 61 839 11 789 q 206 889 111 889 l 672 889 q 817 839 767 889 q 867 694 867 789 l 867 500 q 853 486 867 486 l 463 486 q 449 500 449 486 l 449 644 l 429 644 l 429 244 l 529 244 l 529 264 l 461 264 q 449 278 449 264 l 449 453 q 463 467 449 467 l 853 467 m 322 -247 l 322 -53 q 336 -39 322 -39 l 542 -39 q 556 -53 556 -39 l 556 -258 l 506 -353 q 489 -361 501 -361 l 371 -361 q 361 -346 354 -361 l 435 -203 l 419 -203 l 386 -261 l 336 -261 q 322 -247 322 -261 "},"Ħ":{"ha":940,"x_min":11,"x_max":929,"o":"m 915 806 l 897 806 l 897 875 q 885 889 897 889 l 493 889 q 481 875 481 889 l 481 806 l 460 806 l 460 875 q 447 889 460 889 l 56 889 q 42 875 42 889 l 42 806 l 25 806 q 11 792 11 806 l 11 647 q 25 633 11 633 l 42 633 l 42 14 q 56 0 42 0 l 447 0 q 460 14 460 0 l 460 315 l 481 315 l 481 14 q 493 0 481 0 l 885 0 q 897 14 897 0 l 897 633 l 915 633 q 929 647 929 633 l 929 792 q 915 806 929 806 m 481 560 l 460 560 l 460 633 l 481 633 l 481 560 "},"ħ":{"ha":940,"x_min":11,"x_max":929,"o":"m 915 806 q 929 792 929 806 l 929 647 q 915 633 929 633 l 897 633 l 897 14 q 885 0 897 0 l 493 0 q 481 14 481 0 l 481 315 l 460 315 l 460 14 q 447 0 460 0 l 56 0 q 42 14 42 0 l 42 633 l 25 633 q 11 647 11 633 l 11 792 q 25 806 11 806 l 42 806 l 42 875 q 56 889 42 889 l 447 889 q 460 875 460 889 l 460 806 l 481 806 l 481 875 q 493 889 481 889 l 885 889 q 897 875 897 889 l 897 806 l 915 806 m 481 560 l 481 633 l 460 633 l 460 560 l 481 560 "},"Ī":{"ha":439,"x_min":11,"x_max":428,"o":"m 33 1131 l 33 985 q 47 971 33 971 l 392 971 q 404 985 404 971 l 404 1131 q 392 1143 404 1143 l 47 1143 q 33 1131 33 1143 m 11 875 l 11 14 q 25 0 11 0 l 414 0 q 428 14 428 0 l 428 875 q 414 889 428 889 l 25 889 q 11 875 11 889 "},"ī":{"ha":439,"x_min":11,"x_max":428,"o":"m 33 1131 q 47 1143 33 1143 l 392 1143 q 404 1131 404 1143 l 404 985 q 392 971 404 971 l 47 971 q 33 985 33 971 l 33 1131 m 11 875 q 25 889 11 889 l 414 889 q 428 875 428 889 l 428 14 q 414 0 428 0 l 25 0 q 11 14 11 0 l 11 875 "},"Į":{"ha":439,"x_min":11,"x_max":439,"o":"m 426 -124 l 353 -124 l 308 -171 l 292 -171 l 422 -8 q 428 8 428 -3 l 428 875 q 414 889 428 889 l 25 889 q 11 875 11 889 l 11 14 q 25 0 11 0 l 221 0 l 131 -100 l 131 -190 q 225 -285 131 -285 l 426 -285 q 439 -271 439 -285 l 439 -136 q 426 -124 439 -124 "},"į":{"ha":439,"x_min":11,"x_max":439,"o":"m 426 -124 q 439 -136 439 -124 l 439 -271 q 426 -285 439 -285 l 225 -285 q 131 -190 131 -285 l 131 -100 l 221 0 l 25 0 q 11 14 11 0 l 11 875 q 25 889 11 889 l 414 889 q 428 875 428 889 l 428 8 q 422 -8 428 -3 l 292 -171 l 308 -171 l 353 -124 l 426 -124 "},"İ":{"ha":439,"x_min":11,"x_max":428,"o":"m 108 1154 l 108 958 q 122 946 108 946 l 317 946 q 331 958 331 946 l 331 1154 q 317 1168 331 1168 l 122 1168 q 108 1154 108 1168 m 11 875 l 11 14 q 25 0 11 0 l 414 0 q 428 14 428 0 l 428 875 q 414 889 428 889 l 25 889 q 11 875 11 889 "},"Ķ":{"ha":874,"x_min":11,"x_max":863,"o":"m 863 875 q 849 889 863 889 l 460 889 q 447 875 447 889 l 447 582 l 426 560 l 426 875 q 414 889 426 889 l 25 889 q 11 875 11 889 l 11 14 q 25 0 11 0 l 414 0 q 426 14 426 0 l 426 315 l 447 293 l 447 14 q 460 0 447 0 l 849 0 q 863 14 863 0 l 863 344 l 765 440 l 863 525 l 863 875 m 539 -39 l 333 -39 q 319 -53 319 -39 l 319 -247 q 333 -261 319 -261 l 383 -261 l 417 -203 l 432 -203 l 358 -346 q 368 -361 351 -361 l 486 -361 q 503 -353 499 -361 l 553 -258 l 553 -53 q 539 -39 553 -39 "},"ķ":{"ha":874,"x_min":11,"x_max":863,"o":"m 863 875 l 863 525 l 765 440 l 863 344 l 863 14 q 849 0 863 0 l 460 0 q 447 14 447 0 l 447 293 l 426 315 l 426 14 q 414 0 426 0 l 25 0 q 11 14 11 0 l 11 875 q 25 889 11 889 l 414 889 q 426 875 426 889 l 426 560 l 447 582 l 447 875 q 460 889 447 889 l 849 889 q 863 875 863 889 m 539 -39 q 553 -53 553 -39 l 553 -258 l 503 -353 q 486 -361 499 -361 l 368 -361 q 358 -346 351 -361 l 432 -203 l 417 -203 l 383 -261 l 333 -261 q 319 -247 319 -261 l 319 -53 q 333 -39 319 -39 l 539 -39 "},"Ĺ":{"ha":572,"x_min":11,"x_max":561,"o":"m 196 1175 l 118 947 q 129 932 114 932 l 303 932 q 318 942 314 932 l 418 1169 q 408 1186 425 1186 l 210 1186 q 196 1175 201 1186 m 561 14 l 561 325 q 547 339 561 339 l 428 339 l 428 875 q 414 889 428 889 l 25 889 q 11 875 11 889 l 11 14 q 25 0 11 0 l 547 0 q 561 14 561 0 "},"ĺ":{"ha":572,"x_min":11,"x_max":561,"o":"m 196 1175 q 210 1186 201 1186 l 408 1186 q 418 1169 425 1186 l 318 942 q 303 932 314 932 l 129 932 q 118 947 114 932 l 196 1175 m 561 14 q 547 0 561 0 l 25 0 q 11 14 11 0 l 11 875 q 25 889 11 889 l 414 889 q 428 875 428 889 l 428 339 l 547 339 q 561 325 561 339 l 561 14 "},"Ļ":{"ha":572,"x_min":11,"x_max":561,"o":"m 561 14 l 561 325 q 547 339 561 339 l 428 339 l 428 875 q 414 889 428 889 l 25 889 q 11 875 11 889 l 11 14 q 25 0 11 0 l 547 0 q 561 14 561 0 m 169 -247 q 183 -261 169 -261 l 233 -261 l 267 -203 l 282 -203 l 208 -346 q 218 -361 201 -361 l 336 -361 q 353 -353 349 -361 l 403 -258 l 403 -53 q 389 -39 403 -39 l 183 -39 q 169 -53 169 -39 l 169 -247 "},"ļ":{"ha":572,"x_min":11,"x_max":561,"o":"m 561 14 q 547 0 561 0 l 25 0 q 11 14 11 0 l 11 875 q 25 889 11 889 l 414 889 q 428 875 428 889 l 428 339 l 547 339 q 561 325 561 339 l 561 14 m 169 -247 l 169 -53 q 183 -39 169 -39 l 389 -39 q 403 -53 403 -39 l 403 -258 l 353 -353 q 336 -361 349 -361 l 218 -361 q 208 -346 201 -361 l 282 -203 l 267 -203 l 233 -261 l 183 -261 q 169 -247 169 -261 "},"Ľ":{"ha":572,"x_min":-18,"x_max":561,"o":"m 429 1186 l 263 1186 q 247 1175 251 1186 l 226 1131 l 253 1076 l 238 1076 l 182 1176 q 165 1186 175 1186 l -1 1186 q -11 1169 -18 1186 l 110 942 q 126 932 114 932 l 311 932 q 328 942 321 932 l 439 1169 q 429 1186 447 1186 m 561 14 l 561 325 q 547 339 561 339 l 428 339 l 428 875 q 414 889 428 889 l 25 889 q 11 875 11 889 l 11 14 q 25 0 11 0 l 547 0 q 561 14 561 0 "},"ľ":{"ha":572,"x_min":-18,"x_max":561,"o":"m 429 1186 q 439 1169 447 1186 l 328 942 q 311 932 321 932 l 126 932 q 110 942 114 932 l -11 1169 q -1 1186 -18 1186 l 165 1186 q 182 1176 175 1186 l 238 1076 l 253 1076 l 226 1131 l 247 1175 q 263 1186 251 1186 l 429 1186 m 561 14 q 547 0 561 0 l 25 0 q 11 14 11 0 l 11 875 q 25 889 11 889 l 414 889 q 428 875 428 889 l 428 339 l 547 339 q 561 325 561 339 l 561 14 "},"Ł":{"ha":603,"x_min":11,"x_max":592,"o":"m 578 339 l 458 339 l 458 476 l 575 531 q 585 546 585 536 l 585 689 q 569 699 585 706 l 458 647 l 458 875 q 444 889 458 889 l 54 889 q 42 875 42 889 l 42 456 l 21 446 q 11 431 11 440 l 11 286 q 26 276 11 269 l 42 283 l 42 14 q 54 0 42 0 l 578 0 q 592 14 592 0 l 592 325 q 578 339 592 339 "},"ł":{"ha":603,"x_min":11,"x_max":592,"o":"m 578 339 q 592 325 592 339 l 592 14 q 578 0 592 0 l 54 0 q 42 14 42 0 l 42 283 l 26 276 q 11 286 11 269 l 11 431 q 21 446 11 440 l 42 456 l 42 875 q 54 889 42 889 l 444 889 q 458 875 458 889 l 458 647 l 569 699 q 585 689 585 706 l 585 546 q 575 531 585 536 l 458 476 l 458 339 l 578 339 "},"Ń":{"ha":875,"x_min":11,"x_max":864,"o":"m 419 1175 l 342 947 q 353 932 338 932 l 526 932 q 542 942 538 932 l 642 1169 q 632 1186 647 1186 l 433 1186 q 419 1175 425 1186 m 25 0 l 386 0 q 400 14 400 0 l 400 139 l 313 319 l 328 319 l 494 10 q 510 0 500 0 l 850 0 q 864 14 864 0 l 864 875 q 850 889 864 889 l 486 889 q 474 875 474 889 l 474 750 l 558 578 l 542 578 l 379 879 q 364 889 374 889 l 25 889 q 11 875 11 889 l 11 14 q 25 0 11 0 "},"ń":{"ha":875,"x_min":11,"x_max":864,"o":"m 419 1175 q 433 1186 425 1186 l 632 1186 q 642 1169 647 1186 l 542 942 q 526 932 538 932 l 353 932 q 342 947 338 932 l 419 1175 m 25 0 q 11 14 11 0 l 11 875 q 25 889 11 889 l 364 889 q 379 879 374 889 l 542 578 l 558 578 l 474 750 l 474 875 q 486 889 474 889 l 850 889 q 864 875 864 889 l 864 14 q 850 0 864 0 l 510 0 q 494 10 500 0 l 328 319 l 313 319 l 400 139 l 400 14 q 386 0 400 0 l 25 0 "},"Ņ":{"ha":875,"x_min":11,"x_max":864,"o":"m 25 0 l 386 0 q 400 14 400 0 l 400 139 l 313 319 l 328 319 l 494 10 q 510 0 500 0 l 850 0 q 864 14 864 0 l 864 875 q 850 889 864 889 l 486 889 q 474 875 474 889 l 474 750 l 558 578 l 542 578 l 379 879 q 364 889 374 889 l 25 889 q 11 875 11 889 l 11 14 q 25 0 11 0 m 321 -247 q 335 -261 321 -261 l 385 -261 l 418 -203 l 433 -203 l 360 -346 q 369 -361 353 -361 l 488 -361 q 504 -353 500 -361 l 554 -258 l 554 -53 q 540 -39 554 -39 l 335 -39 q 321 -53 321 -39 l 321 -247 "},"ņ":{"ha":875,"x_min":11,"x_max":864,"o":"m 25 0 q 11 14 11 0 l 11 875 q 25 889 11 889 l 364 889 q 379 879 374 889 l 542 578 l 558 578 l 474 750 l 474 875 q 486 889 474 889 l 850 889 q 864 875 864 889 l 864 14 q 850 0 864 0 l 510 0 q 494 10 500 0 l 328 319 l 313 319 l 400 139 l 400 14 q 386 0 400 0 l 25 0 m 321 -247 l 321 -53 q 335 -39 321 -39 l 540 -39 q 554 -53 554 -39 l 554 -258 l 504 -353 q 488 -361 500 -361 l 369 -361 q 360 -346 353 -361 l 433 -203 l 418 -203 l 385 -261 l 335 -261 q 321 -247 321 -261 "},"Ň":{"ha":875,"x_min":11,"x_max":864,"o":"m 653 1186 l 486 1186 q 471 1175 475 1186 l 450 1131 l 476 1076 l 461 1076 l 406 1176 q 389 1186 399 1186 l 222 1186 q 213 1169 206 1186 l 333 942 q 350 932 339 932 l 535 932 q 551 942 544 932 l 663 1169 q 653 1186 671 1186 m 25 0 l 386 0 q 400 14 400 0 l 400 139 l 313 319 l 328 319 l 494 10 q 510 0 500 0 l 850 0 q 864 14 864 0 l 864 875 q 850 889 864 889 l 486 889 q 474 875 474 889 l 474 750 l 558 578 l 542 578 l 379 879 q 364 889 374 889 l 25 889 q 11 875 11 889 l 11 14 q 25 0 11 0 "},"ň":{"ha":875,"x_min":11,"x_max":864,"o":"m 653 1186 q 663 1169 671 1186 l 551 942 q 535 932 544 932 l 350 932 q 333 942 339 932 l 213 1169 q 222 1186 206 1186 l 389 1186 q 406 1176 399 1186 l 461 1076 l 476 1076 l 450 1131 l 471 1175 q 486 1186 475 1186 l 653 1186 m 25 0 q 11 14 11 0 l 11 875 q 25 889 11 889 l 364 889 q 379 879 374 889 l 542 578 l 558 578 l 474 750 l 474 875 q 486 889 474 889 l 850 889 q 864 875 864 889 l 864 14 q 850 0 864 0 l 510 0 q 494 10 500 0 l 328 319 l 313 319 l 400 139 l 400 14 q 386 0 400 0 l 25 0 "},"Ŋ":{"ha":875,"x_min":11,"x_max":864,"o":"m 850 889 l 486 889 q 474 875 474 889 l 474 750 l 558 578 l 542 578 l 379 879 q 364 889 374 889 l 25 889 q 11 875 11 889 l 11 14 q 25 0 11 0 l 386 0 q 400 14 400 0 l 400 139 l 313 319 l 328 319 l 494 10 q 510 0 500 0 l 619 0 l 619 -33 l 558 -33 q 544 -47 544 -33 l 544 -208 q 558 -222 544 -222 l 703 -222 q 822 -172 781 -222 q 864 -28 864 -122 l 864 875 q 850 889 864 889 "},"ŋ":{"ha":875,"x_min":11,"x_max":864,"o":"m 850 889 q 864 875 864 889 l 864 -28 q 822 -172 864 -122 q 703 -222 781 -222 l 558 -222 q 544 -208 544 -222 l 544 -47 q 558 -33 544 -33 l 619 -33 l 619 0 l 510 0 q 494 10 500 0 l 328 319 l 313 319 l 400 139 l 400 14 q 386 0 400 0 l 25 0 q 11 14 11 0 l 11 875 q 25 889 11 889 l 364 889 q 379 879 374 889 l 542 578 l 558 578 l 474 750 l 474 875 q 486 889 474 889 l 850 889 "},"Ō":{"ha":878,"x_min":11,"x_max":867,"o":"m 253 1131 l 253 985 q 267 971 253 971 l 611 971 q 624 985 624 971 l 624 1131 q 611 1143 624 1143 l 267 1143 q 253 1131 253 1143 m 11 194 q 61 50 11 100 q 206 0 111 0 l 672 0 q 817 50 767 0 q 867 194 867 100 l 867 694 q 817 839 867 789 q 672 889 767 889 l 206 889 q 61 839 111 889 q 11 694 11 789 l 11 194 m 429 644 l 449 644 l 449 244 l 429 244 l 429 644 "},"ō":{"ha":878,"x_min":11,"x_max":867,"o":"m 253 1131 q 267 1143 253 1143 l 611 1143 q 624 1131 624 1143 l 624 985 q 611 971 624 971 l 267 971 q 253 985 253 971 l 253 1131 m 11 194 l 11 694 q 61 839 11 789 q 206 889 111 889 l 672 889 q 817 839 767 889 q 867 694 867 789 l 867 194 q 817 50 867 100 q 672 0 767 0 l 206 0 q 61 50 111 0 q 11 194 11 100 m 429 644 l 429 244 l 449 244 l 449 644 l 429 644 "},"Ő":{"ha":878,"x_min":11,"x_max":867,"o":"m 328 1175 l 253 947 q 263 932 249 932 l 417 932 q 433 942 428 932 l 522 1169 q 511 1186 528 1186 l 343 1186 q 328 1175 333 1186 m 544 1175 l 457 947 q 468 932 453 932 l 622 932 q 638 942 632 932 l 739 1169 q 729 1186 747 1186 l 561 1186 q 544 1175 549 1186 m 11 194 q 61 50 11 100 q 206 0 111 0 l 672 0 q 817 50 767 0 q 867 194 867 100 l 867 694 q 817 839 867 789 q 672 889 767 889 l 206 889 q 61 839 111 889 q 11 694 11 789 l 11 194 m 429 644 l 449 644 l 449 244 l 429 244 l 429 644 "},"ő":{"ha":878,"x_min":11,"x_max":867,"o":"m 328 1175 q 343 1186 333 1186 l 511 1186 q 522 1169 528 1186 l 433 942 q 417 932 428 932 l 263 932 q 253 947 249 932 l 328 1175 m 544 1175 q 561 1186 549 1186 l 729 1186 q 739 1169 747 1186 l 638 942 q 622 932 632 932 l 468 932 q 457 947 453 932 l 544 1175 m 11 194 l 11 694 q 61 839 11 789 q 206 889 111 889 l 672 889 q 817 839 767 889 q 867 694 867 789 l 867 194 q 817 50 867 100 q 672 0 767 0 l 206 0 q 61 50 111 0 q 11 194 11 100 m 429 644 l 429 244 l 449 244 l 449 644 l 429 644 "},"Œ":{"ha":1194,"x_min":11,"x_max":1183,"o":"m 11 194 q 61 50 11 100 q 206 0 111 0 l 1169 0 q 1183 14 1183 0 l 1183 313 q 1169 325 1183 325 l 854 325 l 854 346 l 1169 346 q 1183 358 1183 346 l 1183 517 q 1169 531 1183 531 l 854 531 l 854 550 l 1169 550 q 1183 564 1183 550 l 1183 875 q 1169 889 1183 889 l 206 889 q 61 839 111 889 q 11 694 11 789 l 11 194 m 429 244 l 429 644 l 449 644 l 449 244 l 429 244 "},"œ":{"ha":1194,"x_min":11,"x_max":1183,"o":"m 11 194 l 11 694 q 61 839 11 789 q 206 889 111 889 l 1169 889 q 1183 875 1183 889 l 1183 564 q 1169 550 1183 550 l 854 550 l 854 531 l 1169 531 q 1183 517 1183 531 l 1183 358 q 1169 346 1183 346 l 854 346 l 854 325 l 1169 325 q 1183 313 1183 325 l 1183 14 q 1169 0 1183 0 l 206 0 q 61 50 111 0 q 11 194 11 100 m 429 244 l 449 244 l 449 644 l 429 644 l 429 244 "},"Ŕ":{"ha":878,"x_min":11,"x_max":867,"o":"m 354 932 l 528 932 q 543 942 539 932 l 643 1169 q 633 1186 649 1186 l 435 1186 q 421 1175 426 1186 l 343 947 q 354 932 339 932 m 867 588 l 867 694 q 817 839 867 789 q 672 889 767 889 l 25 889 q 11 875 11 889 l 11 14 q 25 0 11 0 l 415 0 q 429 14 429 0 l 429 303 l 449 281 l 449 14 q 463 0 449 0 l 853 0 q 867 14 867 0 l 867 342 l 774 432 q 867 588 867 479 m 449 503 l 429 503 l 429 644 l 449 644 l 449 503 "},"ŕ":{"ha":878,"x_min":11,"x_max":867,"o":"m 354 932 q 343 947 339 932 l 421 1175 q 435 1186 426 1186 l 633 1186 q 643 1169 649 1186 l 543 942 q 528 932 539 932 l 354 932 m 867 588 q 774 432 867 479 l 867 342 l 867 14 q 853 0 867 0 l 463 0 q 449 14 449 0 l 449 281 l 429 303 l 429 14 q 415 0 429 0 l 25 0 q 11 14 11 0 l 11 875 q 25 889 11 889 l 672 889 q 817 839 767 889 q 867 694 867 789 l 867 588 m 449 503 l 449 644 l 429 644 l 429 503 l 449 503 "},"Ŗ":{"ha":878,"x_min":11,"x_max":867,"o":"m 867 588 l 867 694 q 817 839 867 789 q 672 889 767 889 l 25 889 q 11 875 11 889 l 11 14 q 25 0 11 0 l 415 0 q 429 14 429 0 l 429 303 l 449 281 l 449 14 q 463 0 449 0 l 853 0 q 867 14 867 0 l 867 342 l 774 432 q 867 588 867 479 m 449 503 l 429 503 l 429 644 l 449 644 l 449 503 m 542 -39 l 336 -39 q 322 -53 322 -39 l 322 -247 q 336 -261 322 -261 l 386 -261 l 419 -203 l 435 -203 l 361 -346 q 371 -361 354 -361 l 489 -361 q 506 -353 501 -361 l 556 -258 l 556 -53 q 542 -39 556 -39 "},"ŗ":{"ha":878,"x_min":11,"x_max":867,"o":"m 867 588 q 774 432 867 479 l 867 342 l 867 14 q 853 0 867 0 l 463 0 q 449 14 449 0 l 449 281 l 429 303 l 429 14 q 415 0 429 0 l 25 0 q 11 14 11 0 l 11 875 q 25 889 11 889 l 672 889 q 817 839 767 889 q 867 694 867 789 l 867 588 m 449 503 l 449 644 l 429 644 l 429 503 l 449 503 m 542 -39 q 556 -53 556 -39 l 556 -258 l 506 -353 q 489 -361 501 -361 l 371 -361 q 361 -346 354 -361 l 435 -203 l 419 -203 l 386 -261 l 336 -261 q 322 -247 322 -261 l 322 -53 q 336 -39 322 -39 l 542 -39 "},"Ř":{"ha":878,"x_min":11,"x_max":867,"o":"m 335 942 q 351 932 339 932 l 536 932 q 553 942 546 932 l 664 1169 q 654 1186 672 1186 l 488 1186 q 472 1175 476 1186 l 451 1131 l 478 1076 l 463 1076 l 407 1176 q 390 1186 400 1186 l 224 1186 q 214 1169 207 1186 l 335 942 m 867 588 l 867 694 q 817 839 867 789 q 672 889 767 889 l 25 889 q 11 875 11 889 l 11 14 q 25 0 11 0 l 415 0 q 429 14 429 0 l 429 303 l 449 281 l 449 14 q 463 0 449 0 l 853 0 q 867 14 867 0 l 867 342 l 774 432 q 867 588 867 479 m 449 503 l 429 503 l 429 644 l 449 644 l 449 503 "},"ř":{"ha":878,"x_min":11,"x_max":867,"o":"m 335 942 l 214 1169 q 224 1186 207 1186 l 390 1186 q 407 1176 400 1186 l 463 1076 l 478 1076 l 451 1131 l 472 1175 q 488 1186 476 1186 l 654 1186 q 664 1169 672 1186 l 553 942 q 536 932 546 932 l 351 932 q 335 942 339 932 m 867 588 q 774 432 867 479 l 867 342 l 867 14 q 853 0 867 0 l 463 0 q 449 14 449 0 l 449 281 l 429 303 l 429 14 q 415 0 429 0 l 25 0 q 11 14 11 0 l 11 875 q 25 889 11 889 l 672 889 q 817 839 767 889 q 867 694 867 789 l 867 588 m 449 503 l 449 644 l 429 644 l 429 503 l 449 503 "},"Ś":{"ha":878,"x_min":11,"x_max":867,"o":"m 421 1175 l 343 947 q 354 932 339 932 l 528 932 q 543 942 539 932 l 643 1169 q 633 1186 649 1186 l 435 1186 q 421 1175 426 1186 m 206 0 l 669 0 q 811 56 756 0 q 867 197 867 111 l 867 343 q 817 488 867 438 q 672 538 767 538 l 429 538 l 429 644 l 449 644 l 449 571 q 463 558 449 558 l 853 558 q 867 572 867 558 l 867 694 q 817 839 867 789 q 672 889 767 889 l 206 889 q 61 839 111 889 q 11 694 11 789 l 11 542 q 61 397 11 447 q 206 347 111 347 l 449 347 l 449 244 l 429 244 l 429 314 q 415 326 429 326 l 25 326 q 11 311 11 326 l 11 194 q 61 50 11 100 q 206 0 111 0 "},"ś":{"ha":878,"x_min":11,"x_max":867,"o":"m 421 1175 q 435 1186 426 1186 l 633 1186 q 643 1169 649 1186 l 543 942 q 528 932 539 932 l 354 932 q 343 947 339 932 l 421 1175 m 206 0 q 61 50 111 0 q 11 194 11 100 l 11 311 q 25 326 11 326 l 415 326 q 429 314 429 326 l 429 244 l 449 244 l 449 347 l 206 347 q 61 397 111 347 q 11 542 11 447 l 11 694 q 61 839 11 789 q 206 889 111 889 l 672 889 q 817 839 767 889 q 867 694 867 789 l 867 572 q 853 558 867 558 l 463 558 q 449 571 449 558 l 449 644 l 429 644 l 429 538 l 672 538 q 817 488 767 538 q 867 343 867 438 l 867 197 q 811 56 867 111 q 669 0 756 0 l 206 0 "},"Ş":{"ha":878,"x_min":11,"x_max":867,"o":"m 463 558 l 853 558 q 867 572 867 558 l 867 694 q 817 839 867 789 q 672 889 767 889 l 206 889 q 61 839 111 889 q 11 694 11 789 l 11 542 q 61 397 11 447 q 206 347 111 347 l 449 347 l 449 244 l 429 244 l 429 314 q 415 326 429 326 l 25 326 q 11 311 11 326 l 11 194 q 61 50 11 100 q 206 0 111 0 l 349 0 l 349 -129 q 363 -142 349 -142 l 524 -142 l 524 -162 l 363 -162 q 349 -175 349 -162 l 349 -271 q 363 -285 349 -285 l 613 -285 q 707 -190 707 -285 l 707 -114 q 613 -19 707 -19 l 533 -19 l 533 0 l 669 0 q 811 56 756 0 q 867 197 867 111 l 867 343 q 817 488 867 438 q 672 538 767 538 l 429 538 l 429 644 l 449 644 l 449 571 q 463 558 449 558 "},"ş":{"ha":878,"x_min":11,"x_max":867,"o":"m 463 558 q 449 571 449 558 l 449 644 l 429 644 l 429 538 l 672 538 q 817 488 767 538 q 867 343 867 438 l 867 197 q 811 56 867 111 q 669 0 756 0 l 533 0 l 533 -19 l 613 -19 q 707 -114 707 -19 l 707 -190 q 613 -285 707 -285 l 363 -285 q 349 -271 349 -285 l 349 -175 q 363 -162 349 -162 l 524 -162 l 524 -142 l 363 -142 q 349 -129 349 -142 l 349 0 l 206 0 q 61 50 111 0 q 11 194 11 100 l 11 311 q 25 326 11 326 l 415 326 q 429 314 429 326 l 429 244 l 449 244 l 449 347 l 206 347 q 61 397 111 347 q 11 542 11 447 l 11 694 q 61 839 11 789 q 206 889 111 889 l 672 889 q 817 839 767 889 q 867 694 867 789 l 867 572 q 853 558 867 558 l 463 558 "},"Š":{"ha":878,"x_min":11,"x_max":867,"o":"m 654 1186 l 488 1186 q 472 1175 476 1186 l 451 1131 l 478 1076 l 463 1076 l 407 1176 q 390 1186 400 1186 l 224 1186 q 214 1169 207 1186 l 335 942 q 351 932 339 932 l 536 932 q 553 942 546 932 l 664 1169 q 654 1186 672 1186 m 206 0 l 669 0 q 811 56 756 0 q 867 197 867 111 l 867 343 q 817 488 867 438 q 672 538 767 538 l 429 538 l 429 644 l 449 644 l 449 571 q 463 558 449 558 l 853 558 q 867 572 867 558 l 867 694 q 817 839 867 789 q 672 889 767 889 l 206 889 q 61 839 111 889 q 11 694 11 789 l 11 542 q 61 397 11 447 q 206 347 111 347 l 449 347 l 449 244 l 429 244 l 429 314 q 415 326 429 326 l 25 326 q 11 311 11 326 l 11 194 q 61 50 11 100 q 206 0 111 0 "},"š":{"ha":878,"x_min":11,"x_max":867,"o":"m 654 1186 q 664 1169 672 1186 l 553 942 q 536 932 546 932 l 351 932 q 335 942 339 932 l 214 1169 q 224 1186 207 1186 l 390 1186 q 407 1176 400 1186 l 463 1076 l 478 1076 l 451 1131 l 472 1175 q 488 1186 476 1186 l 654 1186 m 206 0 q 61 50 111 0 q 11 194 11 100 l 11 311 q 25 326 11 326 l 415 326 q 429 314 429 326 l 429 244 l 449 244 l 449 347 l 206 347 q 61 397 111 347 q 11 542 11 447 l 11 694 q 61 839 11 789 q 206 889 111 889 l 672 889 q 817 839 767 889 q 867 694 867 789 l 867 572 q 853 558 867 558 l 463 558 q 449 571 449 558 l 449 644 l 429 644 l 429 538 l 672 538 q 817 488 767 538 q 867 343 867 438 l 867 197 q 811 56 867 111 q 669 0 756 0 l 206 0 "},"Ţ":{"ha":692,"x_min":11,"x_max":681,"o":"m 667 889 l 25 889 q 11 875 11 889 l 11 564 q 25 550 11 550 l 138 550 l 138 14 q 151 0 138 0 l 256 0 l 256 -129 q 269 -142 256 -142 l 431 -142 l 431 -162 l 269 -162 q 256 -175 256 -162 l 256 -271 q 269 -285 256 -285 l 519 -285 q 614 -190 614 -285 l 614 -114 q 519 -19 614 -19 l 440 -19 l 440 0 l 542 0 q 554 14 554 0 l 554 550 l 667 550 q 681 564 681 550 l 681 875 q 667 889 681 889 "},"ţ":{"ha":692,"x_min":11,"x_max":681,"o":"m 667 889 q 681 875 681 889 l 681 564 q 667 550 681 550 l 554 550 l 554 14 q 542 0 554 0 l 440 0 l 440 -19 l 519 -19 q 614 -114 614 -19 l 614 -190 q 519 -285 614 -285 l 269 -285 q 256 -271 256 -285 l 256 -175 q 269 -162 256 -162 l 431 -162 l 431 -142 l 269 -142 q 256 -129 256 -142 l 256 0 l 151 0 q 138 14 138 0 l 138 550 l 25 550 q 11 564 11 550 l 11 875 q 25 889 11 889 l 667 889 "},"Ť":{"ha":692,"x_min":11,"x_max":681,"o":"m 242 942 q 258 932 247 932 l 443 932 q 460 942 453 932 l 571 1169 q 561 1186 579 1186 l 394 1186 q 379 1175 383 1186 l 358 1131 l 385 1076 l 369 1076 l 314 1176 q 297 1186 307 1186 l 131 1186 q 121 1169 114 1186 l 242 942 m 667 889 l 25 889 q 11 875 11 889 l 11 564 q 25 550 11 550 l 138 550 l 138 14 q 151 0 138 0 l 542 0 q 554 14 554 0 l 554 550 l 667 550 q 681 564 681 550 l 681 875 q 667 889 681 889 "},"ť":{"ha":692,"x_min":11,"x_max":681,"o":"m 242 942 l 121 1169 q 131 1186 114 1186 l 297 1186 q 314 1176 307 1186 l 369 1076 l 385 1076 l 358 1131 l 379 1175 q 394 1186 383 1186 l 561 1186 q 571 1169 579 1186 l 460 942 q 443 932 453 932 l 258 932 q 242 942 247 932 m 667 889 q 681 875 681 889 l 681 564 q 667 550 681 550 l 554 550 l 554 14 q 542 0 554 0 l 151 0 q 138 14 138 0 l 138 550 l 25 550 q 11 564 11 550 l 11 875 q 25 889 11 889 l 667 889 "},"Ŧ":{"ha":692,"x_min":11,"x_max":681,"o":"m 667 889 l 25 889 q 11 875 11 889 l 11 564 q 25 550 11 550 l 138 550 l 138 475 l 110 475 q 96 461 96 475 l 96 317 q 110 303 96 303 l 138 303 l 138 14 q 151 0 138 0 l 542 0 q 554 14 554 0 l 554 303 l 582 303 q 594 317 594 303 l 594 461 q 582 475 594 475 l 554 475 l 554 550 l 667 550 q 681 564 681 550 l 681 875 q 667 889 681 889 "},"ŧ":{"ha":692,"x_min":11,"x_max":681,"o":"m 667 889 q 681 875 681 889 l 681 564 q 667 550 681 550 l 554 550 l 554 475 l 582 475 q 594 461 594 475 l 594 317 q 582 303 594 303 l 554 303 l 554 14 q 542 0 554 0 l 151 0 q 138 14 138 0 l 138 303 l 110 303 q 96 317 96 303 l 96 461 q 110 475 96 475 l 138 475 l 138 550 l 25 550 q 11 564 11 550 l 11 875 q 25 889 11 889 l 667 889 "},"Ū":{"ha":878,"x_min":11,"x_max":867,"o":"m 253 1131 l 253 985 q 267 971 253 971 l 611 971 q 624 985 624 971 l 624 1131 q 611 1143 624 1143 l 267 1143 q 253 1131 253 1143 m 853 889 l 463 889 q 449 875 449 889 l 449 244 l 429 244 l 429 875 q 415 889 429 889 l 25 889 q 11 875 11 889 l 11 194 q 61 50 11 100 q 206 0 111 0 l 672 0 q 817 50 767 0 q 867 194 867 100 l 867 875 q 853 889 867 889 "},"ū":{"ha":878,"x_min":11,"x_max":867,"o":"m 253 1131 q 267 1143 253 1143 l 611 1143 q 624 1131 624 1143 l 624 985 q 611 971 624 971 l 267 971 q 253 985 253 971 l 253 1131 m 853 889 q 867 875 867 889 l 867 194 q 817 50 867 100 q 672 0 767 0 l 206 0 q 61 50 111 0 q 11 194 11 100 l 11 875 q 25 889 11 889 l 415 889 q 429 875 429 889 l 429 244 l 449 244 l 449 875 q 463 889 449 889 l 853 889 "},"Ů":{"ha":878,"x_min":11,"x_max":867,"o":"m 246 1090 l 246 1025 q 340 931 246 931 l 538 931 q 632 1025 632 931 l 632 1090 q 538 1185 632 1185 l 340 1185 q 246 1090 246 1185 m 429 1022 l 429 1093 l 449 1093 l 449 1022 l 429 1022 m 853 889 l 463 889 q 449 875 449 889 l 449 244 l 429 244 l 429 875 q 415 889 429 889 l 25 889 q 11 875 11 889 l 11 194 q 61 50 11 100 q 206 0 111 0 l 672 0 q 817 50 767 0 q 867 194 867 100 l 867 875 q 853 889 867 889 "},"ů":{"ha":878,"x_min":11,"x_max":867,"o":"m 246 1090 q 340 1185 246 1185 l 538 1185 q 632 1090 632 1185 l 632 1025 q 538 931 632 931 l 340 931 q 246 1025 246 931 l 246 1090 m 429 1022 l 449 1022 l 449 1093 l 429 1093 l 429 1022 m 853 889 q 867 875 867 889 l 867 194 q 817 50 867 100 q 672 0 767 0 l 206 0 q 61 50 111 0 q 11 194 11 100 l 11 875 q 25 889 11 889 l 415 889 q 429 875 429 889 l 429 244 l 449 244 l 449 875 q 463 889 449 889 l 853 889 "},"Ű":{"ha":878,"x_min":11,"x_max":867,"o":"m 328 1175 l 253 947 q 263 932 249 932 l 417 932 q 433 942 428 932 l 522 1169 q 511 1186 528 1186 l 343 1186 q 328 1175 333 1186 m 544 1175 l 457 947 q 468 932 453 932 l 622 932 q 638 942 632 932 l 739 1169 q 729 1186 747 1186 l 561 1186 q 544 1175 549 1186 m 853 889 l 463 889 q 449 875 449 889 l 449 244 l 429 244 l 429 875 q 415 889 429 889 l 25 889 q 11 875 11 889 l 11 194 q 61 50 11 100 q 206 0 111 0 l 672 0 q 817 50 767 0 q 867 194 867 100 l 867 875 q 853 889 867 889 "},"ű":{"ha":878,"x_min":11,"x_max":867,"o":"m 328 1175 q 343 1186 333 1186 l 511 1186 q 522 1169 528 1186 l 433 942 q 417 932 428 932 l 263 932 q 253 947 249 932 l 328 1175 m 544 1175 q 561 1186 549 1186 l 729 1186 q 739 1169 747 1186 l 638 942 q 622 932 632 932 l 468 932 q 457 947 453 932 l 544 1175 m 853 889 q 867 875 867 889 l 867 194 q 817 50 867 100 q 672 0 767 0 l 206 0 q 61 50 111 0 q 11 194 11 100 l 11 875 q 25 889 11 889 l 415 889 q 429 875 429 889 l 429 244 l 449 244 l 449 875 q 463 889 449 889 l 853 889 "},"Ų":{"ha":878,"x_min":11,"x_max":867,"o":"m 853 889 l 463 889 q 449 875 449 889 l 449 244 l 429 244 l 429 875 q 415 889 429 889 l 25 889 q 11 875 11 889 l 11 194 q 61 50 11 100 q 206 0 111 0 l 458 0 l 368 -100 l 368 -190 q 463 -285 368 -285 l 664 -285 q 676 -271 676 -285 l 676 -136 q 664 -124 676 -124 l 590 -124 l 546 -171 l 529 -171 l 660 -8 q 665 0 663 -6 l 672 0 q 817 50 767 0 q 867 194 867 100 l 867 875 q 853 889 867 889 "},"ų":{"ha":878,"x_min":11,"x_max":867,"o":"m 853 889 q 867 875 867 889 l 867 194 q 817 50 867 100 q 672 0 767 0 l 665 0 q 660 -8 663 -6 l 529 -171 l 546 -171 l 590 -124 l 664 -124 q 676 -136 676 -124 l 676 -271 q 664 -285 676 -285 l 463 -285 q 368 -190 368 -285 l 368 -100 l 458 0 l 206 0 q 61 50 111 0 q 11 194 11 100 l 11 875 q 25 889 11 889 l 415 889 q 429 875 429 889 l 429 244 l 449 244 l 449 875 q 463 889 449 889 l 853 889 "},"Ŵ":{"ha":1100,"x_min":11,"x_max":1092,"o":"m 335 932 l 501 932 q 517 942 511 932 l 539 983 l 514 1042 l 529 1042 l 582 942 q 599 932 588 932 l 765 932 q 775 947 783 932 l 654 1175 q 638 1186 650 1186 l 457 1186 q 442 1175 446 1186 l 325 947 q 335 932 317 932 m 11 456 l 138 11 q 153 0 142 0 l 489 0 q 503 11 500 0 l 551 163 l 599 11 q 614 0 603 0 l 949 0 q 964 11 961 0 l 1092 456 l 1092 875 q 1078 889 1092 889 l 688 889 q 675 875 675 889 l 675 538 l 671 379 l 656 379 l 653 864 q 639 876 653 876 l 464 876 q 450 864 450 876 l 447 379 l 431 379 l 428 538 l 428 875 q 414 889 428 889 l 25 889 q 11 875 11 889 l 11 456 "},"ŵ":{"ha":1100,"x_min":11,"x_max":1092,"o":"m 335 932 q 325 947 317 932 l 442 1175 q 457 1186 446 1186 l 638 1186 q 654 1175 650 1186 l 775 947 q 765 932 783 932 l 599 932 q 582 942 588 932 l 529 1042 l 514 1042 l 539 983 l 517 942 q 501 932 511 932 l 335 932 m 11 456 l 11 875 q 25 889 11 889 l 414 889 q 428 875 428 889 l 428 538 l 431 379 l 447 379 l 450 864 q 464 876 450 876 l 639 876 q 653 864 653 876 l 656 379 l 671 379 l 675 538 l 675 875 q 688 889 675 889 l 1078 889 q 1092 875 1092 889 l 1092 456 l 964 11 q 949 0 961 0 l 614 0 q 599 11 603 0 l 551 163 l 503 11 q 489 0 500 0 l 153 0 q 138 11 142 0 l 11 456 "},"Ŷ":{"ha":878,"x_min":11,"x_max":867,"o":"m 224 932 l 390 932 q 406 942 400 932 l 428 983 l 403 1042 l 418 1042 l 471 942 q 488 932 476 932 l 654 932 q 664 947 672 932 l 543 1175 q 526 1186 539 1186 l 346 1186 q 331 1175 335 1186 l 214 947 q 224 932 206 932 m 244 0 l 635 0 q 647 14 647 0 l 647 189 l 867 454 l 867 875 q 853 889 867 889 l 463 889 q 449 875 449 889 l 449 561 l 439 547 l 429 561 l 429 875 q 415 889 429 889 l 25 889 q 11 875 11 889 l 11 454 l 231 189 l 231 14 q 244 0 231 0 "},"ŷ":{"ha":878,"x_min":11,"x_max":867,"o":"m 224 932 q 214 947 206 932 l 331 1175 q 346 1186 335 1186 l 526 1186 q 543 1175 539 1186 l 664 947 q 654 932 672 932 l 488 932 q 471 942 476 932 l 418 1042 l 403 1042 l 428 983 l 406 942 q 390 932 400 932 l 224 932 m 244 0 q 231 14 231 0 l 231 189 l 11 454 l 11 875 q 25 889 11 889 l 415 889 q 429 875 429 889 l 429 561 l 439 547 l 449 561 l 449 875 q 463 889 449 889 l 853 889 q 867 875 867 889 l 867 454 l 647 189 l 647 14 q 635 0 647 0 l 244 0 "},"Ź":{"ha":807,"x_min":11,"x_max":796,"o":"m 385 1175 l 307 947 q 318 932 303 932 l 492 932 q 507 942 503 932 l 607 1169 q 597 1186 614 1186 l 399 1186 q 385 1175 390 1186 m 796 14 l 796 324 q 782 339 796 339 l 658 339 l 517 244 l 493 244 l 796 464 l 796 875 q 782 889 796 889 l 25 889 q 11 875 11 889 l 11 564 q 25 550 11 550 l 147 550 l 289 644 l 313 644 l 11 431 l 11 14 q 25 0 11 0 l 782 0 q 796 14 796 0 "},"ź":{"ha":807,"x_min":11,"x_max":796,"o":"m 385 1175 q 399 1186 390 1186 l 597 1186 q 607 1169 614 1186 l 507 942 q 492 932 503 932 l 318 932 q 307 947 303 932 l 385 1175 m 796 14 q 782 0 796 0 l 25 0 q 11 14 11 0 l 11 431 l 313 644 l 289 644 l 147 550 l 25 550 q 11 564 11 550 l 11 875 q 25 889 11 889 l 782 889 q 796 875 796 889 l 796 464 l 493 244 l 517 244 l 658 339 l 782 339 q 796 324 796 339 l 796 14 "},"Ż":{"ha":807,"x_min":11,"x_max":796,"o":"m 292 1154 l 292 958 q 306 946 292 946 l 500 946 q 514 958 514 946 l 514 1154 q 500 1168 514 1168 l 306 1168 q 292 1154 292 1168 m 796 14 l 796 324 q 782 339 796 339 l 658 339 l 517 244 l 493 244 l 796 464 l 796 875 q 782 889 796 889 l 25 889 q 11 875 11 889 l 11 564 q 25 550 11 550 l 147 550 l 289 644 l 313 644 l 11 431 l 11 14 q 25 0 11 0 l 782 0 q 796 14 796 0 "},"ż":{"ha":807,"x_min":11,"x_max":796,"o":"m 292 1154 q 306 1168 292 1168 l 500 1168 q 514 1154 514 1168 l 514 958 q 500 946 514 946 l 306 946 q 292 958 292 946 l 292 1154 m 796 14 q 782 0 796 0 l 25 0 q 11 14 11 0 l 11 431 l 313 644 l 289 644 l 147 550 l 25 550 q 11 564 11 550 l 11 875 q 25 889 11 889 l 782 889 q 796 875 796 889 l 796 464 l 493 244 l 517 244 l 658 339 l 782 339 q 796 324 796 339 l 796 14 "},"Ž":{"ha":807,"x_min":11,"x_max":796,"o":"m 618 1186 l 451 1186 q 436 1175 440 1186 l 415 1131 l 442 1076 l 426 1076 l 371 1176 q 354 1186 364 1186 l 188 1186 q 178 1169 171 1186 l 299 942 q 315 932 303 932 l 500 932 q 517 942 510 932 l 628 1169 q 618 1186 636 1186 m 796 14 l 796 324 q 782 339 796 339 l 658 339 l 517 244 l 493 244 l 796 464 l 796 875 q 782 889 796 889 l 25 889 q 11 875 11 889 l 11 564 q 25 550 11 550 l 147 550 l 289 644 l 313 644 l 11 431 l 11 14 q 25 0 11 0 l 782 0 q 796 14 796 0 "},"ž":{"ha":807,"x_min":11,"x_max":796,"o":"m 618 1186 q 628 1169 636 1186 l 517 942 q 500 932 510 932 l 315 932 q 299 942 303 932 l 178 1169 q 188 1186 171 1186 l 354 1186 q 371 1176 364 1186 l 426 1076 l 442 1076 l 415 1131 l 436 1175 q 451 1186 440 1186 l 618 1186 m 796 14 q 782 0 796 0 l 25 0 q 11 14 11 0 l 11 431 l 313 644 l 289 644 l 147 550 l 25 550 q 11 564 11 550 l 11 875 q 25 889 11 889 l 782 889 q 796 875 796 889 l 796 464 l 493 244 l 517 244 l 658 339 l 782 339 q 796 324 796 339 l 796 14 "},"Ș":{"ha":878,"x_min":11,"x_max":867,"o":"m 206 0 l 669 0 q 811 56 756 0 q 867 197 867 111 l 867 343 q 817 488 867 438 q 672 538 767 538 l 429 538 l 429 644 l 449 644 l 449 571 q 463 558 449 558 l 853 558 q 867 572 867 558 l 867 694 q 817 839 867 789 q 672 889 767 889 l 206 889 q 61 839 111 889 q 11 694 11 789 l 11 542 q 61 397 11 447 q 206 347 111 347 l 449 347 l 449 244 l 429 244 l 429 314 q 415 326 429 326 l 25 326 q 11 311 11 326 l 11 194 q 61 50 11 100 q 206 0 111 0 m 322 -247 q 336 -261 322 -261 l 386 -261 l 419 -203 l 435 -203 l 361 -346 q 371 -361 354 -361 l 489 -361 q 506 -353 501 -361 l 556 -258 l 556 -53 q 542 -39 556 -39 l 336 -39 q 322 -53 322 -39 l 322 -247 "},"ș":{"ha":878,"x_min":11,"x_max":867,"o":"m 206 0 q 61 50 111 0 q 11 194 11 100 l 11 311 q 25 326 11 326 l 415 326 q 429 314 429 326 l 429 244 l 449 244 l 449 347 l 206 347 q 61 397 111 347 q 11 542 11 447 l 11 694 q 61 839 11 789 q 206 889 111 889 l 672 889 q 817 839 767 889 q 867 694 867 789 l 867 572 q 853 558 867 558 l 463 558 q 449 571 449 558 l 449 644 l 429 644 l 429 538 l 672 538 q 817 488 767 538 q 867 343 867 438 l 867 197 q 811 56 867 111 q 669 0 756 0 l 206 0 m 322 -247 l 322 -53 q 336 -39 322 -39 l 542 -39 q 556 -53 556 -39 l 556 -258 l 506 -353 q 489 -361 501 -361 l 371 -361 q 361 -346 354 -361 l 435 -203 l 419 -203 l 386 -261 l 336 -261 q 322 -247 322 -261 "},"Ț":{"ha":692,"x_min":11,"x_max":681,"o":"m 667 889 l 25 889 q 11 875 11 889 l 11 564 q 25 550 11 550 l 138 550 l 138 14 q 151 0 138 0 l 542 0 q 554 14 554 0 l 554 550 l 667 550 q 681 564 681 550 l 681 875 q 667 889 681 889 m 449 -39 l 243 -39 q 229 -53 229 -39 l 229 -247 q 243 -261 229 -261 l 293 -261 l 326 -203 l 342 -203 l 268 -346 q 278 -361 261 -361 l 396 -361 q 413 -353 408 -361 l 463 -258 l 463 -53 q 449 -39 463 -39 "},"ț":{"ha":692,"x_min":11,"x_max":681,"o":"m 667 889 q 681 875 681 889 l 681 564 q 667 550 681 550 l 554 550 l 554 14 q 542 0 554 0 l 151 0 q 138 14 138 0 l 138 550 l 25 550 q 11 564 11 550 l 11 875 q 25 889 11 889 l 667 889 m 449 -39 q 463 -53 463 -39 l 463 -258 l 413 -353 q 396 -361 408 -361 l 278 -361 q 268 -346 261 -361 l 342 -203 l 326 -203 l 293 -261 l 243 -261 q 229 -247 229 -261 l 229 -53 q 243 -39 229 -39 l 449 -39 "},"ˆ":{"ha":667,"x_min":11,"x_max":478,"o":"m 29 599 l 196 599 q 211 608 206 599 l 233 650 l 208 708 l 224 708 l 276 608 q 293 599 282 599 l 460 599 q 469 614 478 599 l 349 842 q 332 853 344 853 l 151 853 q 136 842 140 853 l 19 614 q 29 599 11 599 "},"ˇ":{"ha":667,"x_min":13,"x_max":478,"o":"m 460 853 l 293 853 q 278 842 282 853 l 257 797 l 283 743 l 268 743 l 213 843 q 196 853 206 853 l 29 853 q 19 836 13 853 l 140 608 q 157 599 144 599 l 342 599 q 358 608 351 599 l 469 836 q 460 853 478 853 "},"˘":{"ha":667,"x_min":11,"x_max":397,"o":"m 106 611 l 303 611 q 397 706 397 611 l 397 819 q 385 833 397 833 l 228 833 q 214 819 214 833 l 214 733 l 194 733 l 194 819 q 181 833 194 833 l 25 833 q 11 819 11 833 l 11 706 q 106 611 11 611 "},"˙":{"ha":667,"x_min":11,"x_max":233,"o":"m 11 821 l 11 625 q 25 613 11 613 l 219 613 q 233 625 233 613 l 233 821 q 219 835 233 835 l 25 835 q 11 821 11 835 "},"˚":{"ha":667,"x_min":11,"x_max":397,"o":"m 11 757 l 11 692 q 106 597 11 597 l 303 597 q 397 692 397 597 l 397 757 q 303 851 397 851 l 106 851 q 11 757 11 851 m 194 689 l 194 760 l 214 760 l 214 689 l 194 689 "},"˛":{"ha":667,"x_min":11,"x_max":319,"o":"m 308 8 l 308 28 l 126 28 l 11 -100 l 11 -190 q 106 -285 11 -285 l 307 -285 q 319 -271 319 -285 l 319 -136 q 307 -124 319 -124 l 233 -124 l 189 -171 l 172 -171 l 303 -8 q 308 8 308 -3 "},"˜":{"ha":667,"x_min":11,"x_max":426,"o":"m 25 597 l 140 597 q 153 611 153 597 l 153 647 l 110 681 l 110 696 l 258 597 l 332 597 q 426 692 426 597 l 426 838 q 414 851 426 851 l 297 851 q 285 838 285 851 l 285 797 l 328 764 l 328 749 l 181 851 l 106 851 q 11 757 11 851 l 11 611 q 25 597 11 597 "},"˝":{"ha":667,"x_min":13,"x_max":511,"o":"m 92 842 l 17 614 q 26 599 13 599 l 181 599 q 197 608 192 599 l 286 836 q 275 853 292 853 l 107 853 q 92 842 97 853 m 308 842 l 221 614 q 232 599 217 599 l 386 599 q 401 608 396 599 l 503 836 q 493 853 511 853 l 325 853 q 308 842 313 853 "},"̀":{"ha":0,"x_min":-322,"x_max":-10,"o":"m -108 853 l -306 853 q -317 836 -322 853 l -217 608 q -200 599 -211 599 l -28 599 q -17 614 -10 599 l -94 842 q -108 853 -97 853 "},"́":{"ha":0,"x_min":-329,"x_max":-19,"o":"m -247 842 l -325 614 q -314 599 -329 599 l -140 599 q -125 608 -129 599 l -25 836 q -35 853 -19 853 l -233 853 q -247 842 -242 853 "},"̂":{"ha":0,"x_min":-478,"x_max":-11,"o":"m -460 599 l -293 599 q -278 608 -283 599 l -256 650 l -281 708 l -265 708 l -212 608 q -196 599 -207 599 l -29 599 q -19 614 -11 599 l -140 842 q -157 853 -144 853 l -337 853 q -353 842 -349 853 l -469 614 q -460 599 -478 599 "},"̃":{"ha":0,"x_min":-426,"x_max":-11,"o":"m -412 597 l -297 597 q -285 611 -285 597 l -285 647 l -328 681 l -328 696 l -179 597 l -106 597 q -11 692 -11 597 l -11 838 q -24 851 -11 851 l -140 851 q -153 838 -153 851 l -153 797 l -110 764 l -110 749 l -257 851 l -332 851 q -426 757 -426 851 l -426 611 q -412 597 -426 597 "},"̄":{"ha":0,"x_min":-382,"x_max":-11,"o":"m -382 797 l -382 651 q -368 638 -382 638 l -24 638 q -11 651 -11 638 l -11 797 q -24 810 -11 810 l -368 810 q -382 797 -382 810 "},"̆":{"ha":0,"x_min":-397,"x_max":-11,"o":"m -303 611 l -106 611 q -11 706 -11 611 l -11 819 q -24 833 -11 833 l -181 833 q -194 819 -194 833 l -194 733 l -214 733 l -214 819 q -228 833 -214 833 l -383 833 q -397 819 -397 833 l -397 706 q -303 611 -397 611 "},"̇":{"ha":0,"x_min":-233,"x_max":-11,"o":"m -233 821 l -233 625 q -219 613 -233 613 l -25 613 q -11 625 -11 613 l -11 821 q -25 835 -11 835 l -219 835 q -233 821 -233 835 "},"̈":{"ha":0,"x_min":-453,"x_max":-33,"o":"m -453 810 l -453 636 q -439 624 -453 624 l -267 624 q -253 636 -253 624 l -253 810 q -267 824 -253 824 l -439 824 q -453 810 -453 824 m -233 810 l -233 636 q -219 624 -233 624 l -46 624 q -33 636 -33 624 l -33 810 q -46 824 -33 824 l -219 824 q -233 810 -233 824 "},"̊":{"ha":0,"x_min":-397,"x_max":-11,"o":"m -397 757 l -397 692 q -303 597 -397 597 l -106 597 q -11 692 -11 597 l -11 757 q -106 851 -11 851 l -303 851 q -397 757 -397 851 m -214 689 l -214 760 l -194 760 l -194 689 l -214 689 "},"̋":{"ha":0,"x_min":-508,"x_max":-10,"o":"m -429 842 l -504 614 q -494 599 -508 599 l -340 599 q -324 608 -328 599 l -235 836 q -246 853 -228 853 l -414 853 q -429 842 -424 853 m -212 842 l -300 614 q -289 599 -304 599 l -135 599 q -119 608 -125 599 l -18 836 q -28 853 -10 853 l -196 853 q -212 842 -208 853 "},"̌":{"ha":0,"x_min":-476,"x_max":-11,"o":"m -29 853 l -196 853 q -211 842 -207 853 l -232 797 l -206 743 l -221 743 l -276 843 q -293 853 -283 853 l -460 853 q -469 836 -476 853 l -349 608 q -332 599 -344 599 l -147 599 q -131 608 -137 599 l -19 836 q -29 853 -11 853 "},"̒":{"ha":0,"x_min":-244,"x_max":-11,"o":"m -11 803 q -25 817 -11 817 l -74 817 l -108 758 l -124 758 l -50 901 q -60 917 -43 917 l -178 917 q -194 908 -190 917 l -244 814 l -244 608 q -231 594 -244 594 l -25 594 q -11 608 -11 594 l -11 803 "},"̦":{"ha":0,"x_min":-244,"x_max":-11,"o":"m -244 -247 q -231 -261 -244 -261 l -181 -261 l -147 -203 l -132 -203 l -206 -346 q -196 -361 -212 -361 l -78 -361 q -61 -353 -65 -361 l -11 -258 l -11 -53 q -25 -39 -11 -39 l -231 -39 q -244 -53 -244 -39 l -244 -247 "},"̧":{"ha":0,"x_min":-369,"x_max":-11,"o":"m -356 -285 l -106 -285 q -11 -190 -11 -285 l -11 -114 q -106 -19 -11 -19 l -185 -19 l -185 47 l -369 47 l -369 -129 q -356 -142 -369 -142 l -194 -142 l -194 -162 l -356 -162 q -369 -175 -369 -162 l -369 -271 q -356 -285 -369 -285 "},"̨":{"ha":0,"x_min":-364,"x_max":-56,"o":"m -67 8 l -67 28 l -249 28 l -364 -100 l -364 -190 q -269 -285 -364 -285 l -68 -285 q -56 -271 -56 -285 l -56 -136 q -68 -124 -56 -124 l -142 -124 l -186 -171 l -203 -171 l -72 -8 q -67 8 -67 -3 "},"̵":{"ha":0,"x_min":-510,"x_max":-11,"o":"m -510 381 l -510 236 q -496 222 -510 222 l -24 222 q -11 236 -11 222 l -11 381 q -24 394 -11 394 l -496 394 q -510 381 -510 394 "},"̶":{"ha":0,"x_min":-628,"x_max":-11,"o":"m -628 381 l -628 236 q -614 222 -628 222 l -25 222 q -11 236 -11 222 l -11 381 q -25 394 -11 394 l -614 394 q -628 381 -628 394 "},"̷":{"ha":0,"x_min":-585,"x_max":-11,"o":"m -585 239 l -585 96 q -580 85 -585 89 q -569 86 -575 82 l -21 339 q -11 354 -11 344 l -11 497 q -26 508 -11 517 l -575 254 q -585 239 -585 250 "},"̸":{"ha":0,"x_min":-925,"x_max":-11,"o":"m -925 217 l -925 74 q -921 63 -925 67 q -910 64 -917 60 l -22 497 q -11 514 -11 504 l -11 657 q -28 667 -11 674 l -915 232 q -925 217 -925 228 "},"Ẁ":{"ha":1100,"x_min":11,"x_max":1092,"o":"m 558 1186 l 361 1186 q 350 1169 344 1186 l 450 942 q 467 932 456 932 l 639 932 q 650 947 657 932 l 572 1175 q 558 1186 569 1186 m 11 456 l 138 11 q 153 0 142 0 l 489 0 q 503 11 500 0 l 551 163 l 599 11 q 614 0 603 0 l 949 0 q 964 11 961 0 l 1092 456 l 1092 875 q 1078 889 1092 889 l 688 889 q 675 875 675 889 l 675 538 l 671 379 l 656 379 l 653 864 q 639 876 653 876 l 464 876 q 450 864 450 876 l 447 379 l 431 379 l 428 538 l 428 875 q 414 889 428 889 l 25 889 q 11 875 11 889 l 11 456 "},"ẁ":{"ha":1100,"x_min":11,"x_max":1092,"o":"m 558 1186 q 572 1175 569 1186 l 650 947 q 639 932 657 932 l 467 932 q 450 942 456 932 l 350 1169 q 361 1186 344 1186 l 558 1186 m 11 456 l 11 875 q 25 889 11 889 l 414 889 q 428 875 428 889 l 428 538 l 431 379 l 447 379 l 450 864 q 464 876 450 876 l 639 876 q 653 864 653 876 l 656 379 l 671 379 l 675 538 l 675 875 q 688 889 675 889 l 1078 889 q 1092 875 1092 889 l 1092 456 l 964 11 q 949 0 961 0 l 614 0 q 599 11 603 0 l 551 163 l 503 11 q 489 0 500 0 l 153 0 q 138 11 142 0 l 11 456 "},"Ẃ":{"ha":1100,"x_min":11,"x_max":1092,"o":"m 532 1175 l 454 947 q 465 932 450 932 l 639 932 q 654 942 650 932 l 754 1169 q 744 1186 761 1186 l 546 1186 q 532 1175 538 1186 m 11 456 l 138 11 q 153 0 142 0 l 489 0 q 503 11 500 0 l 551 163 l 599 11 q 614 0 603 0 l 949 0 q 964 11 961 0 l 1092 456 l 1092 875 q 1078 889 1092 889 l 688 889 q 675 875 675 889 l 675 538 l 671 379 l 656 379 l 653 864 q 639 876 653 876 l 464 876 q 450 864 450 876 l 447 379 l 431 379 l 428 538 l 428 875 q 414 889 428 889 l 25 889 q 11 875 11 889 l 11 456 "},"ẃ":{"ha":1100,"x_min":11,"x_max":1092,"o":"m 532 1175 q 546 1186 538 1186 l 744 1186 q 754 1169 761 1186 l 654 942 q 639 932 650 932 l 465 932 q 454 947 450 932 l 532 1175 m 11 456 l 11 875 q 25 889 11 889 l 414 889 q 428 875 428 889 l 428 538 l 431 379 l 447 379 l 450 864 q 464 876 450 876 l 639 876 q 653 864 653 876 l 656 379 l 671 379 l 675 538 l 675 875 q 688 889 675 889 l 1078 889 q 1092 875 1092 889 l 1092 456 l 964 11 q 949 0 961 0 l 614 0 q 599 11 603 0 l 551 163 l 503 11 q 489 0 500 0 l 153 0 q 138 11 142 0 l 11 456 "},"Ẅ":{"ha":1100,"x_min":11,"x_max":1092,"o":"m 340 1143 l 340 969 q 354 957 340 957 l 526 957 q 540 969 540 957 l 540 1143 q 526 1157 540 1157 l 354 1157 q 340 1143 340 1157 m 560 1143 l 560 969 q 574 957 560 957 l 747 957 q 760 969 760 957 l 760 1143 q 747 1157 760 1157 l 574 1157 q 560 1143 560 1157 m 11 456 l 138 11 q 153 0 142 0 l 489 0 q 503 11 500 0 l 551 163 l 599 11 q 614 0 603 0 l 949 0 q 964 11 961 0 l 1092 456 l 1092 875 q 1078 889 1092 889 l 688 889 q 675 875 675 889 l 675 538 l 671 379 l 656 379 l 653 864 q 639 876 653 876 l 464 876 q 450 864 450 876 l 447 379 l 431 379 l 428 538 l 428 875 q 414 889 428 889 l 25 889 q 11 875 11 889 l 11 456 "},"ẅ":{"ha":1100,"x_min":11,"x_max":1092,"o":"m 340 1143 q 354 1157 340 1157 l 526 1157 q 540 1143 540 1157 l 540 969 q 526 957 540 957 l 354 957 q 340 969 340 957 l 340 1143 m 560 1143 q 574 1157 560 1157 l 747 1157 q 760 1143 760 1157 l 760 969 q 747 957 760 957 l 574 957 q 560 969 560 957 l 560 1143 m 11 456 l 11 875 q 25 889 11 889 l 414 889 q 428 875 428 889 l 428 538 l 431 379 l 447 379 l 450 864 q 464 876 450 876 l 639 876 q 653 864 653 876 l 656 379 l 671 379 l 675 538 l 675 875 q 688 889 675 889 l 1078 889 q 1092 875 1092 889 l 1092 456 l 964 11 q 949 0 961 0 l 614 0 q 599 11 603 0 l 551 163 l 503 11 q 489 0 500 0 l 153 0 q 138 11 142 0 l 11 456 "},"Ỳ":{"ha":878,"x_min":11,"x_max":867,"o":"m 447 1186 l 250 1186 q 239 1169 232 1186 l 339 942 q 356 932 344 932 l 528 932 q 539 947 546 932 l 461 1175 q 447 1186 458 1186 m 244 0 l 635 0 q 647 14 647 0 l 647 189 l 867 454 l 867 875 q 853 889 867 889 l 463 889 q 449 875 449 889 l 449 561 l 439 547 l 429 561 l 429 875 q 415 889 429 889 l 25 889 q 11 875 11 889 l 11 454 l 231 189 l 231 14 q 244 0 231 0 "},"ỳ":{"ha":878,"x_min":11,"x_max":867,"o":"m 447 1186 q 461 1175 458 1186 l 539 947 q 528 932 546 932 l 356 932 q 339 942 344 932 l 239 1169 q 250 1186 232 1186 l 447 1186 m 244 0 q 231 14 231 0 l 231 189 l 11 454 l 11 875 q 25 889 11 889 l 415 889 q 429 875 429 889 l 429 561 l 439 547 l 449 561 l 449 875 q 463 889 449 889 l 853 889 q 867 875 867 889 l 867 454 l 647 189 l 647 14 q 635 0 647 0 l 244 0 "},"–":{"ha":608,"x_min":11,"x_max":597,"o":"m 11 508 l 11 347 q 25 333 11 333 l 583 333 q 597 347 597 333 l 597 508 q 583 522 597 522 l 25 522 q 11 508 11 522 "},"—":{"ha":983,"x_min":11,"x_max":972,"o":"m 11 508 l 11 347 q 25 333 11 333 l 958 333 q 972 347 972 333 l 972 508 q 958 522 972 522 l 25 522 q 11 508 11 522 "},"‘":{"ha":300,"x_min":11,"x_max":289,"o":"m 289 753 q 275 767 289 767 l 214 767 l 172 697 l 157 697 l 246 874 q 236 889 253 889 l 92 889 q 75 881 79 889 l 11 774 l 11 503 q 25 489 11 489 l 275 489 q 289 503 289 489 l 289 753 "},"’":{"ha":300,"x_min":11,"x_max":289,"o":"m 11 625 q 25 611 11 611 l 86 611 l 128 681 l 143 681 l 54 504 q 64 489 47 489 l 208 489 q 225 497 221 489 l 289 604 l 289 875 q 275 889 289 889 l 25 889 q 11 875 11 889 l 11 625 "},"‚":{"ha":300,"x_min":11,"x_max":289,"o":"m 11 14 q 25 0 11 0 l 86 0 l 128 69 l 143 69 l 54 -107 q 64 -122 47 -122 l 208 -122 q 225 -114 221 -122 l 289 -7 l 289 264 q 275 278 289 278 l 25 278 q 11 264 11 278 l 11 14 "},"“":{"ha":597,"x_min":11,"x_max":586,"o":"m 289 753 q 275 767 289 767 l 214 767 l 172 697 l 157 697 l 246 874 q 236 889 253 889 l 92 889 q 75 881 79 889 l 11 774 l 11 503 q 25 489 11 489 l 275 489 q 289 503 289 489 l 289 753 m 586 753 q 572 767 586 767 l 511 767 l 469 697 l 454 697 l 543 874 q 533 889 550 889 l 389 889 q 372 881 376 889 l 308 774 l 308 503 q 322 489 308 489 l 572 489 q 586 503 586 489 l 586 753 "},"”":{"ha":597,"x_min":11,"x_max":586,"o":"m 11 625 q 25 611 11 611 l 86 611 l 128 681 l 143 681 l 54 504 q 64 489 47 489 l 208 489 q 225 497 221 489 l 289 604 l 289 875 q 275 889 289 889 l 25 889 q 11 875 11 889 l 11 625 m 308 625 q 322 611 308 611 l 383 611 l 425 681 l 440 681 l 351 504 q 361 489 344 489 l 506 489 q 522 497 518 489 l 586 604 l 586 875 q 572 889 586 889 l 322 889 q 308 875 308 889 l 308 625 "},"„":{"ha":597,"x_min":11,"x_max":586,"o":"m 11 14 q 25 0 11 0 l 86 0 l 128 69 l 143 69 l 54 -107 q 64 -122 47 -122 l 208 -122 q 225 -114 221 -122 l 289 -7 l 289 264 q 275 278 289 278 l 25 278 q 11 264 11 278 l 11 14 m 308 14 q 322 0 308 0 l 383 0 l 425 69 l 440 69 l 351 -107 q 361 -122 344 -122 l 506 -122 q 522 -114 518 -122 l 586 -7 l 586 264 q 572 278 586 278 l 322 278 q 308 264 308 278 l 308 14 "},"†":{"ha":608,"x_min":11,"x_max":597,"o":"m 583 650 l 399 650 l 399 875 q 386 889 399 889 l 224 889 q 210 875 210 889 l 210 650 l 25 650 q 11 636 11 650 l 11 475 q 25 461 11 461 l 210 461 l 210 14 q 224 0 210 0 l 386 0 q 399 14 399 0 l 399 461 l 583 461 q 597 475 597 461 l 597 636 q 583 650 597 650 "},"‡":{"ha":608,"x_min":11,"x_max":597,"o":"m 583 458 q 597 472 597 458 l 597 635 q 583 647 597 647 l 399 647 l 399 875 q 386 889 399 889 l 224 889 q 210 875 210 889 l 210 647 l 25 647 q 11 635 11 647 l 11 472 q 25 458 11 458 l 210 458 l 210 439 l 25 439 q 11 425 11 439 l 11 264 q 25 250 11 250 l 210 250 l 210 14 q 224 0 210 0 l 386 0 q 399 14 399 0 l 399 250 l 583 250 q 597 264 597 250 l 597 425 q 583 439 597 439 l 399 439 l 399 458 l 583 458 "},"•":{"ha":439,"x_min":11,"x_max":428,"o":"m 11 633 l 11 243 q 25 231 11 231 l 414 231 q 428 243 428 231 l 428 633 q 414 647 428 647 l 25 647 q 11 633 11 647 "},"…":{"ha":896,"x_min":11,"x_max":885,"o":"m 11 264 l 11 14 q 25 0 11 0 l 275 0 q 289 14 289 0 l 289 264 q 275 278 289 278 l 25 278 q 11 264 11 278 m 308 264 l 308 14 q 322 0 308 0 l 572 0 q 586 14 586 0 l 586 264 q 572 278 586 278 l 322 278 q 308 264 308 278 m 607 264 l 607 14 q 621 0 607 0 l 871 0 q 885 14 885 0 l 885 264 q 871 278 885 278 l 621 278 q 607 264 607 278 "},"‰":{"ha":1724,"x_min":11,"x_max":1713,"o":"m 150 418 l 381 418 q 519 557 519 418 l 519 750 q 381 889 519 889 l 150 889 q 11 750 11 889 l 11 557 q 150 418 11 418 m 793 881 l 218 17 q 216 6 214 11 q 225 0 218 0 l 385 0 q 400 8 396 0 l 975 872 q 977 883 979 878 q 968 889 975 889 l 808 889 q 793 881 800 889 m 256 607 l 256 700 l 275 700 l 275 607 l 256 607 m 814 0 l 1044 0 q 1183 139 1183 0 l 1183 332 q 1044 471 1183 471 l 814 471 q 675 332 675 471 l 675 139 q 814 0 675 0 m 1342 0 l 1574 0 q 1713 139 1713 0 l 1713 332 q 1574 471 1713 471 l 1342 471 q 1239 435 1275 471 q 1203 332 1203 400 l 1203 139 q 1239 35 1203 71 q 1342 0 1275 0 m 919 189 l 919 282 l 939 282 l 939 189 l 919 189 m 1447 189 l 1447 282 l 1468 282 l 1468 189 l 1447 189 "},"‹":{"ha":425,"x_min":8,"x_max":422,"o":"m 8 447 l 176 176 q 192 168 182 168 l 403 168 q 411 183 421 168 l 258 429 l 222 376 l 203 376 l 411 717 q 403 732 422 732 l 192 732 q 176 724 182 732 l 8 447 "},"›":{"ha":425,"x_min":3,"x_max":417,"o":"m 417 453 l 249 724 q 233 732 243 732 l 22 732 q 14 717 4 732 l 167 471 l 203 524 l 222 524 l 14 183 q 22 168 3 168 l 233 168 q 249 176 243 168 l 417 453 "},"⁄":{"ha":542,"x_min":6,"x_max":535,"o":"m 286 878 l 13 15 q 24 0 6 0 l 242 0 q 256 11 251 0 l 531 874 q 519 889 535 889 l 301 889 q 286 878 290 889 "},"€":{"ha":918,"x_min":11,"x_max":907,"o":"m 503 558 l 893 558 q 907 571 907 558 l 907 694 q 856 839 907 789 q 713 889 806 889 l 247 889 q 103 839 153 889 q 53 694 53 789 l 53 536 l 25 536 q 11 524 11 536 l 11 363 q 25 349 11 349 l 53 349 l 53 194 q 103 50 53 100 q 247 0 153 0 l 713 0 q 856 50 806 0 q 907 194 907 100 l 907 318 q 893 331 907 331 l 503 331 q 490 318 490 331 l 490 189 l 469 189 l 469 351 l 693 351 q 707 364 707 351 l 707 525 q 693 538 707 538 l 469 538 l 469 700 l 490 700 l 490 571 q 503 558 490 558 "},"™":{"ha":1757,"x_min":11,"x_max":1746,"o":"m 667 550 q 681 564 681 550 l 681 875 q 667 889 681 889 l 25 889 q 11 875 11 889 l 11 564 q 25 550 11 550 l 138 550 l 138 14 q 151 0 138 0 l 542 0 q 554 14 554 0 l 554 550 l 667 550 m 1618 878 q 1603 889 1615 889 l 1268 889 q 1253 878 1257 889 l 1206 726 l 1157 878 q 1143 889 1154 889 l 807 889 q 792 878 796 889 l 665 433 l 665 14 q 679 0 665 0 l 1068 0 q 1082 14 1082 0 l 1082 140 l 1085 386 l 1101 386 l 1104 15 q 1118 3 1104 3 l 1293 3 q 1307 15 1307 3 l 1310 386 l 1325 386 l 1329 140 l 1329 14 q 1342 0 1329 0 l 1732 0 q 1746 14 1746 0 l 1746 433 l 1618 878 "},"∂":{"ha":760,"x_min":11,"x_max":749,"o":"m 749 194 l 749 694 q 699 839 749 789 q 554 889 649 889 l 35 889 q 21 875 21 889 l 21 590 q 35 576 21 576 l 385 576 l 385 557 l 206 557 q 61 506 111 557 q 11 363 11 456 l 11 194 q 61 50 11 100 q 206 0 111 0 l 554 0 q 699 50 649 0 q 749 194 749 100 m 385 244 l 364 244 l 364 344 l 385 344 l 385 244 "},"∅":{"ha":531,"x_min":11,"x_max":519,"o":"m 479 647 l 508 678 l 492 692 l 461 661 q 381 679 428 679 l 150 679 q 11 540 11 679 l 11 347 q 51 239 11 275 l 25 211 l 40 197 l 69 226 q 150 208 103 208 l 381 208 q 519 347 519 208 l 519 540 q 479 647 519 614 m 256 490 l 275 490 l 275 468 l 256 449 l 256 490 m 256 397 l 256 418 l 275 439 l 275 397 l 256 397 "},"∏":{"ha":615,"x_min":11,"x_max":604,"o":"m 592 889 l 25 889 q 11 875 11 889 l 11 658 q 25 644 11 644 l 53 644 l 53 14 q 67 0 53 0 l 285 0 q 297 14 297 0 l 297 644 l 318 644 l 318 14 q 331 0 318 0 l 549 0 q 563 14 563 0 l 563 644 l 592 644 q 604 658 604 644 l 604 875 q 592 889 604 889 "},"∑":{"ha":607,"x_min":11,"x_max":596,"o":"m 25 0 l 582 0 q 596 14 596 0 l 596 231 q 582 244 596 244 l 297 244 l 444 444 l 297 644 l 582 644 q 596 658 596 644 l 596 875 q 582 889 596 889 l 25 889 q 11 875 11 889 l 11 644 l 158 444 l 11 244 l 11 14 q 25 0 11 0 "},"−":{"ha":608,"x_min":11,"x_max":597,"o":"m 11 508 l 11 347 q 25 333 11 333 l 583 333 q 597 347 597 333 l 597 508 q 583 522 597 522 l 25 522 q 11 508 11 522 "},"√":{"ha":831,"x_min":6,"x_max":819,"o":"m 807 889 l 522 889 q 507 878 510 889 l 340 311 l 358 221 l 342 221 l 264 544 q 247 556 260 556 l 24 556 q 13 540 6 556 l 182 11 q 197 0 186 0 l 471 0 q 486 11 482 0 l 688 644 l 807 644 q 819 658 819 644 l 819 875 q 807 889 819 889 "},"∞":{"ha":1040,"x_min":11,"x_max":1029,"o":"m 11 347 q 47 244 11 281 q 150 208 82 208 l 414 208 l 564 364 l 581 364 l 531 307 l 625 208 l 890 208 q 994 244 958 208 q 1029 347 1029 281 l 1029 542 q 994 644 1029 608 q 890 681 958 681 l 625 681 l 476 528 l 460 528 l 507 582 l 414 681 l 150 681 q 47 644 82 681 q 11 542 11 608 l 11 347 m 256 397 l 256 492 l 275 492 l 275 397 l 256 397 m 764 397 l 764 492 l 785 492 l 785 397 l 764 397 "},"∫":{"ha":415,"x_min":11,"x_max":404,"o":"m 11 14 q 25 0 11 0 l 136 0 q 281 50 231 0 q 331 194 331 100 l 331 700 l 392 700 q 404 714 404 700 l 404 875 q 392 889 404 889 l 281 889 q 136 839 186 889 q 86 694 86 789 l 86 189 l 25 189 q 11 175 11 189 l 11 14 "},"≈":{"ha":493,"x_min":11,"x_max":482,"o":"m 25 442 l 140 442 q 153 456 153 442 l 153 494 l 110 515 l 110 531 l 314 442 l 388 442 q 482 536 482 442 l 482 667 q 469 681 482 681 l 353 681 q 340 667 340 681 l 340 622 l 383 600 l 383 585 l 181 681 l 106 681 q 11 586 11 681 l 11 456 q 25 442 11 442 m 25 185 l 140 185 q 153 197 153 185 l 153 236 l 110 258 l 110 274 l 314 185 l 388 185 q 482 279 482 185 l 482 408 q 469 422 482 422 l 353 422 q 340 408 340 422 l 340 364 l 383 342 l 383 326 l 181 422 l 106 422 q 11 328 11 422 l 11 197 q 25 185 11 185 "},"≠":{"ha":608,"x_min":11,"x_max":597,"o":"m 583 435 q 597 447 597 435 l 597 610 q 583 624 597 624 l 553 624 l 567 642 q 558 658 579 658 l 374 658 q 358 651 363 658 l 338 624 l 25 624 q 11 610 11 624 l 11 447 q 25 435 11 435 l 201 435 l 186 414 l 25 414 q 11 401 11 414 l 11 239 q 25 225 11 225 l 49 225 l 33 204 q 31 192 28 197 q 42 188 33 188 l 225 188 q 240 196 235 188 l 261 225 l 583 225 q 597 239 597 225 l 597 401 q 583 414 597 414 l 400 414 l 415 435 l 583 435 "},"≤":{"ha":564,"x_min":11,"x_max":553,"o":"m 536 789 l 25 639 q 14 625 14 633 l 14 481 q 25 465 14 471 l 535 311 q 545 313 540 310 q 550 322 550 315 l 550 482 q 538 497 550 493 l 335 542 l 235 525 l 235 542 l 540 603 q 553 618 553 607 l 553 778 q 536 789 553 793 m 553 275 q 539 289 553 289 l 25 289 q 11 275 11 289 l 11 114 q 25 100 11 100 l 539 100 q 553 114 553 100 l 553 275 "},"≥":{"ha":564,"x_min":11,"x_max":553,"o":"m 26 311 l 538 461 q 549 475 549 465 l 549 619 q 538 635 549 631 l 29 789 q 14 778 14 793 l 14 618 q 25 603 14 607 l 229 558 l 329 575 l 329 558 l 24 497 q 11 482 11 493 l 11 322 q 26 311 11 307 m 11 275 l 11 114 q 25 100 11 100 l 539 100 q 553 114 553 100 l 553 275 q 539 289 553 289 l 25 289 q 11 275 11 289 "},"◊":{"ha":675,"x_min":11,"x_max":664,"o":"m 11 442 l 181 11 q 196 0 185 0 l 469 0 q 485 11 481 0 l 664 442 l 485 878 q 469 889 481 889 l 196 889 q 181 878 185 889 l 11 442 m 264 442 l 324 608 l 301 668 l 318 668 l 411 442 l 339 282 l 358 221 l 342 221 l 264 442 "}}}
